<?xml version="1.0" encoding="UTF-8"?>
<svg id="Layer_1" data-name="Layer 1" xmlns="http://www.w3.org/2000/svg" viewBox="0 0 60 60">
  <defs>
    <style>
      .cls-1 {
        fill: none;
        stroke: #ec1e31;
        stroke-miterlimit: 10;
        stroke-width: 2.44px;
      }

      .cls-2 {
        fill: #ec1e31;
      }
    </style>
  </defs>
  <ellipse class="cls-1" cx="20.5" cy="20.73" rx="18.5" ry="18.73"/>
  <path class="cls-2" d="M50.29,57.05c.71.61,1.43,1.22,2.15,1.81.11.12.24.2.39.25.15.08.3.11.47.1.3,0,.66-.13.86-.36s.37-.54.36-.86c-.01-.3-.11-.66-.36-.86-.72-.6-1.44-1.2-2.15-1.81-.25-.21-.52-.36-.86-.36-.3,0-.66.13-.86.36s-.37.54-.36.86.11.65.36.86h0Z"/>
  <path class="cls-2" d="M31.25,36.77c4.75,6.22,10,12.04,15.75,17.35,1.15,1.06,2.88-.66,1.72-1.72-5.59-5.17-10.75-10.8-15.37-16.86-.4-.53-1.05-.79-1.67-.44-.52.29-.84,1.15-.44,1.67h0Z"/>
  <path class="cls-2" d="M54.63,52.63c.3.36.6.73.88,1.1l-.19-.25s.06.07.09.11c.08.14.18.26.31.34.12.11.26.18.41.22.16.05.32.06.49.02.16,0,.31-.06.45-.14l.25-.19c.15-.15.26-.33.31-.54l.04-.32c0-.22-.06-.42-.17-.62-.38-.49-.76-.98-1.16-1.46-.11-.12-.24-.2-.39-.25-.15-.08-.3-.11-.47-.1-.17,0-.32.03-.47.1-.15.05-.28.13-.39.25-.21.23-.37.54-.36.86l.04.32c.06.21.16.39.31.54h0Z"/>
  <path class="cls-2" d="M33.87,35.44c7.01,3.56,12.86,8.85,18.29,14.47,1.09,1.13,2.81-.59,1.72-1.72-5.56-5.76-11.6-11.2-18.78-14.85-1.4-.71-2.63,1.39-1.23,2.1h0Z"/>
  <path class="cls-2" d="M53.96,59.01c1.47-1.1,2.71-2.42,3.67-3.99.33-.54.14-1.36-.44-1.67s-1.31-.14-1.67.44c-.24.4-.51.78-.79,1.14l.19-.25c-.67.86-1.44,1.63-2.3,2.3l.25-.19s-.1.07-.14.11c-.26.2-.47.4-.56.73-.08.29-.04.68.12.94s.42.49.73.56.68.07.94-.12h0Z"/>
  <path class="cls-2" d="M56.32,54.7l.03.02.29.12c.16.05.32.06.49.02.11,0,.21-.03.31-.08.15-.05.28-.13.39-.25l.19-.25.12-.29c.05-.16.06-.32.02-.49,0-.16-.06-.31-.14-.45-.04-.07-.08-.13-.12-.19-.11-.14-.21-.28-.33-.42-.11-.12-.24-.2-.39-.25-.15-.08-.3-.11-.47-.1-.17,0-.32.03-.47.1-.15.05-.28.13-.39.25l-.19.25c-.11.19-.17.4-.17.62l.04.32c.06.21.16.39.31.54.06.08.12.16.19.24l-.19-.25s.02.03.03.05l-.12-.29s0,.02,0,.03l-.04-.32s0,.02,0,.03l.04-.32s0,.01,0,.02l.12-.29s0,0,0,.01l.19-.25s0,0,0,0l.25-.19h0c-.14.08-.26.18-.34.32-.11.12-.18.26-.22.41-.05.16-.06.32-.02.49,0,.16.06.31.14.45l.19.25c.15.15.33.26.54.31l.32.04c.22,0,.42-.06.62-.17.25-.19.27-.18.45-.45,0,0,0,0,0,0,.02-.05.05-.1.06-.15.02-.05.04-.1.06-.15.04-.11.04-.23.05-.34,0,0,0-.02,0-.02-.02-.27-.04-.42-.18-.66,0,0,0-.02-.02-.02-.07-.09-.14-.18-.21-.27-.06-.07-.12-.15-.18-.22l-1.72,1.72c.04.05.08.1.13.15l-.19-.25c.05.06.1.13.14.2l1.67-1.67-.03-.02c-.14-.09-.29-.14-.45-.14-.16-.04-.32-.03-.49.02-.16.04-.3.11-.41.22-.13.09-.24.2-.31.34l-.12.29c-.06.22-.06.43,0,.65l.12.29c.11.18.25.33.44.44h0Z"/>
  <path class="cls-2" d="M57.89,52.87l-.04-.07c-.08-.14-.18-.26-.31-.34-.12-.11-.26-.18-.41-.22-.16-.05-.32-.06-.49-.02-.16,0-.31.06-.45.14l-.25.19c-.15.15-.26.33-.31.54l-.04.32c0,.22.06.42.17.62l.04.07c.08.14.18.26.31.34.12.11.26.18.41.22.16.05.32.06.49.02.16,0,.31-.06.45-.14l.25-.19c.15-.15.26-.33.31-.54l.04-.32c0-.22-.06-.42-.17-.62h0Z"/>
  <path class="cls-2" d="M57.17,52.77s.07.07.1.11l-.04-.05s.03.05.05.07c.02.03.04.05.06.07.02.02.05.04.08.04.03.01.06.01.1,0,.03,0,.06-.01.09-.03l.05-.04s.05-.07.06-.11v-.06s0-.08-.02-.12c-.02-.05-.05-.09-.08-.14-.04-.06-.09-.12-.13-.17-.02-.02-.05-.04-.08-.05-.03-.02-.06-.02-.09-.02-.03,0-.06,0-.09.02-.03,0-.06.03-.08.05l-.04.05s-.03.08-.03.12v.06s.04.08.07.11c.02.02.04.05.06.07l-.04-.05c.04.06.08.12.11.18l.42-.25c-.03-.05-.07-.1-.11-.14-.03-.03-.05-.06-.08-.09-.02-.02-.05-.04-.08-.05-.03-.02-.06-.02-.09-.02-.03,0-.06,0-.09.02-.03,0-.06.03-.08.05l-.04.05s-.03.08-.03.12v.06s.04.08.07.11h0Z"/>
  <path class="cls-2" d="M57.13,52.71s.04.03.05.04l-.05-.04c.09.07.17.15.24.24l.34-.34c-.05-.06-.1-.11-.15-.16-.07-.07-.14-.13-.21-.18-.03-.03-.07-.05-.1-.07l-.25.42c.05.03.11.06.15.1l-.05-.04c.07.06.14.12.2.2l-.04-.05s.06.08.09.13c.02.03.04.05.06.07.02.02.05.04.08.04.03.01.06.01.1,0,.03,0,.06-.01.09-.03l.05-.04s.05-.07.06-.11v-.06s0-.08-.02-.12c-.02-.04-.04-.07-.07-.1-.04-.05-.07-.1-.11-.14-.07-.08-.15-.14-.23-.2-.04-.03-.08-.05-.12-.07-.03-.02-.06-.03-.09-.03-.03,0-.06,0-.1,0-.03,0-.06.02-.08.04-.03.02-.05.04-.06.07l-.02.06s-.01.09,0,.13l.02.06s.05.07.09.09c.04.02.08.05.12.08l-.05-.04c.11.09.21.19.3.3.02.02.05.04.08.05.03.02.06.02.09.02.03,0,.06,0,.09-.02.03,0,.06-.03.08-.05l.04-.05s.03-.08.03-.12v-.06s-.04-.08-.07-.11c-.1-.13-.22-.23-.35-.32-.03-.02-.06-.03-.09-.03-.03,0-.06,0-.1,0-.03,0-.06.02-.08.04-.03.02-.05.04-.06.07l-.02.06s-.01.09,0,.13l.02.06s.05.07.09.09h0Z"/>
  <path class="cls-2" d="M57.39,54.51s-.03.05-.05.07l.04-.05s-.06.07-.1.11l.38.3c.15-.2.3-.41.4-.64.02-.05.04-.1.06-.15,0-.02.01-.04.02-.06,0-.04.01-.08,0-.11,0-.03,0-.06-.02-.09,0-.03-.03-.06-.05-.08-.04-.04-.11-.07-.17-.07s-.13.02-.17.07c-.04.04-.08.11-.07.17,0,.02,0,.03,0,.05v-.06s-.02.09-.04.14l.02-.06c-.1.24-.26.45-.41.66-.02.03-.03.06-.03.09,0,.03,0,.06,0,.1.02.05.04.09.09.13.1.08.23.06.32-.02.07-.07.13-.15.19-.23.03-.05.04-.13.02-.19s-.06-.12-.11-.15c-.06-.03-.13-.04-.19-.02s-.11.06-.15.11h0Z"/>
  <path class="cls-2" d="M57.68,53.77c-.03.05-.05.11-.06.16-.01.06-.01.13.02.19.03.05.07.08.12.1s.11.03.16.01c.06-.02.12-.06.15-.11l.08-.17c.03-.06.04-.12.02-.19-.02-.06-.06-.12-.11-.15-.06-.03-.13-.04-.19-.02-.06.02-.12.06-.15.11-.06.11-.1.22-.14.34v.06s0,.06.01.09c.02.05.05.09.1.12.04.02.08.03.12.03.06,0,.13-.03.17-.07.05-.05.09-.1.12-.16s.06-.12.07-.19,0-.13-.02-.19c-.03-.05-.09-.1-.15-.11-.06-.01-.13-.01-.19.02l-.05.04s-.05.07-.06.11l-.08.21c-.02.05,0,.14.02.19s.07.08.12.1.11.03.16.01c.06-.02.12-.06.15-.11.05-.11.1-.22.13-.33.01-.04.02-.09.02-.13s0-.09,0-.13c-.01-.06-.04-.12-.07-.18-.09-.18-.22-.35-.36-.49-.04-.04-.11-.07-.17-.07s-.13.03-.17.07-.07.11-.07.17.02.13.07.17c.05.05.1.11.14.16l-.04-.05c.07.1.14.2.19.32l-.02-.06s.02.06.02.09v-.06s0,.05-.01.08v-.06c0,.08-.04.17-.07.24l.02-.06s-.03.06-.04.09l.45.19.08-.21-.47-.13s-.01.06-.03.08l.02-.06s-.03.07-.06.1l.04-.05s-.03.04-.05.06l.41.24c.02-.05.03-.11.06-.16l-.02.06s.04-.08.06-.12l-.42-.25-.08.17.45.19s.01-.05.02-.08l-.02.06s0-.02.01-.02c.03-.06.04-.12.02-.19-.02-.06-.06-.12-.11-.15-.06-.03-.13-.04-.19-.02-.06.02-.12.06-.15.11h0Z"/>
  <path class="cls-2" d="M57.6,53.59v.06c0,.06.03.13.07.17s.11.07.17.07.13-.02.17-.07l.04-.05s.03-.08.03-.12c0-.06,0-.11-.01-.17,0-.03-.02-.06-.04-.08-.02-.03-.04-.05-.07-.06l-.06-.02s-.06-.01-.1,0c-.02,0-.04,0-.06.02-.03,0-.06.03-.08.05-.04.05-.08.11-.07.17,0,.06.01.09.04.15,0,.01.02.02.03.04s.02.03.03.04c.03.03.07.05.11.06.04.01.09.01.13,0,.08-.02.14-.09.17-.17,0-.03.01-.05.02-.08s0-.05,0-.08l-.48.06c0,.05.03.1.06.15l.04.05s.05.04.08.05c.02.01.04.02.06.02.03,0,.06,0,.1,0,.04-.01.08-.03.11-.06.02-.02.04-.05.05-.08.02-.03.02-.06.02-.09,0-.04,0-.08.01-.12l-.48.06s.01.08.02.12l.02.06s.04.05.06.07c.04.03.09.05.15.05.04,0,.08-.01.12-.03.03-.02.05-.04.07-.06.02-.02.04-.05.04-.08,0-.04.02-.08.01-.12,0-.03,0-.06-.01-.08,0-.03-.02-.06-.03-.08l-.04-.05s-.05-.04-.08-.05c-.02-.01-.04-.02-.06-.02-.03,0-.06,0-.1,0-.04.01-.08.03-.11.06-.02.02-.04.05-.05.08-.02.03-.02.06-.02.09,0,.08.02.15.05.22,0,.03.02.06.04.08.02.03.04.05.07.06.05.03.13.04.19.02s.12-.06.15-.11l.02-.06s.01-.09,0-.13c-.02-.12-.06-.23-.11-.35s-.12-.21-.19-.3c-.02-.02-.05-.04-.08-.05-.03-.02-.06-.02-.09-.02h-.06s-.06.03-.08.05c-.04.03-.08.08-.09.13v.06s0,.08.02.12c.07.09.14.19.19.3l-.02-.06s.03.1.04.15v-.06s0,.08,0,.13v-.06s0,.07-.02.1l.02-.06s-.03.05-.04.07l.04-.05s0,.01-.01.02c-.04.05-.07.11-.07.17,0,.06.03.13.07.17s.11.07.17.07.13-.02.17-.07c.06-.07.11-.15.13-.23.01-.04.02-.09.02-.14,0-.03,0-.05,0-.08,0-.07-.02-.15-.04-.22-.03-.08-.06-.15-.11-.22-.04-.06-.08-.11-.12-.17l-.38.3s.01.02.02.03l-.04-.05c.06.08.11.16.14.24l-.02-.06c.04.09.06.18.08.27l.47-.13s-.03-.09-.04-.14v.06s0,0,0-.01l-.45.12h0s-.02-.03-.02-.05c0,.01,0,.03.01.04v-.06s0,.03,0,.04v-.06s0,0,0,.01h.47s-.01-.08-.02-.12c0-.03-.02-.06-.04-.08-.02-.03-.04-.05-.07-.06l-.06-.02s-.06-.01-.1,0c-.02,0-.04,0-.06.02-.03,0-.06.03-.08.05l-.04.05s-.03.08-.03.12c0,.04,0,.08-.01.12l.45-.12s-.02-.02-.02-.04l.02.06s-.01-.03-.01-.05c0-.03-.02-.06-.04-.08-.02-.03-.04-.05-.07-.06l-.06-.02s-.06-.01-.1,0c-.02,0-.04,0-.06.02-.03,0-.06.03-.08.05-.04.05-.07.11-.07.17,0,.02,0,.03,0,.05v-.06s0,.03,0,.05l.41-.11s0,0-.01-.01l.04.05s0,0,0-.02l.02.06s0-.01,0-.02v.06s0,0,0,0l-.48.06s0,0,0,.01v-.06s0,.06,0,.09h.49v-.06c0-.06-.03-.13-.07-.17s-.11-.07-.17-.07-.13.02-.17.07-.07.11-.07.17h0Z"/>
  <path class="cls-2" d="M35.99,35.71c-.5-.74-1.2-1.29-2.07-1.52-.8-.21-1.72.56-1.42,1.42.28.78.75,1.41,1.45,1.87.41.27,1.06.18,1.39-.18.36-.4.41-.92.18-1.39-.3-.62-.82-1.15-1.44-1.47-.42-.22-.9-.2-1.28.09-.34.26-.57.78-.41,1.21.26.68.6,1.27,1.07,1.83.18.21.38.4.6.57.29.23.66.55,1.03.63l-.84-1.11v.03c.06-.19.11-.39.16-.58l.13-.17,1.12-.3h-.04c.23.17.46.35.69.52l-.04-.06.16.58c-.05.24-.05.18,0-.17.01-.06.01-.13,0-.19,0-.19-.05-.41-.11-.59-.11-.32-.28-.61-.48-.88-.36-.48-1.01-.77-1.57-.41-.5.32-.77,1.04-.41,1.57.92,1.39,1.79,3.05,3.47,3.61.81.27,1.69-.6,1.42-1.42-.41-1.22-1.04-2.32-1.89-3.29-.37-.43-1.09-.42-1.51-.09s-.6.99-.3,1.48c1,1.61,2.31,2.98,3.87,4.06.4.28,1.07.17,1.39-.18.35-.38.45-.94.18-1.39-.49-.84-1.09-1.62-1.75-2.33-.4-.42-1.07-.43-1.51-.09s-.63,1.02-.3,1.48l.13.18c.35.49,1.02.77,1.57.41.48-.31.79-1.05.41-1.57l-.13-.18-1.81,1.39c.14.15.29.31.42.47.07.08.13.16.2.24.22.27-.13-.18.08.1.25.34.48.69.7,1.06l1.57-1.57c-.16-.11-.33-.23-.49-.35.2.15-.06-.05-.08-.07-.08-.06-.15-.13-.23-.19-.31-.26-.6-.54-.88-.84-.14-.15-.28-.3-.41-.45-.07-.08-.13-.16-.2-.23-.03-.04-.21-.27-.07-.09-.25-.33-.48-.66-.69-1.01l-1.81,1.39c.09.1.17.2.26.31-.16-.2.09.13.12.17.13.19.26.39.38.6s.23.41.32.63c.03.06.06.12.08.18-.05-.12-.05-.12,0,0,.05.13.09.25.14.38l1.42-1.42c-.26-.09.12.08-.01,0-.06-.04-.13-.07-.19-.11-.03-.02-.24-.15-.1-.06s-.07-.06-.09-.08c-.11-.1-.22-.21-.32-.33-.05-.06-.1-.12-.15-.18-.12-.13.15.21-.02-.03-.42-.57-.8-1.17-1.19-1.77l-1.99,1.16c.08.11.16.22.23.33.03.06.07.12.1.18l-.05-.09c.03.13.03.13,0-.02.03-.23.03-.16-.02.18,0,.25.05.48.18.7.31.52.93.75,1.49.51.43-.18.8-.65.75-1.15s-.32-1-.84-1.11c.19.08.22.09.09.02-.05-.03-.1-.07-.15-.1-.22-.14.12.12-.06-.04s-.34-.31-.49-.49c-.03-.03-.06-.07-.09-.11.08.11.09.11.01.01-.06-.09-.12-.18-.18-.27s-.11-.19-.16-.29c-.03-.06-.05-.11-.08-.17.05.13.06.14.01.01l-1.69,1.3c.11.06.22.12.32.19-.16-.12-.02,0,.05.06.05.05.17.25.06.06.06.11.13.21.19.33l1.57-1.57c-.1-.07-.1-.06.02.03-.05-.04-.09-.08-.13-.12-.06-.06-.12-.13-.18-.2.17.21,0-.02-.02-.06-.03-.05-.06-.11-.08-.16.05.14.06.14.01.02l-1.42,1.42c.07.02.4.16.15.03.11.06.21.12.32.18-.23-.14.07.07.12.12.04.04.08.09.12.14-.08-.11-.09-.11-.01,0,.34.5,1.03.77,1.57.41.5-.32.77-1.04.41-1.57h0Z"/>
  <path class="cls-2" d="M37.64,39.78c.78,1.35,1.88,2.47,3.23,3.26.89.52,1.75-.49,1.33-1.33-.68-1.39-1.88-2.39-3.31-2.93-.65-.24-1.48.53-1.2,1.2.58,1.37,1.21,2.72,1.93,4.03.6,1.11,2.24.13,1.68-.98s-1.39-2.22-2.36-3.09c-.84-.74-2.03.18-1.53,1.18,1.31,2.62,3.42,4.82,6,6.22.68.37,1.41-.1,1.47-.84.21-2.72-1.2-5.41-3.52-6.83-.72-.44-1.67.29-1.43,1.1.37,1.24.89,2.43,1.57,3.53s1.47,2.02,2.69,2.45c.62.22,1.22-.35,1.23-.94.06-1.92-.69-3.79-2.06-5.14-.68-.67-1.91,0-1.63.95.58,1.95,1.82,3.6,3.53,4.71.73.47,1.65-.31,1.43-1.1-.23-.84-.65-1.57-1.26-2.19-.65-.66-1.98.01-1.63.95.47,1.25,1.12,2.36,2,3.36.62.71,1.98-.04,1.63-.95-.43-1.1-1.16-2.01-2.23-2.55-.41-.21-.84-.15-1.18.15-.58.52-.43,1.26-.22,1.92.23.71.46,1.42.69,2.13l1.63-.95c-.69-.62-1.34-1.29-1.95-2-.71-.83-2.17.27-1.53,1.18.67.96,1.33,1.91,2,2.87.45.64,1.23.6,1.68,0,.86-1.13,1.47-2.42,1.82-3.79.32-1.23-1.46-1.69-1.88-.52-.35.98-.73,1.95-1.15,2.9s.41,1.73,1.33,1.33c.85-.37,1.54-1.04,1.98-1.85.52-.95-.74-1.99-1.53-1.18s-1.43,1.71-1.91,2.71c-.21.44-.16.95.25,1.26.38.28.94.28,1.28-.08.84-.9,1.56-1.91,2.12-3.01s-1.11-2.1-1.68-.98c-.49.96-1.09,1.83-1.82,2.61l1.53,1.18c.41-.86.94-1.63,1.61-2.32l-1.53-1.18c-.3.55-.71.9-1.28,1.15l1.33,1.33c.49-1.11.94-2.23,1.35-3.36l-1.88-.52c-.31,1.22-.86,2.32-1.62,3.32h1.68l-2-2.87-1.53,1.18c.61.71,1.25,1.38,1.95,2s1.95.03,1.63-.95c-.15-.47-.31-.95-.46-1.42-.08-.24-.15-.47-.23-.71-.04-.12-.08-.24-.11-.35-.05-.26-.11-.15-.17.34l-1.18.15c.59.3,1.09.75,1.33,1.38l1.63-.95c-.64-.74-1.16-1.59-1.5-2.5l-1.63.95c.37.38.62.82.76,1.33l1.43-1.1c-1.28-.83-2.2-2.09-2.63-3.54l-1.63.95c1.01,1,1.53,2.34,1.48,3.76l1.23-.94c-.8-.28-1.3-1.17-1.7-1.85-.51-.88-.91-1.8-1.2-2.77l-1.43,1.1c1.77,1.08,2.71,3.1,2.55,5.14l1.47-.84c-2.31-1.25-4.13-3.17-5.3-5.52l-1.53,1.18c.87.77,1.54,1.66,2.06,2.69l1.68-.98c-.63-1.16-1.22-2.35-1.73-3.57l-1.2,1.2c.97.36,1.7,1.12,2.15,2.03l1.33-1.33c-1.07-.62-1.91-1.49-2.53-2.56s-2.31-.11-1.68.98h0Z"/>
  <path class="cls-2" d="M48.4,47.28l-.18-.12c-.15-.09-.32-.13-.49-.13-.13,0-.26.02-.38.08-.12.04-.23.11-.31.2-.12.12-.2.27-.25.43,0,0,0,0,0,.01,0,.02-.03.24-.04.26,0,0,0,0,0,0,0,0,0,0,0,.01,0,.02.03.24.04.26,0,0,0,0,0,0,0,0,0,0,0,.01.01.04.06.15.05.12-.02-.04.03.08.05.12,0,0,0,0,0,.01,0,0,0,0,0,0,.02.03.13.17.15.2,0,0,.01.01.02.02.03.02.17.13.2.15,0,0,0,0,0,0,0,0,0,0,.01,0,0,0,0,0,.01,0,0,0,0,0,0,0,.06.03.17.08.24.1,0,0,.02,0,.03,0,.05,0,.11.02.14.02.04,0,.1.02.14.02.05,0,.13-.01.16-.02.04,0,.11,0,.16-.02.09-.03.18-.06.26-.11,0,0,0,0,.01-.01.05-.03.15-.12.2-.15,0,0,0,0,0,0,0,0,.02-.02.02-.02.03-.03.06-.08.09-.11.03-.03.06-.07.09-.11,0-.01.01-.02.02-.03,0-.01.01-.03.02-.04.04-.09.08-.18.11-.27,0-.03.02-.06.03-.08.04-.13.05-.26.02-.39,0-.13-.04-.25-.12-.36-.06-.11-.14-.2-.25-.27-.09-.09-.2-.14-.33-.17l-.26-.03c-.18,0-.34.04-.49.13l-.2.15c-.12.12-.2.27-.25.43-.01.04-.02.08-.04.12l.1-.23s-.03.06-.05.09l.15-.2s-.03.03-.04.04l.2-.15s-.02.02-.04.02l.23-.1s-.02,0-.03,0l.26-.03s-.03,0-.04,0l.26.03s-.03,0-.04-.01l.23.1s-.03-.01-.04-.02l.2.15s-.02-.01-.02-.02l.15.2s0-.01-.01-.02l.1.23s0-.02,0-.02l.03.26s0-.01,0-.02l-.03.26s0-.01,0-.02l-1.43.58.18.12c.11.07.23.11.36.12.13.03.26.02.39-.02.13-.03.24-.09.33-.17.11-.07.19-.16.25-.27l.1-.23c.05-.17.05-.35,0-.52l-.1-.23c-.09-.15-.2-.26-.35-.35h0Z"/>
  <path class="cls-2" d="M52.6,48.32c-.45.04-.88.16-1.27.41-.32.2-.62.46-.87.74-.47.51-.85,1.1-1.25,1.67-.14.2-.16.52-.1.75s.24.47.45.58c.5.26,1.03.1,1.33-.35.24-.35.47-.7.73-1.03l-.15.2c.25-.33.53-.64.85-.89l-.2.15c.15-.11.31-.21.48-.29l-.23.1c.14-.06.28-.1.42-.12l-.26.03s.04,0,.06,0c.26-.02.5-.09.69-.29.17-.17.3-.45.29-.69s-.09-.51-.29-.69c-.18-.17-.44-.31-.69-.29h0Z"/>
  <path class="cls-2" d="M51.67,51.45c.42-.56.8-1.15,1.16-1.75.21-.36.16-.89-.15-1.18-.12-.11-.27-.2-.43-.25-.21-.07-.57-.04-.75.1-1.11.83-2.11,1.83-2.71,3.1-.11.24-.17.49-.1.75.06.23.24.47.45.58.43.23,1.1.14,1.33-.35.19-.41.43-.79.71-1.15l-.15.2c.43-.56.95-1.05,1.51-1.49l-.2.15s.1-.07.14-.11l-1.33-1.33c-.36.6-.74,1.19-1.16,1.75-.14.19-.16.54-.1.75.06.23.24.47.45.58.23.12.5.18.75.1l.23-.1c.15-.09.26-.2.35-.35h0Z"/>
  <path class="cls-2" d="M47.17,47.98c-.09.25-.13.52-.18.78-.07.42.04.89.45,1.1s.85.15,1.18-.15c.7-.64,1.19-1.44,1.5-2.33.13-.39-.09-.91-.45-1.1-.39-.2-.86-.16-1.18.15-.87.86-1.36,2.01-1.41,3.23-.03.72.86,1.24,1.47.84.76-.49,1.29-1.58,1.23-2.48-.04-.7-.53-1.29-1.27-1.27-.65.02-1.21.47-1.51,1.03-.57,1.05-.96,2.78.27,3.54.63.39,1.46.26,1.97-.27s.69-1.28.5-1.96c-.34-1.23-1.92-1.79-3.01-1.19-.58.32-.91.94-.95,1.59s.27,1.18.78,1.53c.75.52,1.89.51,2.73.24,1.19-.37,2.25-1.68,1.55-2.93s-2.62-1.1-3.55-.17c-.69.69-1.13,1.7-1.2,2.67-.09,1.21.84,2.22,2.07,2.17,1.11-.04,2.14-.91,2.8-1.73.36-.45.71-.94.86-1.51.13-.51.13-1.15-.16-1.62-.34-.53-.99-.71-1.58-.51-.48.17-.89.5-1.23.86-.69.73-1.17,1.58-1.16,2.61,0,.48.12.99.49,1.34s.91.43,1.39.29c.79-.24,1.42-.92,1.9-1.56.43-.57.86-1.35.64-2.09-.2-.64-.84-1-1.49-.83-.4.11-.74.39-1.02.69-.62.67-1.15,1.52-1.42,2.4-.12.4-.19.87-.05,1.27.17.48.67.85,1.2.68.48-.15.86-.68.68-1.2-.06-.18,0,.08,0,.1,0-.04,0-.11,0-.15-.01-.14-.06.28,0,.07.02-.07.03-.14.05-.21.02-.06.04-.12.06-.18.01-.04.03-.08.04-.11.04-.11-.09.2-.04.09.07-.15.14-.3.22-.45.07-.13.15-.27.23-.39.04-.07.09-.13.13-.2.05-.08.25-.26.03-.05.09-.09.16-.2.25-.29.04-.05.09-.09.14-.14.03-.03.22-.19.06-.06s0,.01.04-.02c.14-.11-.22.07-.11.04.02,0,.03,0,.05-.01-.26.06-.13.04-.3.01-.18-.03-.38-.14-.5-.29-.11-.14-.07-.09-.04-.05.06.09-.1-.28-.07-.16s-.03-.32-.02-.14,0-.07.02-.13c-.02.04-.02.1-.04.14s-.09.23,0,.04,0,0-.03.05c-.05.11-.12.21-.18.31-.03.05-.07.11-.11.16-.15.21.1-.11,0,0s-.17.2-.26.3c-.08.09-.17.18-.26.26-.05.04-.09.08-.14.12-.06.05-.13.06.1-.08-.03.02-.06.05-.09.07-.08.06-.17.1-.26.15-.14.08.26-.07.08-.03-.11.02-.25.02.1,0-.03,0-.06,0-.1,0,.21.01.19,0,.36.1-.15-.09.2.18.1.08-.07-.07.17.24.1.13-.02-.04-.06-.13.01.04.08.19.02,0,0-.04-.04-.12,0,.28.01.06,0-.07,0-.15,0-.22,0-.05.02-.36.01-.2,0,.14.01-.04.02-.08.01-.05.05-.11.06-.16-.02.19-.09.19-.04.11.02-.03.03-.06.04-.08.04-.07.08-.15.12-.22.04-.07.09-.13.13-.2.03-.04.06-.07.08-.11,0,.01-.15.19-.05.07s.21-.24.32-.35c.05-.05.11-.11.17-.16.02-.02.05-.04.07-.06.09-.08-.21.15-.07.05.05-.03.1-.07.15-.1.02-.01.05-.03.07-.04.13-.08.05.05-.1.04.02,0,.11-.02.13-.03-.13.09-.35,0-.44-.04-.14-.06-.23-.12-.32-.28.05.09-.06-.03-.06-.15,0,0,.03.1.03.11-.02-.02,0-.27-.02-.13,0,.03,0,.07,0,.1,0,.06-.02.37,0,.15.02-.2-.02.04-.04.09,0,.01-.03.09-.03.09-.02-.01.12-.25.01-.04-.07.14-.15.27-.24.4-.03.04-.06.08-.09.13-.06.11.12-.14.04-.05-.07.08-.14.17-.21.25-.13.14-.26.27-.4.4-.07.07-.15.12-.23.19-.09.09.15-.1.04-.03-.05.03-.1.07-.15.11-.13.09-.32.15-.44.25.13-.11.17-.06.08-.04-.03,0-.07.02-.1.03-.04.01-.08.02-.12.03-.17.05.06-.03.1-.01-.02,0-.29,0-.1,0s-.11-.05-.14-.05c0,0,.25.09.1.04,0,0-.08-.05-.08-.05.06-.03.18.16.09.07-.13-.14.04.03.04.07,0-.02-.14-.27-.05-.07.08.18,0-.05-.01-.09-.04-.14,0,.27.01.03,0-.08,0-.16,0-.24,0-.16,0,.11-.02.11,0,0,.02-.09.02-.1.02-.08.03-.15.06-.23s.05-.15.07-.23c.01-.03.03-.07.04-.1-.05.23-.05.12-.01.04.06-.13.13-.27.21-.39.04-.06.08-.13.12-.19.13-.2-.14.15.02-.02.04-.04.07-.08.11-.12.06-.06.12-.1,0-.02.05-.03.1-.07.15-.1.03-.02.15-.11.04-.03s.03,0,.07-.02c.05-.01.1-.02.16-.04.12-.04-.24,0-.05.01.04,0,.08,0,.12,0,.12,0,0,.06-.09-.01.02.01.08.02.11.03.25.07-.16-.07.03.02.03.01.14.09,0,0-.18-.12.1.14-.04-.04-.1-.12-.03-.04-.01,0,.06.11-.09-.25-.04-.08.02.07,0,.17-.02-.12,0,.11-.05,0,.02-.11,0,0-.03.1-.03.11-.04-.06.1-.18.03-.07,0,.01-.11.2-.04.07.07-.12-.05.05-.07.08-.04.05-.09.08-.14.13-.07.07.21-.13.11-.09-.05.02-.1.06-.15.09-.19.11.18-.06.04-.01-.07.02-.14.05-.22.07-.07.02-.14.03-.21.05-.03,0-.06,0-.1.02-.12.03.27-.02.09-.01-.15.01-.3.02-.45.02-.06,0-.13-.02-.19-.01.21-.03.21.04.09.01-.03,0-.06-.01-.09-.02-.07-.01-.13-.04-.19-.05-.09-.02-.04-.09.11.05-.02-.02-.09-.04-.11-.06-.19-.09.12.13.04.04-.01-.01-.04-.04-.05-.05-.12-.09.13.18.07.09-.13-.19.05.16.01.04-.03-.11.05.02.01.14.01-.03,0-.1,0-.13,0-.13-.07.25,0,.02s-.07.12,0,0c.09-.15-.14.13-.05.06.02-.02.05-.04.07-.07.07-.1-.2.16-.07.06.03-.02.17-.09,0-.01-.21.1.1,0,.11-.01-.02.02-.26,0-.12.02.02,0,.07,0,.1,0,.14-.02-.09,0-.12-.02.03.02.08.02.12.02.03,0,.06.02.09.03.08.01-.22-.13-.06-.02.03.02.05.03.08.05.13.07-.02.06-.06-.05,0,.01.06.06.07.06.09.1-.07-.07-.06-.09,0,0,.05.07.05.08.04.16-.03-.12-.04-.1,0,.01.03.1.03.12.04.09,0-.24-.01-.08,0,.07.04.16,0,.05-.03-.1.02-.04-.02.03-.08.19.02-.03.02-.03,0,0-.06.11-.06.1,0-.02.16-.18.05-.07s.07-.05.08-.05c-.03.02-.06.04-.09.05.16-.06.19-.08.1-.05l.17-.02s-.06,0-.09,0l.17.02c-.07-.02-.06-.02.03.01.23.06-.11-.06.09.04l.06.04c-.07-.07-.05-.05.04.06,0,0-.06-.12-.06-.11,0,0,.07.18.04.07-.04-.12.02.13.02.14,0-.01,0-.13,0-.14,0-.03,0-.07,0-.1,0-.15,0,.07-.02.09.03-.08.03-.19.05-.27.01-.05.14-.59.18-.59,0,0-.11.22-.02.06.02-.04.03-.07.05-.11.04-.07.09-.14.12-.21.05-.11-.15.15-.07.08.02-.01.07-.06.07-.08,0-.02-.21.22-.09.08.05-.05.27-.09-.06.01.2-.06-.17,0-.09,0-.19,0-.37-.06-.53-.22l-.12-.16c.03.05.02.03-.03-.07-.07-.17-.04-.09-.03-.05.03.1,0-.3-.02-.15,0,.03,0,.06,0,.09,0,.03-.01.07,0,.1,0,0,.06-.27.02-.13-.02.06-.02.12-.04.17-.02.07-.04.14-.06.2-.01.04-.06.14,0,0,.08-.17,0,0-.02.04-.04.08-.2.26-.2.34,0-.12.15-.17.07-.09-.02.02-.04.04-.05.06-.02.02-.05.04-.07.07-.07.09.22-.16.1-.08l1.47.84s.04-.4,0-.16c.02-.11.04-.22.06-.33s.06-.22.09-.32c.02-.05.04-.11.06-.16-.04.09-.05.1-.02.04.1-.19.19-.37.31-.55.03-.05.06-.09.1-.14-.07.09-.07.09,0,0,.08-.08.15-.17.23-.24l-1.63-.95c-.03.08-.06.16-.09.24.08-.19-.02.04-.04.08-.08.17-.17.33-.27.48-.02.02-.16.23-.1.14s-.09.11-.11.13c-.12.14-.25.27-.39.39l1.63.95c.05-.26.09-.53.18-.78.16-.48-.19-1.09-.68-1.2-.54-.12-1.02.16-1.2.68h0Z"/>
  <path class="cls-2" d="M53.09,52.61l-.02.02.15-.2c-.46.59-.99,1.12-1.55,1.62-.18.16-.29.46-.29.69s.11.52.29.69.43.3.69.29l.26-.03c.17-.05.31-.13.43-.25.29-.25.57-.52.83-.79.32-.33.61-.68.89-1.04.07-.11.11-.23.12-.36.03-.13.02-.26-.02-.39-.06-.23-.24-.47-.45-.58-.23-.12-.5-.18-.75-.1l-.23.1c-.15.09-.26.2-.35.35h0Z"/>
  <path class="cls-2" d="M54.44,53.12c-.7.84-1.48,1.61-2.34,2.29-.17.14-.3.47-.29.69s.07.42.21.59c.3.38.83.49,1.26.25.67-.38,1.33-.83,1.84-1.41.62-.7,1-1.51,1.07-2.45.03-.41-.32-.85-.72-.94s-.91.05-1.1.45c-.14.31-.32.6-.52.87-.02.02-.11.14-.02.02s0,0-.02.02c-.05.06-.1.12-.16.19-.11.13-.23.25-.36.38-.23.23-.48.44-.73.65-.06.05-.13.1-.19.15-.03.02-.17.13-.05.04.12-.09,0,0-.02.02-.14.1-.27.21-.41.31l1.18,1.53c.6-.47,1.19-.95,1.71-1.5.61-.66,1.09-1.39,1.4-2.24.14-.39-.09-.91-.45-1.1-.38-.2-.88-.17-1.18.15-.51.54-1.06,1.05-1.64,1.51-.03.03-.07.05-.1.08-.1.08.15-.11.04-.03-.07.05-.14.11-.21.16-.15.11-.31.22-.46.33-.31.21-.63.41-.96.6-.44.26-.63.89-.35,1.33s.86.62,1.33.35c1.52-.87,3.23-2,3.59-3.85.09-.48-.1-.95-.56-1.15s-.92,0-1.22.4c-.03.04-.05.07-.08.11-.06.08-.05.07.03-.04-.03.06-.08.11-.12.16-.1.12-.2.24-.3.35-.19.22-.39.42-.59.62s-.41.39-.63.58c-.11.09-.23.23-.36.29.21-.11.05-.04-.01,0-.07.05-.14.1-.21.16-.21.15-.38.32-.45.58-.06.23-.04.54.1.75.26.41.89.67,1.33.35,1.15-.83,2.13-1.8,2.97-2.93l-1.78-.75c-.02.1-.04.19-.07.29-.01.04-.03.08-.04.13-.03.08-.11.2.02-.04-.08.15-.15.31-.25.46-.03.04-.06.09-.09.13-.02.03-.12.16-.02.03s0,0-.02.03c-.03.04-.07.08-.1.12-.13.14-.26.27-.4.4-.07.06-.14.12-.21.18-.03.03-.07.05-.11.08.21-.19.08-.06.02-.02-.15.11-.31.22-.47.32-.31.21-.64.4-.97.58l.98,1.68c1.37-.8,2.64-1.8,3.72-2.96l-1.63-.95s-.03.08-.04.12c-.08.2.07-.14.01-.03-.04.08-.08.17-.12.25-.08.15-.17.3-.26.44-.05.08-.1.15-.16.22-.07.1.01-.02.04-.05-.03.04-.06.08-.09.12-.12.14-.24.28-.36.41-.5.52-1.06.97-1.62,1.42-.18.14-.3.48-.29.69s.07.42.21.59c.27.35.87.54,1.26.25,1.24-.92,2.5-1.91,3.17-3.34l-1.82-.49s0,.08,0,.11c0-.26.02-.15,0-.07-.01.07-.03.14-.05.21-.02.08-.05.16-.08.23-.04.12.02-.06.04-.08-.02.04-.04.08-.06.12-.07.14-.15.27-.24.39-.02.03-.04.06-.06.09.14-.22.08-.1.03-.05-.05.06-.11.12-.16.18-.11.11-.22.22-.34.32-.06.05-.13.11-.19.16-.1.08.04-.03.07-.05-.03.02-.06.04-.09.07-.26.19-.54.36-.82.52l1.18,1.53c.85-.68,1.64-1.45,2.34-2.29.17-.2.29-.42.29-.69,0-.24-.11-.52-.29-.69-.36-.33-1.03-.42-1.38,0h0Z"/>
  <path class="cls-2" d="M44.88,52.09c1,1.06,2.06,2.05,3.15,3.01s2.13,2.04,3.39,2.7c.47.24,1.06.12,1.33-.35.26-.44.12-1.09-.35-1.33-1.14-.59-2.1-1.59-3.09-2.47-1.06-.94-2.09-1.9-3.06-2.93-.36-.38-1.01-.36-1.38,0s-.36.99,0,1.38h0Z"/>
  <path class="cls-2" d="M51.85,48.92c.82.84,1.65,1.67,2.45,2.53.18.19.36.39.53.59.08.09.16.19.24.29.04.05.08.1.02.02.05.06.09.12.14.19.15.21.29.43.42.66.06.11.12.22.17.33.12.23,0-.08.02.04.02.09,0-.2,0-.22l.25-.43-.04.05c-.33.39-.41,1,0,1.38.37.34,1.02.41,1.38,0,.64-.74.25-1.56-.19-2.29-.35-.57-.77-1.1-1.21-1.6-.89-1.01-1.86-1.95-2.8-2.91-.36-.37-1.03-.38-1.38,0s-.38.99,0,1.38h0Z"/>
  <path class="cls-2" d="M48.96,50.95c-.35.43-.67.88-.96,1.35-.26.41-.12.97.25,1.26.35.27.97.3,1.28-.08.11-.14.23-.28.34-.41l-1.53-1.18c-.14.3-.31.59-.49.86-.27.4-.11.98.25,1.26s.94.27,1.28-.08c1.29-1.33,2.58-2.65,3.87-3.98.36-.37.39-1.02,0-1.38s-1-.39-1.38,0c-1.29,1.33-2.58,2.65-3.87,3.98l1.53,1.18c.19-.27.35-.56.49-.86.21-.44.15-.94-.25-1.26-.35-.27-.97-.3-1.28.08-.11.14-.23.28-.34.41l1.53,1.18c.12-.19.24-.38.37-.56.06-.08.11-.16.17-.24.02-.02.15-.19.06-.08s.06-.07.06-.08c.17-.21.29-.41.29-.69,0-.24-.11-.52-.29-.69-.35-.32-1.04-.43-1.38,0h0Z"/>
  <path class="cls-2" d="M54.42,51.27c-1.27,1.23-2.5,2.5-3.69,3.8-.34.38-.4,1.01,0,1.38.37.34,1.01.4,1.38,0,1.19-1.31,2.42-2.58,3.69-3.8.37-.36.38-1.03,0-1.38s-.99-.38-1.38,0h0Z"/>
  <path class="cls-2" d="M47.34,44.44c-.12-.22-.24-.43-.39-.63-.12-.16-.24-.32-.38-.45-.02-.02-.05-.04-.07-.06-.08-.06-.16-.14-.25-.19-.16-.09-.35-.14-.53-.15-.1,0-.19.01-.29.04-.17.05-.24.09-.36.19-.13.1-.15.11-.26.28,0,.01-.02.03-.02.04-.03.05-.1.2-.12.29-.06.26-.05.42,0,.68,0,.06.02.11.05.17.05.13.1.27.18.39.07.11.15.22.24.32.16.16.33.25.54.33s.42.06.63.01c.01,0,.02,0,.04,0,.07-.02.18-.07.24-.1.1-.05.18-.12.26-.19.21-.21.33-.49.33-.79,0-.25-.08-.43-.18-.65-.03-.06-.06-.12-.1-.17-.08-.12-.17-.24-.28-.34-.25-.24-.61-.34-.95-.25-.17.05-.31.13-.43.25-.12.12-.2.27-.25.43-.05.13-.06.27-.07.4,0,.07.01.13.02.2,0,.07.01.14.04.21.03.13.09.24.17.33.07.11.16.19.27.25.11.07.23.11.36.12.13.03.26.02.39-.02l.23-.1c.15-.09.26-.2.35-.35l.1-.23c.05-.17.05-.35,0-.52,0-.03-.01-.05-.02-.08l.03.26s0-.08,0-.12l-.03.26s.01-.06.03-.1l-1.63.43s.07.08.11.12l-.15-.2c.05.07.1.15.14.24l-.1-.23s.03.07.03.11l-.03-.26s0,.02,0,.03l.03-.26s0,.02,0,.03l.1-.23s-.01.02-.02.03l.15-.2s-.02.02-.03.03l.2-.15s-.03.02-.04.02l.23-.1s-.03,0-.05.01l.26-.03s-.04,0-.06,0l.26.03s-.03,0-.05-.01l.23.1s-.04-.02-.06-.04l.2.15s-.06-.05-.08-.08l.15.2c-.05-.07-.09-.14-.13-.22l.1.23c-.02-.06-.04-.11-.05-.18l.03.26s0-.09,0-.13l-.03.26s.01-.06.03-.09l-.1.23s.01-.03.02-.04l-.15.2h.01c-.07.04-.13.09-.2.14h.01c-.08.02-.16.06-.23.09,0,0,.02,0,.03,0l-.26.03h.01c-.09-.01-.17-.02-.26-.03.02,0,.03,0,.04.01l-.23-.1s.04.02.05.03l-.2-.15c.11.09.21.2.3.31l-.15-.2c.15.2.27.41.39.63.06.11.14.2.25.27.09.09.2.14.33.17.13.04.26.05.39.02.13,0,.25-.04.36-.12l.2-.15c.12-.12.2-.27.25-.43l.03-.26c0-.18-.04-.34-.13-.49h0Z"/>
  <path class="cls-2" d="M41.96,41.41c-.34-.6-.78-1.16-1.29-1.63-.38-.34-1.01-.4-1.38,0-.17.19-.3.43-.29.69s.11.48.29.69c.36.43.85.72,1.37.91.2.07.45.03.63-.05s.37-.21.47-.4c.08-.15.13-.32.13-.49.01-.26-.12-.5-.29-.69-.45-.53-.95-1.02-1.5-1.45-.2-.16-.42-.3-.69-.29-.22,0-.42.07-.59.21-.16.12-.3.3-.35.51-.05.24-.06.55.1.75.28.38.61.71,1.04.93s.88.34,1.37.34c.39,0,.74-.25.89-.6.07-.17.09-.33.07-.51-.03-.19-.11-.43-.27-.56-.59-.48-1.17-.95-1.76-1.43-.21-.17-.41-.29-.69-.29-.24,0-.52.11-.69.29-.34.37-.41,1.02,0,1.38.52.45,1.09.79,1.74,1.01.22.07.56.03.75-.1.18-.12.31-.27.4-.47s.12-.43.05-.63c-.08-.26-.23-.42-.45-.58-.38-.29-.78-.55-1.19-.78-.44-.25-1.09-.12-1.33.35s-.12,1.05.35,1.33c.78.48,1.67.81,2.58.94.27.04.51.05.75-.1.2-.12.4-.35.45-.58.06-.25.04-.53-.1-.75-.13-.2-.34-.41-.58-.45-.53-.08-1.04-.22-1.53-.42l.23.1c-.28-.12-.56-.26-.82-.42l-.98,1.68c.41.23.81.49,1.19.78l.75-1.78c-.09-.03-.18-.07-.28-.1l.23.1c-.3-.13-.59-.3-.85-.5l.2.15c-.06-.05-.13-.1-.19-.16l-1.38,1.38c.59.48,1.17.95,1.76,1.43l.69-1.66c-.09,0-.18,0-.26-.02l.26.03c-.16-.02-.32-.07-.47-.13l.23.1c-.16-.07-.32-.16-.46-.27l.2.15c-.13-.1-.24-.22-.35-.34l.15.2-.03-.04-1.53,1.18c.55.43,1.05.91,1.5,1.45l.95-1.63s-.09-.03-.13-.05l.23.1c-.17-.07-.33-.17-.48-.28l.2.15c-.12-.1-.23-.2-.33-.32l-1.38,1.38c.24.22.47.47.67.73l-.15-.2c.17.22.33.46.47.7.25.44.89.63,1.33.35s.62-.86.35-1.33h0Z"/>
  <path class="cls-2" d="M34.31,34.78c5.4,3.12,9.76,7.62,14.06,12.07,1.09,1.13,2.81-.59,1.72-1.72-4.44-4.59-8.97-9.23-14.55-12.45-1.36-.79-2.59,1.32-1.23,2.1h0Z"/>
  <path class="cls-2" d="M55.88,57.4c.71-.71,1.36-1.46,1.96-2.26.33-.43.72-.9.55-1.48-.07-.24-.22-.44-.4-.61-.06-.05-.12-.1-.17-.15,0,0-.09-.1-.1-.1.02,0,.1.16.02,0-.18-.34-.68-.47-1-.26-.34.22-.45.64-.26,1,.08.16.21.3.34.42.06.05.12.1.17.15,0,0,.05.06.06.06l-.06-.08c.03.05.03.05,0-.02-.02-.06-.03-.07-.01-.03.02.06.01.03-.01-.09,0-.01.02-.15.03-.14,0,0-.14.21-.16.23-.06.08-.12.17-.18.25-.03.05-.07.09-.1.14-.08.1.1-.13-.03.04-.52.66-1.08,1.3-1.68,1.89-.27.27-.29.77,0,1.03s.74.29,1.03,0h0Z"/>
  <path class="cls-2" d="M56.64,53.92c.18.21.41.39.65.54.14.08.31.11.47.09s.31-.08.42-.2c.09-.09.15-.2.19-.32.06-.18.02-.4-.07-.56-.3-.55-.69-1.05-1.14-1.49-.14-.13-.33-.21-.52-.21-.18,0-.39.08-.52.21s-.22.32-.21.52.07.38.21.52c.2.19.38.39.55.61l-.11-.15c.18.23.34.47.48.73l1-1c-.07-.04-.14-.09-.21-.14l.15.11c-.11-.08-.21-.18-.3-.28-.12-.14-.34-.21-.52-.21s-.39.08-.52.21-.22.32-.21.52l.03.19c.03.12.1.23.19.32h0Z"/>
  <path class="cls-2" d="M38.38,21.52c-2.96-.22-5.67-1.51-7.77-3.6-1.76-1.74-3.39-3.69-6.03-3.94-2.45-.23-4.77,1.08-6.03,3.16-.74,1.21-.78,2.49-1.15,3.82-.38,1.41-1.73,2.15-2.91,2.82-.92.53-.4,1.71.49,1.82,1.64.2,3.33.52,3.95,2.25.55,1.56.96,3.11,1.73,4.59s1.7,2.77,2.89,3.85c.86.78,2.19,2.08,3.41,1.52.41-.19.52-.71.45-1.1v-.07c-.24-1.23-2.12-.71-1.89.52v.07c.16-.37.31-.73.46-1.1.54-.05.58-.15.14-.32-.2-.12-.39-.25-.58-.39-.3-.23-.59-.48-.86-.75-.62-.6-1.15-1.26-1.61-1.98-.86-1.34-1.49-2.8-1.95-4.33-.41-1.37-.78-2.63-2.01-3.49s-2.7-1.05-4.12-1.22l.49,1.82c1.02-.58,2.06-1.21,2.83-2.13.89-1.07.99-2.24,1.28-3.55.57-2.6,3.15-4.63,5.85-3.64,2.3.84,3.75,3.37,5.7,4.77,2.13,1.53,4.65,2.35,7.25,2.55,1.25.09,1.25-1.86,0-1.95h0Z"/>
  <path class="cls-2" d="M27.12,36.34c-.1-.03-.21-.07-.31-.1-.05-.02-.09-.03-.14-.05-.02,0-.05-.02-.07-.03-.07-.03-.04-.02.07.03,0,0-.23-.12-.25-.13-.03-.02-.2-.11-.08-.04.11.07-.05-.04-.07-.06l-.69,1.66c.76.08,1.52.16,2.28.24.82.09,1.62.13,2.44-.02.5-.09.83-.73.68-1.2-.18-.54-.66-.77-1.2-.68-.11.02-.11.02,0,0-.04,0-.08,0-.13.01-.09,0-.17.01-.26.02-.19,0-.37,0-.56,0-.36-.02-.72-.05-1.07-.09-.73-.08-1.47-.16-2.2-.24-.38-.04-.76.28-.89.6-.15.35-.09.8.2,1.06.49.45,1.08.69,1.71.89.49.16,1.09-.18,1.2-.68.12-.54-.16-1.03-.68-1.2h0Z"/>
  <path class="cls-2" d="M23.31,21.69c1.25,0,1.26-1.95,0-1.95s-1.26,1.95,0,1.95h0Z"/>
</svg>