<?xml version="1.0" encoding="UTF-8"?>
<svg id="Layer_1" data-name="Layer 1" xmlns="http://www.w3.org/2000/svg" viewBox="0 0 48 48">
  <defs>
    <style>
      .cls-1 {
        fill: none;
        stroke: #ec1e31;
        stroke-miterlimit: 10;
        stroke-width: 1.96px;
      }

      .cls-2 {
        fill: #ec1e31;
      }
    </style>
  </defs>
  <path class="cls-1" d="M16.07,1.5C7.85,1.64,1.3,8.46,1.43,16.74c.13,8.28,6.9,14.89,15.11,14.75,8.21-.13,14.77-6.96,14.63-15.24-.13-8.28-6.9-14.89-15.11-14.75ZM21.16,17.25c-.27.22-.52.37-.84.49-.08.03-.17.05-.26.08-.21.11-.44.2-.68.24-.4.08-.82.08-1.21,0-.07.02-.15.03-.23.04-.07.03-.15.07-.22.08-.23.05-.41.05-.63,0-.2-.05-.38-.16-.54-.3-.08-.07-.14-.16-.2-.24-.02-.03-.04-.06-.05-.09-.05-.1-.1-.21-.13-.32-.03-.11-.04-.25-.05-.36-.02-.18.01-.37.04-.55.01-.09.03-.18.06-.27-.01-.32.04-.65.22-.92.18-.26.42-.47.73-.56.03,0,.06-.01.09-.02.22-.25.51-.45.84-.58,1.03-.39,2.52.05,3.02,1.08.17.34.22.72.18,1.09.08.14.13.31.13.47,0,.21-.1.5-.26.64Z"/>
  <path class="cls-2" d="M40.22,45.73c.57.49,1.14.98,1.72,1.46.09.1.19.16.31.2.12.06.24.09.38.08.24,0,.53-.11.69-.29s.3-.43.29-.69c-.01-.25-.09-.53-.29-.69-.58-.48-1.15-.97-1.72-1.46-.2-.17-.42-.29-.69-.29-.24,0-.53.11-.69.29s-.3.43-.29.69.09.52.29.69h0Z"/>
  <path class="cls-2" d="M25.01,29.39c3.79,5.01,7.99,9.69,12.59,13.98.92.86,2.31-.52,1.38-1.38-4.47-4.17-8.59-8.71-12.28-13.58-.32-.42-.84-.63-1.34-.35-.42.24-.67.92-.35,1.34h0Z"/>
  <path class="cls-2" d="M43.74,42.21c.22.26.43.53.64.8l-.15-.2c.05.06.09.12.14.18.06.11.15.21.25.27.09.09.21.14.33.18.13.04.26.05.39.02.13,0,.25-.04.36-.12l.2-.15c.12-.12.2-.27.25-.43l.03-.26c0-.18-.05-.34-.13-.49-.3-.4-.61-.79-.93-1.17-.09-.1-.19-.16-.31-.2-.12-.06-.24-.09-.38-.08-.13,0-.26.02-.38.08-.12.04-.23.11-.31.2-.17.19-.3.43-.29.69l.03.26c.05.17.13.31.25.43h0Z"/>
  <path class="cls-2" d="M27.12,28.33c5.62,2.89,10.3,7.16,14.63,11.69.87.91,2.25-.47,1.38-1.38-4.44-4.64-9.28-9.03-15.03-12-1.12-.58-2.11,1.11-.99,1.69h0Z"/>
  <path class="cls-2" d="M43.16,47.31c1.18-.87,2.19-1.93,2.97-3.18.27-.43.11-1.1-.35-1.34-.48-.25-1.05-.11-1.34.35-.18.28-.37.56-.57.83l.15-.2c-.54.69-1.16,1.32-1.85,1.86l.2-.15c-.06.05-.13.1-.19.14-.21.16-.38.32-.45.58-.06.23-.04.55.1.75s.34.39.58.45.55.05.75-.1h0Z"/>
  <path class="cls-2" d="M45.08,43.88h.02c.08.05.16.08.23.11.13.04.26.05.39.02.09,0,.17-.02.25-.07.12-.04.23-.11.31-.2l.15-.2.1-.23c.04-.13.05-.26.02-.39,0-.13-.04-.25-.12-.36-.03-.05-.06-.1-.1-.15-.09-.11-.17-.23-.26-.33-.09-.1-.19-.16-.31-.2-.12-.06-.24-.09-.38-.08-.13,0-.26.02-.38.08-.12.04-.23.11-.31.2l-.15.2c-.09.15-.13.32-.13.49l.03.26c.05.17.13.31.25.43.05.06.1.13.15.19l-.15-.2s.02.02.02.04l-.1-.23s0,.01,0,.02l-.03-.26s0,.01,0,.02l.03-.26s0,0,0,.01l.1-.23s0,0,0,.01l.15-.2s0,0,0,0l.2-.15h0c-.11.06-.21.15-.27.25-.09.09-.14.21-.18.33-.04.13-.05.26-.02.39,0,.13.04.25.12.36l.15.2c.12.12.27.2.43.25l.26.03c.18,0,.34-.05.49-.13.21-.15.21-.15.36-.36.03-.04.05-.1.06-.13.08-.18.06-.13.09-.39,0,0,0-.01,0-.02-.02-.21-.04-.34-.15-.53,0,0,0-.01-.01-.02-.05-.07-.11-.14-.17-.21-.05-.06-.09-.12-.14-.18l-1.38,1.38s.07.08.1.12l-.15-.2c.04.05.08.11.11.17l1.34-1.34h-.02c-.11-.08-.23-.12-.36-.13-.13-.03-.26-.02-.39.02-.13.03-.24.09-.33.18-.11.07-.19.16-.25.27l-.1.23c-.05.17-.05.35,0,.52l.1.23c.09.15.2.26.35.35h0Z"/>
  <path class="cls-2" d="M46.34,42.41l-.04-.06c-.06-.11-.15-.21-.25-.27-.09-.09-.21-.14-.33-.18-.13-.04-.26-.05-.39-.02-.13,0-.25.04-.36.12l-.2.15c-.12.12-.2.27-.25.43l-.03.26c0,.18.05.34.13.49l.04.06c.06.11.15.21.25.27.09.09.21.14.33.18.13.04.26.05.39.02.13,0,.25-.04.36-.12l.2-.15c.12-.12.2-.27.25-.43l.03-.26c0-.18-.05-.34-.13-.49h0Z"/>
  <path class="cls-2" d="M45.77,42.33s.06.06.08.09l-.03-.04s.03.04.04.06c.03.04.07.08.12.09.03,0,.05,0,.08,0,.03,0,.05,0,.07-.02.04-.03.08-.07.09-.12v-.05s0-.07-.02-.1c-.02-.04-.04-.07-.06-.11-.03-.05-.07-.09-.11-.14-.02-.02-.04-.03-.06-.04-.02-.01-.05-.02-.08-.02-.03,0-.05,0-.08.02-.02,0-.05.02-.06.04-.03.04-.06.09-.06.14v.05s.03.06.06.09c.02.02.03.04.05.05l-.03-.04s.07.1.1.15l.34-.2s-.05-.08-.09-.12c-.02-.03-.04-.05-.07-.07-.02-.02-.04-.03-.06-.04-.02-.01-.05-.02-.08-.02-.03,0-.05,0-.08.02-.02,0-.05.02-.06.04-.03.04-.06.09-.06.14v.05s.03.06.06.09h0Z"/>
  <path class="cls-2" d="M45.74,42.29s.02.02.04.03l-.04-.03c.08.06.14.13.2.2l.28-.28s-.08-.09-.12-.13c-.05-.05-.11-.1-.17-.15-.03-.02-.05-.04-.08-.06l-.2.34s.08.05.12.08l-.04-.03c.06.05.11.1.16.16l-.03-.04s.05.07.07.11c.01.02.03.04.05.05.02.02.04.03.07.04.03,0,.05,0,.08,0,.03,0,.05,0,.07-.02.04-.03.08-.07.09-.12v-.05s0-.07-.02-.1c-.02-.03-.03-.06-.05-.08-.03-.04-.06-.08-.09-.11-.05-.06-.12-.11-.18-.16-.03-.02-.06-.04-.1-.06-.02-.01-.05-.02-.07-.02-.03,0-.05,0-.08,0-.03,0-.05.02-.07.04-.02.01-.04.03-.05.05l-.02.05s0,.07,0,.1c.02.05.05.09.09.12.03.02.06.04.09.06l-.04-.03c.09.07.17.16.24.24.02.02.04.03.06.04.02.01.05.02.08.02.03,0,.05,0,.08-.02.02,0,.05-.02.06-.04.03-.04.06-.09.06-.14v-.05s-.03-.06-.06-.09c-.08-.1-.17-.18-.28-.26-.02-.01-.05-.02-.07-.02-.03,0-.05,0-.08,0-.03,0-.05.02-.07.04-.02.01-.04.03-.05.05l-.02.05s0,.07,0,.1l.02.05s.04.05.07.07h0Z"/>
  <path class="cls-2" d="M45.94,43.73s-.02.04-.04.05l.03-.04s-.05.06-.08.09l.31.24c.12-.16.25-.33.33-.51.02-.04.03-.08.05-.12,0-.01.01-.03.01-.04,0-.03.01-.06,0-.09,0-.03,0-.05-.02-.08,0-.02-.02-.05-.04-.06-.03-.03-.09-.06-.14-.06s-.1.02-.14.06c-.03.04-.06.09-.06.14,0,.01,0,.02,0,.03v-.05s-.01.07-.03.11l.02-.05c-.08.19-.21.36-.34.53-.01.02-.02.05-.02.07,0,.03,0,.05,0,.08.01.04.04.07.07.1s.08.04.12.04c.05,0,.1-.02.14-.06.06-.05.11-.12.15-.18.03-.04.03-.1.02-.15s-.05-.09-.09-.12c-.05-.02-.1-.04-.15-.02s-.09.05-.12.09h0Z"/>
  <path class="cls-2" d="M46.17,43.13s-.04.08-.05.13c-.01.05,0,.11.02.15.02.04.05.06.09.08.08.04.2,0,.24-.08l.07-.14s.03-.1.02-.15c-.01-.05-.05-.09-.09-.12-.05-.02-.1-.04-.15-.02-.05.02-.09.04-.12.09-.05.09-.08.18-.11.27v.05s0,.05,0,.08c.02.04.04.07.08.09.03.02.06.03.1.03.05,0,.1-.02.14-.06.08-.07.14-.17.16-.28.01-.05,0-.1-.02-.15-.02-.04-.07-.08-.12-.09-.05-.01-.11,0-.15.02l-.04.03s-.04.05-.05.09l-.07.17s0,.11.02.15.05.06.09.08.09.02.13,0c.05-.02.09-.04.12-.09.04-.09.08-.17.11-.27,0-.03.01-.07.02-.1s0-.07,0-.1c0-.05-.03-.1-.05-.14-.07-.15-.17-.28-.29-.4-.04-.04-.09-.06-.14-.06s-.11.02-.14.06-.06.09-.06.14.02.1.06.14c.04.04.08.08.11.13l-.03-.04c.06.08.12.17.16.26l-.02-.05s.02.04.02.07v-.05s0,.04,0,.05v-.05c0,.07-.03.13-.05.19l.02-.05s-.02.06-.04.08l.36.15.07-.17-.38-.1s-.01.05-.02.07l.02-.05s-.03.05-.05.08l.03-.04s-.03.03-.04.05l.33.19s.03-.08.04-.12l-.02.05s.03-.07.05-.11l-.34-.2-.07.14.36.15s.01-.04.02-.06l-.02.05s0-.01,0-.02c.02-.05.03-.1.02-.15-.01-.05-.05-.09-.09-.12-.05-.02-.1-.04-.15-.02-.05.02-.09.04-.12.09h0Z"/>
  <path class="cls-2" d="M46.11,42.99v.05s.02.1.06.14.09.06.14.06.1-.02.14-.06l.03-.04s.03-.06.03-.1c0-.05,0-.09,0-.14,0-.03-.02-.05-.04-.07-.01-.02-.03-.04-.05-.05l-.05-.02s-.05,0-.08,0c-.02,0-.03,0-.05.01-.02,0-.05.02-.06.04-.03.04-.06.09-.06.14,0,.05,0,.08.03.12,0,.01.01.02.02.03s.02.02.03.03c.02.02.05.04.09.05.03,0,.07,0,.1,0,.07-.02.12-.07.14-.14.01-.04.02-.09.02-.13h-.39s0,.06.02.09.02.06.04.08l.03.04s.04.03.06.04c.02,0,.03.01.05.01.03,0,.05,0,.08,0,.03-.01.06-.03.09-.05.02-.02.03-.04.04-.06.01-.02.02-.05.02-.08,0-.03,0-.07.01-.1l-.38.05s0,.06.01.1l.02.05s.03.04.05.05c.03.03.08.04.12.04.03,0,.07-.01.1-.03.02-.01.04-.03.05-.05.02-.02.03-.04.04-.07,0-.03.01-.06,0-.09,0-.02,0-.05,0-.07,0-.02-.02-.05-.03-.07l-.03-.04s-.04-.03-.06-.04c-.02,0-.03-.01-.05-.01-.03,0-.05,0-.08,0-.03.01-.06.03-.09.05-.02.02-.03.04-.04.06-.01.02-.02.05-.02.08,0,.06.02.12.04.18,0,.03.02.05.04.07.01.02.03.04.05.05.04.02.1.03.15.02s.09-.04.12-.09l.02-.05s0-.07,0-.1c-.01-.1-.05-.19-.08-.28s-.09-.17-.16-.24c-.02-.02-.04-.03-.06-.04-.02-.01-.05-.02-.08-.02h-.05s-.05.02-.07.04c-.03.02-.06.06-.07.1v.05s0,.07.02.1c.06.08.11.15.15.24l-.02-.05s.03.07.03.11v-.05s0,.07,0,.1v-.05s0,.05-.01.08l.02-.05s-.02.04-.03.06l.03-.04s0,.01-.01.02c-.03.04-.06.09-.06.14,0,.05.02.11.06.14s.09.06.14.06.1-.02.14-.06c.05-.05.09-.12.11-.19.01-.04.01-.07.02-.11,0-.02,0-.04,0-.06,0-.06-.01-.12-.03-.18-.02-.06-.05-.12-.08-.17-.03-.05-.06-.09-.1-.14l-.31.24s0,.01.01.02l-.03-.04c.05.06.08.13.11.2l-.02-.05c.03.07.05.15.06.22l.38-.1s-.02-.07-.03-.11v.05s0-.01,0-.02l-.36.1h0s-.01-.03-.02-.04c0,.01,0,.02,0,.03v-.05s0,.02,0,.03v-.05s0,0,0,.01h.38s0-.06-.01-.1c0-.03-.02-.05-.04-.07-.01-.02-.03-.04-.05-.05l-.05-.02s-.05,0-.08,0c-.02,0-.03,0-.05.01-.02,0-.05.02-.06.04l-.03.04s-.03.06-.03.1c0,.03,0,.07-.01.1l.36-.1s-.01-.02-.02-.03l.02.05s0-.02,0-.03v.05s0,0,0,0c0-.03,0-.05-.02-.08,0-.02-.02-.05-.04-.06-.03-.03-.09-.06-.14-.06s-.1.02-.14.06-.06.09-.06.14c0,.01,0,.02,0,.03v-.05s0,.03,0,.04l.33-.09s0,0,0,0l.03.04s0,0,0-.01l.02.05s0,0,0-.01v.05s0,0,0,0l-.38.05h0s0-.03,0-.05c0,.03,0,.05,0,.08h.39v-.05s-.02-.1-.06-.14-.09-.06-.14-.06-.1.02-.14.06-.06.08-.06.14h0Z"/>
  <path class="cls-2" d="M28.9,29.18c-.34-.5-.82-.87-1.42-1.01-.54-.13-1.17.37-.96.96.19.53.51.95.98,1.25.28.18.72.13.95-.12.25-.27.28-.62.12-.95-.21-.41-.56-.77-.98-.97-.29-.14-.61-.14-.87.06-.23.18-.39.53-.28.82.17.45.4.85.72,1.22.14.15.29.28.45.41.19.14.42.34.66.39l-.57-.75v.02c.04-.13.07-.26.11-.39l.09-.12.76-.2h-.03c.16.12.31.23.47.35l-.03-.04.11.39c-.03.17-.03.13,0-.11,0-.04.01-.09,0-.13,0-.13-.03-.27-.07-.39-.07-.22-.19-.41-.32-.59-.25-.33-.69-.53-1.07-.28-.34.22-.53.71-.28,1.07.63.92,1.22,2.03,2.36,2.39.55.17,1.15-.4.96-.96-.27-.81-.7-1.54-1.27-2.18-.26-.29-.74-.29-1.03-.06s-.41.68-.2,1.01c.68,1.07,1.57,1.98,2.64,2.68.66.44,1.46-.42,1.07-1.07-.33-.56-.73-1.08-1.19-1.54-.27-.28-.72-.3-1.03-.06-.28.22-.43.69-.2,1.01l.09.12c.24.33.69.53,1.07.28.33-.21.54-.72.28-1.07l-.09-.12-1.23.95c.1.1.2.21.3.32.04.05.08.09.12.14.02.02.14.18.1.12-.05-.07.06.08.07.1.04.06.08.12.13.18.08.12.16.24.23.37l1.07-1.07c-.11-.07-.22-.15-.33-.23-.01,0-.19-.15-.06-.04-.05-.04-.11-.08-.16-.13-.21-.17-.41-.36-.6-.55s-.37-.4-.54-.61c-.1-.13.06.09-.04-.06-.03-.05-.07-.09-.1-.14-.08-.12-.17-.24-.24-.37l-1.23.95c.06.07.12.14.18.21.12.14-.05-.08.05.06.1.14.2.28.28.43.08.14.16.28.22.43.01.03.03.06.04.09-.03-.08-.03-.08,0,0,.03.09.06.17.09.26l.96-.96s-.18-.07-.08-.02-.05-.03-.07-.04c-.04-.03-.08-.06-.13-.08-.08-.04.09.09,0,0-.07-.07-.15-.14-.22-.22-.04-.04-.07-.08-.1-.12-.02-.03-.12-.15-.02-.01-.29-.37-.54-.77-.8-1.16l-1.35.79c.05.07.11.14.15.22.02.04.04.08.06.12l-.03-.06c0-.1,0-.11,0-.02.02-.16.01-.12-.02.12,0,.17.04.32.12.47.21.35.64.51,1.02.35.3-.13.54-.44.51-.78s-.22-.69-.57-.75c.13.06.15.06.06.01-.04-.02-.07-.04-.11-.07-.02-.02-.18-.14-.05-.03-.11-.1-.22-.2-.32-.31-.04-.05-.12-.15-.04-.04-.05-.07-.1-.14-.14-.21-.03-.05-.06-.11-.09-.17-.02-.04-.04-.08-.06-.12.04.09.04.09,0,0l-1.15.88c.08.04.15.08.22.12-.11-.07-.02-.01.03.04.03.03.13.17.04.03.04.07.09.14.13.22l1.07-1.07c-.06-.04-.14-.12-.05-.03-.02-.02-.18-.18-.11-.11s-.05-.08-.07-.1c-.02-.03-.03-.06-.05-.08.03.09.04.09,0,0l-.96.96s.29.1.11.02c.08.03.14.08.22.12.07.05.07.05,0-.01.03.03.06.05.09.08.03.03.06.06.08.09-.06-.08-.06-.08,0,0,.23.34.7.52,1.07.28.33-.21.53-.71.28-1.07h0Z"/>
  <path class="cls-2" d="M30.13,31.83c.62,1.09,1.51,1.99,2.58,2.63.71.42,1.4-.4,1.07-1.07-.54-1.12-1.5-1.92-2.65-2.36-.52-.2-1.19.43-.96.96.46,1.1.96,2.19,1.53,3.24.48.89,1.79.11,1.35-.79s-1.11-1.79-1.89-2.49c-.67-.6-1.62.15-1.23.95,1.04,2.11,2.73,3.88,4.8,5.01.55.3,1.13-.09,1.18-.68.19-2.18-.95-4.34-2.8-5.48-.58-.36-1.34.23-1.15.88.3,1.01.72,1.99,1.28,2.89.53.85,1.16,1.58,2.12,1.93.5.18.97-.28.99-.75.06-1.54-.54-3.04-1.63-4.12-.55-.55-1.53,0-1.31.76.46,1.57,1.45,2.89,2.81,3.79.58.38,1.32-.25,1.15-.88-.18-.67-.52-1.26-1-1.76-.52-.54-1.58.01-1.31.76.37,1,.89,1.9,1.6,2.7.5.57,1.59-.03,1.31-.76-.34-.88-.93-1.62-1.78-2.05-.33-.17-.67-.12-.95.12-.47.41-.34,1.01-.18,1.54.18.57.36,1.14.54,1.71l1.31-.76c-.55-.5-1.07-1.04-1.56-1.61-.57-.67-1.73.22-1.23.95.53.77,1.06,1.54,1.59,2.31.25.36.9.59,1.23.16.74-.96,1.29-2.01,1.6-3.18.26-.99-1.17-1.35-1.51-.42-.29.78-.6,1.55-.94,2.31s.34,1.38,1.07,1.07c.68-.29,1.24-.82,1.6-1.47.43-.77-.59-1.59-1.23-.95s-1.16,1.36-1.55,2.16.58,1.63,1.23.95c.68-.72,1.26-1.52,1.72-2.4s-.89-1.68-1.35-.79c-.4.76-.88,1.46-1.48,2.08l1.23.95c.34-.69.76-1.3,1.31-1.85l-1.23-.95c-.24.44-.58.71-1.04.91l1.07,1.07c.4-.88.77-1.78,1.1-2.69l-1.51-.42c-.24.9-.63,1.76-1.2,2.49l1.23.16c-.53-.77-1.06-1.54-1.59-2.31l-1.23.95c.48.57,1,1.11,1.56,1.61s1.56.02,1.31-.76c-.12-.38-.24-.76-.36-1.14-.06-.19-.12-.38-.18-.57-.03-.09-.06-.19-.09-.28-.04-.21-.09-.12-.13.27l-.95.12c.47.24.87.61,1.06,1.12l1.31-.76c-.51-.59-.92-1.28-1.19-2.01l-1.31.76c.3.31.49.66.6,1.07l1.15-.88c-1.02-.67-1.75-1.69-2.1-2.85l-1.31.76c.81.81,1.21,1.88,1.17,3.02l.99-.75c-.62-.23-1.02-.92-1.34-1.46-.42-.72-.74-1.47-.97-2.26l-1.15.88c1.41.87,2.16,2.5,2.02,4.13l1.18-.68c-1.85-1.02-3.3-2.56-4.23-4.45l-1.23.95c.69.62,1.23,1.33,1.64,2.17l1.35-.79c-.5-.93-.97-1.89-1.37-2.87l-.96.96c.78.3,1.36.91,1.72,1.64l1.07-1.07c-.85-.51-1.53-1.2-2.02-2.07s-1.85-.09-1.35.79h0Z"/>
  <path class="cls-2" d="M38.74,37.89l-.14-.1c-.12-.07-.25-.11-.39-.11-.11,0-.21.02-.3.07-.1.03-.18.09-.25.16-.1.1-.16.21-.2.35,0,0,0,0,0,.01,0,.01-.03.19-.03.21,0,0,0,0,0,0,0,0,0,0,0,.01,0,.01.03.19.03.21,0,0,0,0,0,0,0,0,0,0,0,0,.01.03.05.11.04.1-.02-.04.03.07.04.1,0,0,0,0,0,0,0,0,0,0,0,0,.02.03.04.05.06.08.02.03.04.05.06.08,0,0,.01.01.02.02.02.02.13.1.16.12,0,0,0,0,0,0,0,0,0,0,.01,0,.06.04.14.06.21.09,0,0,.02,0,.02,0,.07.01.15.03.23.03,0,0,0,0,.01,0,0,0,0,0,0,0h0c.07,0,.14-.02.21-.03,0,0,.02,0,.02,0,.03-.01.11-.05.1-.04,0,0,.07-.03.1-.04,0,0,0,0,.01,0,.06-.04.12-.09.18-.14,0,0,.01-.01.02-.02,0,0,0,0,0,0,.04-.05.09-.11.12-.16,0,0,0,0,0-.01,0,0,.01-.02.02-.02.04-.08.07-.16.1-.24,0-.02.01-.04.02-.07.03-.1.04-.21.01-.31,0-.1-.04-.2-.09-.29-.05-.09-.12-.16-.2-.22-.08-.07-.16-.12-.27-.14l-.21-.03c-.14,0-.27.04-.39.11l-.16.12c-.1.1-.16.21-.2.35,0,.03-.02.06-.03.09l.08-.19s-.02.05-.04.07l.12-.16s-.02.02-.03.03l.16-.12s-.02.01-.03.02l.19-.08s-.02,0-.03,0l.21-.03s-.02,0-.03,0l.21.03s-.02,0-.04-.01l.19.08s-.02-.01-.03-.02l.16.12s-.01-.01-.02-.02l.12.16s0-.01-.01-.02l.08.19s0-.01,0-.02l.03.21s0-.01,0-.02l-.03.21s0,0,0-.01l-1.15.47.14.1c.09.06.19.09.29.09.1.02.21.02.31-.01.1-.02.19-.07.27-.14.09-.06.15-.13.2-.22l.08-.19c.04-.14.04-.28,0-.42l-.08-.19c-.07-.12-.16-.21-.28-.28h0Z"/>
  <path class="cls-2" d="M42.11,38.74c-.36.03-.69.13-1,.31-.27.16-.51.37-.72.6-.38.41-.69.88-1.01,1.33-.11.16-.13.42-.08.6s.19.38.36.47c.18.1.4.14.6.08s.35-.18.47-.36c.18-.26.36-.53.56-.79l-.12.16c.2-.26.43-.52.69-.72l-.16.12c.13-.1.26-.18.41-.25l-.19.08c.1-.04.21-.07.32-.09l-.21.03s.05,0,.08,0c.21-.02.4-.07.55-.23.14-.14.24-.36.23-.55s-.08-.41-.23-.55c-.15-.13-.35-.25-.55-.23h0Z"/>
  <path class="cls-2" d="M41.36,41.24c.34-.44.65-.91.94-1.39.17-.29.13-.72-.12-.95-.1-.09-.22-.16-.35-.2-.17-.05-.46-.03-.6.08-.89.66-1.7,1.46-2.19,2.47-.09.19-.14.39-.08.6.05.18.19.38.36.47.35.19.88.11,1.07-.28.15-.31.33-.61.55-.88l-.12.16c.34-.44.75-.83,1.19-1.18l-.16.12c.06-.04.11-.09.17-.13l-1.07-1.07c-.29.48-.6.95-.94,1.39-.11.15-.13.43-.08.6.05.18.19.38.36.47.18.1.4.14.6.08l.19-.08c.12-.07.21-.16.28-.28h0Z"/>
  <path class="cls-2" d="M37.75,38.45c-.07.2-.11.41-.15.62-.06.33.04.71.36.88s.68.12.95-.12c.56-.5.96-1.15,1.21-1.86.11-.31-.07-.73-.36-.88-.31-.16-.69-.13-.95.12-.71.69-1.1,1.61-1.15,2.58-.03.59.69.98,1.18.68.61-.39,1.04-1.26,1-1.98-.03-.57-.43-1.04-1.03-1.02-.52.02-.96.38-1.2.82-.46.83-.78,2.23.21,2.84.51.31,1.16.21,1.58-.21s.57-1.06.4-1.6c-.3-.96-1.54-1.41-2.41-.92s-1.06,1.74-.3,2.37c.62.52,1.56.55,2.32.34.96-.27,1.87-1.34,1.29-2.35s-2.09-.9-2.85-.15c-.55.54-.92,1.36-.98,2.13-.07.97.68,1.79,1.68,1.75.88-.04,1.7-.72,2.24-1.37s1.08-1.65.57-2.5c-.27-.44-.82-.58-1.28-.41-.37.13-.69.38-.96.66-.57.58-.96,1.27-.96,2.1,0,.38.09.79.38,1.06.3.29.74.36,1.13.25.58-.17,1.07-.64,1.43-1.11s.81-1.14.62-1.79c-.15-.51-.68-.84-1.2-.69-.32.09-.59.31-.82.55-.5.53-.93,1.21-1.15,1.91-.1.32-.16.7-.05,1.02.13.39.54.68.96.55.38-.12.69-.55.55-.96-.05-.15,0,.07,0,.08,0-.04,0-.09,0-.12,0-.11-.05.22,0,.06.01-.06.03-.11.04-.17s.03-.11.05-.16c0-.02.02-.05.03-.07.03-.1-.09.19-.02.06.06-.11.11-.23.17-.34s.12-.21.19-.31c.04-.05.07-.11.11-.16.02-.02.03-.05.05-.07.09-.13-.12.15-.02.03.07-.08.14-.17.21-.25.04-.04.07-.07.11-.11.02-.01.03-.03.05-.04.08-.07.08,0-.07.05.03-.01.06-.04.09-.06.12-.09-.19.06-.08.03.04,0,.1-.02-.06,0-.13.02-.05.04-.24-.01-.13-.03-.28-.15-.36-.28.07.12-.06-.17-.04-.1.02.07-.02-.25-.02-.12s.06-.21.02-.09c-.01.04-.02.08-.03.12-.03.09-.1.14.02-.05-.02.03-.03.07-.05.11-.05.09-.1.18-.16.26-.03.04-.06.08-.09.13-.07.1.13-.16.02-.02-.07.09-.14.17-.22.25-.07.07-.14.14-.21.2-.03.03-.07.06-.1.09-.1.09.15-.1.07-.05-.02.01-.04.03-.06.04-.07.05-.15.08-.22.13-.07.04.21-.06.07-.03-.02,0-.04,0-.05.02-.09.04.12-.01.13-.02-.04,0-.17-.01,0,.01.07,0,.13.02.19.06-.09-.05.18.16.09.06.15.16.12.17.09.11-.07-.11.05.08.04.1,0-.02-.02-.1-.03-.12-.02-.09.01.21.02.11,0-.03,0-.06,0-.09,0-.05,0-.11,0-.16,0-.03,0-.06,0-.09,0-.02,0-.05,0-.07,0-.06,0-.03-.01.08.02-.02.02-.09.03-.12,0-.03.02-.05.03-.08.02-.09-.08.17-.04.09.06-.11.11-.22.18-.32.03-.05.06-.09.09-.14.08-.13-.1.12-.03.04.02-.02.04-.04.05-.07.09-.1.18-.2.27-.29.04-.04.08-.07.12-.11.15-.13-.13.08,0,0,.04-.03.09-.06.13-.08.02-.01.04-.02.06-.03.1-.06-.2.07-.08.03.09-.03.17,0-.08,0,.15,0-.2-.05-.1-.02-.16-.05-.25-.12-.34-.26.04.07-.05,0-.05-.12,0,.02.02.08.02.09-.01-.02,0-.21-.02-.1,0,.03,0,.06,0,.08,0,.03,0,.06,0,.09,0,.14,0-.06.01-.07-.02.04-.02.11-.04.16,0,.03-.03.07-.03.09,0-.05.08-.17.02-.05s-.13.23-.2.34c-.02.03-.04.05-.06.08-.1.14.09-.1.01-.02-.06.06-.11.13-.17.2-.1.11-.21.22-.32.32-.03.03-.12.13-.16.14.09-.01.11-.08.01-.01-.04.03-.08.06-.12.09-.11.07-.25.12-.35.2.13-.1.13-.05.07-.03-.03,0-.05.02-.08.03-.03,0-.07.01-.1.02-.08.03.2,0,.08,0-.03,0-.06,0-.09,0-.08.01.18.04.08.01-.04-.01-.14-.05-.19-.05,0,0,.2.06.08.03,0,0-.06-.04-.06-.04.04-.02.15.13.07.06-.11-.11.03.02.03.06,0-.02-.12-.22-.04-.05.06.14,0-.04,0-.07-.03-.11,0,.21,0,.03,0-.03.02-.17,0-.19.04.04-.03.19-.01.09,0-.03.01-.07.02-.1.01-.06.03-.12.05-.18.02-.05.04-.11.06-.16.07-.2-.07.14.02-.05.05-.11.11-.21.17-.31.03-.05.07-.1.1-.15.11-.16-.11.12.02-.02.03-.03.06-.07.09-.1.01-.01.03-.03.05-.04.07-.08-.11.06-.02.01.03-.02.06-.04.1-.06.11-.06.02-.07-.01,0,0-.01.1-.03.1-.03h.05c.09-.03.07-.03-.06-.01.03.02.15,0,.19,0,.13,0-.06,0-.07-.01,0,0,.09.03.11.03.09,0-.14-.08-.07-.03.03.02.06.04.09.05.04.02.13.11-.06-.05.05.04.12.15-.02-.04.01.02.03.04.04.07,0,0-.07-.19-.04-.08-.06-.23,0-.15-.01-.09-.01.13.02-.08.02-.09,0,.01-.08.14,0,.04.07-.09,0-.02-.01.02-.02.04-.06.16,0,0-.02.04-.08.09-.11.12-.19.18.14-.07,0,.02-.04.02-.07.04-.11.06-.16.09.17-.05.02,0-.06.02-.12.04-.17.05-.06.01-.11.02-.17.04-.19.04.14,0,.01,0s-.25.02-.38.01c-.09,0-.23-.07,0,0-.05-.02-.1-.02-.15-.03s-.09-.03-.14-.04c-.13-.03.15.09.08.03-.02-.02-.05-.03-.07-.04-.17-.08.13.11.02.02-.02-.01-.03-.05-.05-.05,0,0,.13.17.07.09s.04.21.02.05c-.02-.11,0,.12.01.11,0-.02,0-.08,0-.1,0-.11,0,.08-.01.1.01,0,.02-.08.03-.1,0-.03.04-.13,0,0s0,.02.02-.01c0,.01-.09.17-.05.07,0,0,.05-.04.05-.05,0,0-.16.12-.07.06.13-.1-.02.04-.06.02,0,0,.27-.06.08-.03-.16.02.05,0,.08,0,.11,0-.2-.06-.02,0,.02,0,.05.02.07.02.12.02-.15-.09-.05-.02.01.01.05.03.07.04.1.04-.06-.03-.07-.06,0,.01.17.19.07.05-.09-.11-.01-.01,0,.01.05.1-.05-.07-.03-.08,0,0,.02.08.02.07,0,.15,0-.2,0-.05,0,.01,0,.08,0,.09-.04-.09.04-.14,0-.05-.06.14.03-.05.03-.05,0,0-.05.09-.06.1-.03.09.1-.12.04-.05-.04.04-.13.11.05-.03-.02.02-.05.03-.07.04.12-.05.15-.06.1-.05-.06.02-.02.01.12-.01-.08,0-.05-.02.1.02-.11-.03.08.04.08.04-.1-.06.06.05.06.06-.01-.03-.13-.1-.03-.02.08.06.02.02,0-.03-.05-.09.05.13.02.03-.03-.08.07,0,.01.11.01-.02,0-.09,0-.11,0-.03,0-.06,0-.08,0-.07.05-.07-.01.07.02-.05.02-.13.04-.19.04-.16.1-.31.15-.47.03-.11-.09.17,0,.02.01-.03.03-.06.04-.09.03-.05.06-.1.09-.15.05-.09-.11.16,0,0,.06-.08-.19.16-.06.05.03-.02.15-.07.01-.01-.13.06-.03.01,0,0,.01,0-.23.02-.13.02-.16,0-.29-.05-.42-.18s-.12-.17-.09-.11c-.1-.19-.07-.19-.05-.11-.02-.09-.02-.21-.02-.05,0,.2.03-.14,0-.03-.01.05-.02.09-.03.14-.01.05-.03.1-.05.14-.06.19.08-.15-.01.03-.04.07-.17.22-.17.29,0-.01.14-.15.06-.08-.02.01-.03.03-.04.05-.01.01-.03.03-.05.04-.08.1.17-.12.07-.05l1.18.68s.03-.32,0-.13c.01-.09.03-.18.05-.26s.05-.17.08-.26c.01-.04.03-.08.05-.13-.03.07-.04.08-.01.03.08-.15.16-.29.25-.44.05-.07.05-.07,0,0,.03-.04.06-.07.09-.1.06-.07.12-.13.19-.19l-1.31-.76c-.02.06-.05.13-.07.19.06-.15-.02.03-.03.06-.07.13-.14.26-.22.38-.01.02-.13.18-.08.11s-.07.09-.09.1c-.1.11-.2.21-.31.31l1.31.76c.04-.21.08-.42.15-.62.13-.39-.15-.87-.55-.96-.44-.1-.82.13-.96.55h0Z"/>
  <path class="cls-2" d="M42.61,42.03c-.38.48-.81.91-1.27,1.3-.15.12-.23.37-.23.55s.09.42.23.55.34.24.55.23l.21-.03c.13-.04.25-.1.35-.2.46-.4.89-.83,1.27-1.3.08-.07.13-.15.16-.25.05-.09.07-.19.07-.3,0-.19-.09-.42-.23-.55s-.34-.24-.55-.23c-.19,0-.43.07-.55.23h0Z"/>
  <path class="cls-2" d="M43.57,42.6c-.57.67-1.2,1.28-1.89,1.82-.14.11-.24.38-.23.55s.06.33.17.47c.24.31.66.39,1.01.2.54-.3,1.07-.66,1.48-1.12.5-.56.81-1.21.87-1.96.03-.33-.26-.68-.57-.75s-.73.04-.88.36c-.12.25-.26.47-.42.69-.06.08.1-.12.03-.04-.02.02-.04.05-.06.08-.04.05-.08.1-.13.15-.09.1-.19.2-.29.3-.19.18-.39.35-.59.52-.05.04-.1.08-.15.12.06-.05.11-.09.02-.02-.03.02-.05.04-.08.06-.11.08-.22.16-.33.25l.79,1.35c.53-.41,1.06-.81,1.52-1.3.5-.53.89-1.12,1.15-1.8.12-.31-.08-.73-.36-.88-.3-.16-.7-.14-.95.12-.41.43-.86.83-1.32,1.2-.08.07.12-.09.03-.02-.03.02-.06.04-.09.06-.06.04-.11.08-.17.13-.12.09-.25.17-.37.26-.25.17-.51.33-.77.48-.36.2-.51.72-.28,1.07s.69.5,1.07.28c1.23-.69,2.6-1.58,2.9-3.07.08-.39-.08-.77-.45-.92-.16-.07-.34-.09-.51-.04-.21.07-.34.19-.47.36-.05.07-.04.06.03-.03-.02.03-.04.06-.07.08-.03.04-.07.08-.1.12-.08.1-.16.19-.24.28-.15.17-.31.34-.48.5s-.34.31-.51.46c-.05.04-.1.08-.14.12-.04.03-.21.14-.03.02-.1.07-.2.15-.3.22-.17.12-.3.26-.36.47-.05.19-.03.44.08.6.21.33.71.53,1.07.28.93-.65,1.72-1.43,2.4-2.34l-1.43-.6c-.02.08-.03.15-.06.23-.01.03-.02.07-.03.1-.02.07-.09.15.02-.03-.07.13-.13.26-.21.38-.02.03-.04.06-.06.09-.04.06-.12.11.02-.03-.05.05-.09.11-.14.16-.11.12-.22.22-.34.33-.05.05-.11.09-.16.14-.12.1.15-.11.02-.02-.03.02-.06.04-.09.06-.12.09-.25.17-.37.25-.26.16-.52.32-.79.47l.79,1.35c1.11-.63,2.13-1.43,3.01-2.35l-1.31-.76s-.03.06-.04.09c.06-.19.03-.08.01-.03-.03.07-.06.13-.1.19-.06.12-.13.24-.21.35-.04.06-.08.12-.12.18-.06.08.01-.02.04-.04-.03.03-.05.06-.08.09-.09.11-.19.22-.29.32-.19.2-.4.39-.62.57-.1.09-.21.17-.32.26-.06.04-.11.09-.17.13-.02.02-.14.11-.03.03s-.02.02-.03.03c-.17.13-.3.25-.36.47-.05.19-.03.44.08.6.21.33.72.54,1.07.28,1-.73,2.02-1.52,2.56-2.66l-1.46-.39s0,.06,0,.09c0-.21.02-.11,0-.05-.01.06-.02.12-.04.17-.02.06-.04.12-.06.19-.04.1.02-.05.03-.07-.02.03-.03.07-.05.1-.06.11-.12.21-.19.31-.02.02-.03.05-.05.07.12-.18.06-.08.03-.04-.04.05-.09.1-.13.15-.09.09-.18.18-.27.26-.05.04-.1.08-.15.13.02-.02.14-.1.05-.04-.02.02-.05.04-.07.05-.21.15-.43.29-.66.42l.95,1.23c.69-.54,1.32-1.15,1.89-1.82.26-.31.33-.8,0-1.11-.29-.27-.82-.33-1.11,0h0Z"/>
  <path class="cls-2" d="M35.9,41.73c.8.85,1.65,1.65,2.52,2.43s1.7,1.64,2.72,2.18c.37.2.85.1,1.07-.28.21-.35.09-.87-.28-1.07-.47-.25-.79-.51-1.19-.86-.43-.38-.86-.76-1.29-1.14-.84-.76-1.67-1.54-2.45-2.36-.29-.31-.81-.29-1.11,0-.31.31-.29.8,0,1.11h0Z"/>
  <path class="cls-2" d="M41.51,39.23c.65.68,1.32,1.35,1.96,2.04.14.16.28.31.42.47.06.08.13.15.19.23-.05-.06-.02-.02.01.02.04.05.07.1.11.15.12.17.23.35.34.53.05.09.09.17.14.26.1.19,0-.07.02.03.02.07,0-.16,0-.17l.2-.35-.03.04c-.27.31-.33.81,0,1.11.3.27.82.33,1.11,0,.52-.59.2-1.25-.15-1.84-.28-.46-.61-.89-.96-1.29-.71-.81-1.49-1.57-2.23-2.35-.28-.3-.82-.31-1.11,0s-.3.79,0,1.11h0Z"/>
  <path class="cls-2" d="M39.17,40.83c-.28.34-.54.7-.78,1.07-.21.33-.1.78.2,1.01s.78.24,1.03-.06c.09-.11.18-.22.28-.33l-1.23-.95c-.12.24-.25.47-.4.69-.22.32-.08.79.2,1.01.3.23.75.22,1.03-.06,1.04-1.06,2.09-2.11,3.13-3.17.29-.29.31-.82,0-1.11s-.8-.31-1.11,0c-1.04,1.06-2.09,2.11-3.13,3.17l1.23.95c.15-.22.29-.45.4-.69.17-.35.12-.76-.2-1.01-.28-.22-.78-.24-1.03.06-.09.11-.18.22-.28.33l1.23.95c.1-.15.19-.3.3-.44.05-.06.09-.13.14-.19.09-.12-.06.07,0,0,.03-.04.06-.08.09-.12.13-.17.23-.33.23-.55,0-.19-.09-.42-.23-.55-.29-.26-.83-.34-1.11,0h0Z"/>
  <path class="cls-2" d="M43.56,41.12c-1.03.98-2.02,1.99-2.99,3.03-.28.3-.32.81,0,1.11.3.28.81.32,1.11,0,.96-1.04,1.96-2.05,2.99-3.03.3-.28.31-.83,0-1.11s-.79-.3-1.11,0h0Z"/>
  <path class="cls-2" d="M37.9,35.6c-.09-.17-.19-.35-.31-.5-.09-.13-.19-.25-.3-.36-.08-.07-.16-.15-.26-.2-.14-.07-.27-.12-.43-.12s-.31.04-.44.12c-.2.12-.35.33-.4.56-.03.11-.05.22-.03.34s.02.23.06.34.08.21.14.31c.05.09.12.17.19.25.12.13.27.21.44.27.09.03.2.05.3.04.21-.02.24-.03.43-.12.07-.04.14-.09.2-.15.17-.16.27-.39.27-.62,0-.21-.06-.35-.14-.53-.02-.05-.05-.1-.08-.14-.07-.1-.14-.2-.23-.28-.2-.2-.49-.28-.76-.2-.13.04-.25.1-.35.2-.1.1-.16.21-.2.35,0,.02-.01.04-.02.06,0,.04-.01.09-.02.13s-.01.09-.02.13c0,.11.01.22.04.33.02.1.07.19.14.27.06.09.13.15.22.2.09.06.19.09.29.09.1.02.21.02.31-.01l.19-.08c.12-.07.21-.16.28-.28l.08-.19c.04-.14.04-.28,0-.42,0-.02,0-.03-.01-.05l.03.21s0-.06,0-.09l-.03.21s.01-.06.02-.09l-1.31.35s.05.06.08.09l-.12-.16c.05.06.08.13.11.2l-.08-.19s.02.06.03.09l-.03-.21s0,.02,0,.03l.03-.21s0,.02,0,.03l.08-.19s0,.02-.01.02l.12-.16s-.02.02-.03.03l.16-.12s-.02.01-.03.02l.19-.08s-.02,0-.04.01l.21-.03s-.03,0-.05,0l.21.03s-.03,0-.04-.01l.19.08s-.03-.02-.05-.03l.16.12s-.05-.04-.07-.07l.12.16c-.04-.05-.07-.11-.09-.17l.08.19s-.04-.1-.04-.15l.03.21s0-.06,0-.09l-.03.21s.01-.06.02-.09l-.08.19s.01-.02.02-.03l-.12.16h0c-.05.03-.11.07-.16.11h.01c-.06.02-.12.05-.19.07,0,0,.01,0,.02,0l-.21.03h.01c-.07,0-.14-.02-.21-.03,0,0,.02,0,.02,0l-.19-.08s.04.02.05.03l-.16-.12c.09.07.16.15.23.24l-.12-.16c.12.16.22.34.32.51.05.09.12.16.2.22.08.07.16.12.27.14.1.03.21.04.31.01.1,0,.2-.04.29-.09l.16-.12c.1-.1.16-.21.2-.35l.03-.21c0-.14-.04-.27-.11-.39h0Z"/>
  <path class="cls-2" d="M33.27,33.09c-.27-.48-.63-.93-1.03-1.31-.3-.28-.81-.32-1.11,0-.14.15-.24.34-.23.55s.09.39.23.55c.29.35.68.58,1.1.73.16.06.36.02.51-.04s.3-.17.37-.32c.06-.12.1-.26.11-.39,0-.21-.1-.4-.23-.55-.36-.43-.76-.82-1.2-1.17-.16-.13-.33-.24-.55-.23-.18,0-.33.06-.47.17-.13.1-.24.24-.28.41-.04.19-.04.44.08.6.23.3.49.57.83.75s.71.27,1.1.28c.31,0,.6-.2.71-.48.06-.13.07-.26.05-.41-.02-.16-.09-.34-.22-.45-.47-.39-.94-.77-1.41-1.16-.17-.14-.33-.23-.55-.23-.19,0-.42.09-.55.23-.27.3-.33.82,0,1.11.41.37.87.64,1.4.81.18.06.45.02.6-.08.15-.09.25-.21.32-.37s.09-.34.04-.51c-.07-.21-.19-.34-.36-.47-.3-.23-.62-.44-.95-.63-.36-.2-.87-.1-1.07.28s-.09.84.28,1.07c.63.39,1.34.66,2.07.77.22.03.41.04.6-.08.16-.09.32-.28.36-.47.05-.2.04-.42-.08-.6-.1-.16-.27-.33-.47-.36-.41-.06-.81-.17-1.19-.33l.19.08c-.24-.1-.47-.22-.7-.36l-.79,1.35c.33.19.65.4.95.63l.6-1.43c-.07-.03-.15-.05-.22-.08l.19.08c-.23-.1-.45-.23-.65-.38l.16.12c-.06-.05-.12-.1-.18-.15l-1.11,1.11c.47.39.94.77,1.41,1.16l.55-1.34c-.06,0-.12,0-.18-.01l.21.03c-.14-.02-.28-.06-.41-.11l.19.08c-.13-.06-.25-.13-.37-.22l.16.12c-.1-.08-.19-.17-.28-.28l.12.16-.02-.03-1.23.95c.44.35.84.74,1.2,1.17l.76-1.31s-.07-.03-.1-.04l.19.08c-.14-.06-.27-.14-.39-.23l.16.12c-.1-.08-.19-.17-.27-.26l-1.11,1.11c.2.18.37.38.54.59l-.12-.16c.14.18.26.37.37.57.2.36.72.51,1.07.28s.5-.69.28-1.07h0Z"/>
  <path class="cls-2" d="M27.48,27.8c4.32,2.52,7.81,6.16,11.25,9.74.87.91,2.25-.47,1.38-1.38-3.55-3.7-7.18-7.44-11.64-10.05-1.09-.64-2.07,1.05-.99,1.69h0Z"/>
  <path class="cls-2" d="M44.71,46.03c.57-.56,1.1-1.16,1.59-1.8.26-.34.59-.72.45-1.19-.06-.19-.17-.36-.32-.49-.04-.04-.09-.08-.14-.12,0,0-.08-.08-.08-.08.02,0,.08.12.01,0-.14-.27-.54-.38-.8-.21-.28.18-.36.51-.21.8.07.13.17.24.27.34.05.04.09.08.14.12,0,0,.04.05.05.05l-.05-.07s.02.04,0-.01c-.02-.05-.02-.05-.01-.02.01.04,0,.02,0-.07,0,0,.02-.12.03-.12,0,0-.12.17-.13.19-.05.07-.1.13-.15.2-.11.14.04-.05-.03.03-.03.04-.06.07-.09.11-.42.53-.88,1.03-1.36,1.51-.22.22-.23.62,0,.83s.6.23.83,0h0Z"/>
  <path class="cls-2" d="M45.34,43.26c.15.17.33.32.52.43.11.07.25.09.37.07s.25-.07.34-.16c.07-.07.12-.16.15-.26.05-.15.01-.32-.06-.45-.24-.44-.55-.85-.91-1.2-.11-.11-.26-.17-.41-.17-.14,0-.32.06-.41.17s-.18.26-.17.41.06.3.17.41c.15.15.3.31.43.48l-.09-.12c.15.19.28.39.39.6l.8-.8c-.06-.03-.11-.07-.17-.11l.12.09c-.09-.07-.17-.14-.24-.23-.09-.11-.28-.17-.41-.17s-.32.06-.41.17-.18.26-.17.41l.02.16c.03.1.08.19.15.26h0Z"/>
  <path class="cls-2" d="M30.68,17.13c-2.38-.18-4.55-1.21-6.25-2.88-1.41-1.4-2.73-2.96-4.84-3.15-1.97-.18-3.83.86-4.85,2.53-.59.97-.63,1.99-.92,3.06-.31,1.13-1.39,1.72-2.34,2.26-.74.42-.32,1.37.39,1.46,1.32.16,2.68.42,3.17,1.8.44,1.25.77,2.49,1.39,3.68s1.37,2.22,2.32,3.08c.69.62,1.76,1.66,2.74,1.22.33-.15.42-.57.36-.88v-.06c-.19.32-.38.64-.56.96l1-.22c.43-.1.62-.57.55-.96l-1.24-6.29c-.19-.99-1.7-.57-1.51.42l1.24,6.29.55-.96-1,.22c-.44.1-.62.56-.55.96v.06c.13-.29.25-.59.37-.88.43-.04.47-.12.11-.25-.16-.1-.31-.2-.46-.31-.24-.18-.47-.39-.69-.6-.49-.48-.92-1.01-1.3-1.58-.69-1.07-1.2-2.24-1.57-3.46-.33-1.1-.63-2.11-1.62-2.8s-2.17-.84-3.31-.98l.39,1.46c.82-.47,1.66-.97,2.27-1.7.72-.86.8-1.79,1.03-2.84.46-2.07,2.51-3.68,4.66-2.93,1.86.66,3.05,2.71,4.62,3.83,1.71,1.22,3.74,1.88,5.82,2.04,1,.08,1-1.49,0-1.56h0Z"/>
  <path class="cls-2" d="M24.95,27.65c-.23.08-.46.16-.7.2l.21-.03c-.08.01-.16.02-.24.01l.39,1.46c.49-.26.99-.53,1.48-.79s.99-.56,1.44-.93c.15-.12.23-.37.23-.55,0-.19-.09-.42-.23-.55-.34-.31-.77-.28-1.11,0-.03.02-.05.04-.08.06-.07.05-.05.04.04-.03,0,0-.15.1-.16.12-.1.07-.19.13-.29.19-.22.13-.45.26-.67.38-.48.26-.96.51-1.44.77-.29.16-.46.57-.36.88s.4.57.75.57c.4,0,.78-.11,1.15-.24s.68-.54.55-.96c-.12-.38-.55-.69-.96-.55h0Z"/>
  <path class="cls-2" d="M21.68,21.16c-.05.23-.09.46-.12.69-.04.3-.11.63-.1.93.03.95.76,1.91,1.79,1.85,1.28-.08,2.09-1.36,2.32-2.51.13-.64.14-1.37-.26-1.93s-1.11-.99-1.85-.94c-1.41.1-2.44,1.28-2.58,2.65-.06.66.21,1.31.63,1.8s1.12.74,1.77.74c1,0,2-.47,2.72-1.16.78-.74,1.25-1.83,1.04-2.91-.14-.72-.66-1.25-1.33-1.5-.51-.19-1.22-.15-1.74.02-.89.29-1.54,1.01-1.62,1.96-.06.79.41,1.47,1.04,1.88,1.04.69,2.55.49,3.58-.1.62-.36.89-1.25.49-1.87s-1.21-.87-1.87-.49c-.1.06-.2.11-.31.15l.33-.14c-.19.08-.39.13-.59.16l.36-.05c-.23.03-.45.03-.68,0l.36.05c-.15-.02-.29-.06-.43-.12l.33.14c-.1-.05-.19-.1-.28-.17l.28.21c-.05-.05-.1-.09-.14-.15l.21.28c-.04-.06-.07-.11-.1-.17l.14.33s-.03-.1-.04-.15l.05.36c0-.06,0-.11,0-.17l-.05.36c.01-.06.03-.11.05-.17l-.14.33c.03-.06.06-.1.1-.15l-.21.28s.08-.09.13-.13l-.28.21c.09-.07.17-.12.27-.16l-.33.14c.12-.05.25-.07.38-.09l-.36.05c.15-.02.3-.02.45-.01l-.36-.05c.08.01.16.03.24.06l-.33-.14c.05.03.09.05.14.09l-.28-.21s.07.07.1.11l-.21-.28s.05.08.07.13l-.14-.33c.03.08.05.16.07.25l-.05-.36c.01.11,0,.22,0,.32l.05-.36c-.02.15-.06.29-.12.42l.14-.33c-.08.18-.18.34-.29.5l.21-.28c-.14.19-.31.35-.5.49l.28-.21c-.19.14-.39.26-.61.35l.33-.14c-.22.09-.45.16-.7.2l.36-.05c-.13.02-.26.02-.39,0l.36.05c-.11-.01-.21-.04-.31-.08l.33.14c-.08-.04-.14-.08-.21-.13l.28.21c-.06-.05-.11-.11-.16-.17l.21.28c-.04-.06-.08-.13-.11-.2l.14.33c-.04-.09-.06-.18-.08-.28l.05.36c-.01-.1-.01-.2,0-.31l-.05.36c.02-.13.05-.25.1-.38l-.14.33c.06-.12.12-.23.2-.34l-.21.28c.09-.12.19-.22.31-.32l-.28.21c.09-.06.17-.12.27-.16l-.33.14c.08-.03.16-.06.24-.07l-.36.05c.09-.01.18-.01.28,0l-.36-.05c.07.01.14.03.21.06l-.33-.14c.05.02.1.05.14.08l-.28-.21s.08.07.12.11l-.21-.28s.06.1.09.15l-.14-.33c.03.08.05.15.06.23l-.05-.36c.01.12,0,.25,0,.37l.05-.36c-.04.25-.11.49-.2.72l.14-.33c-.07.17-.16.34-.27.49l.21-.28c-.09.11-.19.21-.3.3l.28-.21s-.07.05-.12.07l.33-.14s-.08.03-.13.04l.36-.05h-.07c.12.02.24.04.36.05-.04,0-.07-.01-.11-.03l.33.14-.05-.03.28.21s-.06-.05-.08-.08l.21.28s-.04-.06-.06-.1l.14.33c-.02-.06-.04-.12-.05-.18l.05.36c-.01-.19.01-.37.04-.56l-.05.36c.04-.26.08-.51.14-.76.08-.36.05-.73-.14-1.05-.17-.28-.49-.55-.82-.63-.69-.16-1.52.21-1.68.96h0Z"/>
  <path class="cls-2" d="M16.04,18.41c-.04,1.9,2.02,2.72,3.61,2.88,1.94.2,3.84-.78,4.88-2.4.44-.68.05-1.88-.82-2.01-2.61-.38-5.02.36-7.5,1.06-.73.21-1.12.96-.96,1.68.19.82.74,1.6,1.66,1.61.77,0,1.37-.58,1.59-1.27.2-.61.11-1.32-.36-1.8-.63-.65-1.57-.54-2.27-.08-.8.52-.84,1.44-.28,2.15-.09-.12.11.15.13.19.08.12.16.25.24.37.19.3.36.62.52.93.3.58.58,1.17.88,1.75.65,1.27,1.45,2.47,2.61,3.32,1.03.76,2.38,1.09,3.61.63,1.14-.43,2.03-1.26,2.83-2.16.41-.46.8-.93,1.21-1.38.2-.22.41-.44.63-.64.1-.09.19-.17.3-.25-.23.18.06-.03.15-.08l-2.01-.82s.07.3.03.3c.03-.74.62-1.04,1.79-.9.15.08.27.2.36.34.11.18.16.35.08.64-.04.14-.11.26-.2.36-.17.12-.18.14-.04.07l-2.06-1.18c.07.78.03,1.23-.24,1.94-.18.47-.54,1.02-.95,1.44-.85.88-1.87,1.35-3.04,1.24,0,0-.15,0-.09.02-.14-.04-.28-.13-.41-.19-.32-.15-.64-.32-.95-.5-.64-.37-1.04-.65-1.53-1.12-.83-.82-1.31-1.87-1.05-3.08.01-.05.02-.27.1-.27.02,0-.32.25-.17.15.13-.09-.03.05-.07,0s.35.13,0,0c.14.05.08,0,.14.06.39.44.78.89,1.15,1.39.86,1.19,1.76,2.41,3.14,3.02.79.35,1.6.52,2.44.21.69-.25,1.27-.76,1.62-1.4.63-1.14.66-2.69-.03-3.81-.43-.7-1.16-1.31-2.03-1.27s-1.74.51-1.97,1.42c-.3,1.2.34,2.56,1.68,2.63,1.1.06,1.99-.75,2.53-1.63.93-1.5-1.44-2.88-2.36-1.38.03-.04-.27.41-.17.25-.15.08-.16.1-.03.04.26-.05.5.03.72.23l.35.6c-.02-.06-.1-.2-.06-.23,0,.25-.09.44-.28.57-.09.13-.2.2-.35.23.12-.06.32.01-.06,0,.07,0,.14,0,.21,0l-.69-.19c.05.03.35.22.07.02.04.03.31.29.05.04.05.05.18.37.05.04.04.1.05.21.09.31.12.27.03-.23.01.07,0,.1,0,.23,0,.33.01.31.1-.21-.01.07-.03.07-.2.49-.04.18-.04.08-.09.15-.13.23-.09.15.23-.18,0,0-.26.2.26-.08-.04.04s.29-.04-.06.03.15,0,.13.03c-.03.03-.4-.11-.44-.12.2.07-.21-.11-.21-.1-.05-.03-.45-.29-.31-.18-.34-.26-.81-.8-.97-1-.44-.57-.84-1.17-1.29-1.73-.87-1.1-2.07-2.08-3.57-1.64-1.65.48-2.04,2.37-1.91,3.87.13,1.41.73,2.65,1.68,3.69.86.93,1.96,1.64,3.09,2.19.69.34,1.32.56,2.09.62.64.04,1.31-.05,1.92-.23,3.01-.9,5.26-3.98,4.96-7.14-.1-1.08-1.07-1.65-2.06-1.18-1.29.61-1.46,2.51-.23,3.28.6.38,1.4.31,1.9-.21.59-.61.5-1.49.35-2.25-.17-.87-1.3-1.24-2.01-.82-1.11.67-1.9,1.73-2.75,2.68-.23.26-.47.52-.72.77-.12.12-.24.24-.37.35-.06.05-.3.24-.1.09-.13.09-.26.18-.39.26-.07.04-.49.21-.18.1-.14.05-.27.08-.42.12.34-.07-.03-.02-.12-.02-.1,0-.07,0,.08.02-.08-.01-.15-.03-.23-.05-.08-.02-.16-.05-.23-.08.13.05.12.04-.03-.03-.34-.23-.42-.25-.73-.55-.5-.49-.81-1.01-1.19-1.7-.78-1.44-1.39-2.93-2.42-4.22l-.28,2.15c.15-.1.21-.06.1-.08-.1.05-.21.07-.33.07l-1-.58c-.14-.2-.11-.43-.13-.65-.02-.19.03-.13,0-.03,0,0,.16-.33.07-.18-.05.08-.03.06.05-.06.13-.22.35-.3.65-.25.5-.29.91-.17,1.25.35l-.04-.06c.12.07.08.23.01-.08l-.96,1.68c1.93-.54,4.01-1.36,6.05-1.06l-.82-2.01c-.48.74-1.33,1.09-2.2,1.07-.05,0-.4-.04-.13,0-.09-.01-.18-.03-.27-.05-.2-.05-.41-.1-.6-.18-.21-.08.24.15-.09-.05-.03-.02-.32-.17-.18-.1.07.06.06.04-.04-.05l.07.1c0,.07.05.45.05.15.03-1.76-2.7-1.76-2.74,0h0Z"/>
  <path class="cls-2" d="M20.6,17.53l.02.02-.21-.28c.13.17.24.35.32.55l-.14-.33c.08.2.14.4.17.61l-.05-.36c.03.2.03.4,0,.61l.05-.36s0,.04,0,.06l2.01-.82c-.57-.26-1.15-.5-1.75-.67-.18-.06-.36-.07-.55-.02-.18,0-.35.06-.51.16-.16.09-.29.2-.38.35-.12.13-.2.29-.25.47-.08.35-.06.74.14,1.05s.47.53.82.63.72.24,1.08.38l-.33-.14c.12.05.23.1.35.15.21.12.44.19.69.19.19,0,.36-.03.53-.12.17-.06.32-.15.44-.28.17-.17.29-.37.35-.6.04-.28.09-.57.08-.85s-.05-.58-.13-.85-.19-.53-.31-.78-.31-.47-.49-.7c-.12-.13-.27-.23-.44-.28-.16-.09-.34-.12-.53-.12-.19,0-.36.03-.53.12-.17.06-.32.15-.44.28-.24.26-.42.6-.4.97l.05.36c.07.23.18.43.35.6h0Z"/>
  <path class="cls-2" d="M14.89,16.95c-.1.21-.22.41-.37.6l.21-.28c-.14.17-.29.33-.46.47l.28-.21c-.07.06-.15.11-.22.15l1.38,2.36c.18-.14.37-.27.56-.41l-1.38-2.36c-.18.14-.37.27-.56.41l1.66,2.15c.36-.28.71-.56,1.07-.84.13-.12.23-.27.28-.44.09-.16.12-.34.12-.53,0-.19-.03-.36-.12-.53-.06-.17-.15-.32-.28-.44l-.28-.21c-.21-.12-.44-.19-.69-.19l-.36.05c-.23.07-.43.18-.6.35-.36.28-.71.56-1.07.84-.13.12-.23.27-.28.44-.09.16-.12.34-.12.53l.05.36c.04.18.12.33.25.47.06.1.14.18.25.25.13.12.29.2.47.25l.36.05c.25,0,.48-.06.69-.19.19-.14.37-.27.56-.41.16-.09.29-.2.38-.35.12-.13.2-.29.25-.47.06-.18.07-.36.02-.55,0-.18-.06-.35-.16-.51l-.21-.28c-.17-.17-.37-.29-.6-.35l-.36-.05c-.25,0-.48.06-.69.19-.19.13-.37.27-.56.41-.16.09-.29.2-.38.35-.12.13-.2.29-.25.47-.06.18-.07.36-.02.55,0,.18.06.35.16.51l.21.28c.17.17.37.29.6.35l.36.05c.25,0,.48-.06.69-.19.21-.13.41-.29.6-.45.11-.09.2-.19.29-.3.25-.3.48-.61.65-.97.1-.16.15-.33.16-.51.04-.18.03-.36-.02-.55-.04-.18-.12-.33-.25-.47-.1-.15-.22-.27-.38-.35l-.33-.14c-.24-.07-.49-.07-.73,0l-.33.14c-.21.12-.37.29-.49.49h0Z"/>
  <path class="cls-2" d="M20.15,15.28c.14.01.27.02.41.04l-.36-.05c.1.02.2.04.3.07l.36.05c.19,0,.36-.03.53-.12.26-.11.52-.3.65-.56.28-.52.24-1.24-.21-1.66-.68-.63-1.53-.98-2.46-1.02-.39-.02-.8.04-1.17.15s-.78.29-1.11.54c-.3.22-.53.45-.63.82-.09.33-.05.76.14,1.05s.47.55.82.63.77.08,1.05-.14c.17-.13.35-.23.55-.32l-.33.14c.19-.08.39-.13.6-.16l-.36.05c.22-.03.44-.03.66,0l-.36-.05c.2.03.4.08.59.16l-.33-.14c.18.08.35.17.5.29l-.28-.21c.06.05.12.1.18.15l1.33-2.29c-.34-.12-.71-.13-1.07-.16-.33-.03-.74.17-.97.4s-.42.63-.4.97.13.72.4.97.59.37.97.4h0Z"/>
  <path class="cls-2" d="M20.96,16.98c1.37.7,2.73,1.4,4.1,2.1l1.38-2.36c-.42-.2-.82-.45-1.2-.72-.1-.07-.2-.14-.3-.22.07.06.24.19.07.05-.05-.04-.1-.08-.14-.12-.18-.15-.36-.3-.54-.45-.8-.66-1.6-1.35-2.53-1.82-.64-.32-1.51-.19-1.87.49-.33.62-.19,1.53.49,1.87.42.21.81.47,1.19.75.03.02.23.18.04.03s0,0,.04.03c.1.08.19.15.29.23.18.15.36.3.54.45.8.66,1.61,1.34,2.55,1.78.34.16.68.24,1.05.14.32-.09.66-.33.82-.63.33-.63.19-1.52-.49-1.87-1.37-.7-2.73-1.4-4.1-2.1-.64-.33-1.51-.19-1.87.49-.33.63-.19,1.52.49,1.87h0Z"/>
  <path class="cls-2" d="M25.21,19.3c-.94.59-1.45,1.64-.85,2.67.41.72,1.28,1.09,2.07,1.19,1.45.19,3.21-.93,3.6-2.35.24-.88-.17-1.84-.95-2.29-.68-.39-1.58-.29-2.24.09s-1.11,1.07-1.1,1.84c0,1.02.87,1.81,1.85,1.88,1.82.14,3.47-2.29,1.9-3.67l-.97,2.34c.91.09,1.66-.41,2.17-1.12.6-.84-.2-2.11-1.18-2.06-.35.02-.69.02-1.04,0-.09,0-.17-.01-.26-.02,0,0-.37-.04-.2-.02.15.02-.11-.02-.14-.02-.08-.01-.17-.03-.25-.05-.34-.07-.67-.15-1-.26-.16-.05-.33-.11-.49-.17-.08-.03-.16-.06-.24-.09-.22-.08.28.13-.09-.04-.63-.28-1.24-.62-1.81-1.01-.14-.1-.28-.2-.43-.3-.2-.14.03.03-.08-.06-.07-.05-.14-.11-.2-.16-.28-.23-.56-.48-.82-.73-.52-.5-1.43-.55-1.94,0s-.55,1.4,0,1.94c2.39,2.31,5.61,3.9,8.99,3.74l-1.18-2.06c.09-.13.14-.16.28-.22h.14c-.08,0-.16,0-.23-.02-1.17-.11-1.82,1.58-.97,2.34.15.13-.12-.23-.15-.32-.02-.26-.03-.32-.03-.18l.03-.24c.1-.35.11-.21.02-.09.25-.34.11-.13.03-.06.17-.13.22-.16.13-.1-.03.02-.06.04-.09.06-.1.05-.09.05.03,0,.12-.05.13-.05.03-.02-.24.08.34-.02.1-.02.23,0,.46.09.62.26l.12.17c-.07-.13-.06-.08.05.14l.03.24c0-.14,0-.08-.03.19l-.09.22c.07-.12.03-.07-.11.13.04-.04.19-.18,0-.02-.24.2.22-.07-.07.04-.25.09.01.02.06,0,.12-.06-.39.02-.11.03-.05,0-.2-.02-.26-.05-.18-.1-.32-.19-.43-.37.09.14-.07-.25-.07-.34.01.28,0-.29.1-.3-.03.05-.05.1-.09.15l.1-.13s-.18.18-.2.21c-.22.22.23-.13-.04.03-.09.05-.17.11-.26.15-.04.02-.09.05-.13.07-.09.04-.06.03.11-.05,0,.01-.23.07-.24.08-.24.09.35,0,.07,0-.26,0,.3.1.02,0-.05-.01-.26-.04-.27-.08l.16.07c-.05-.03-.11-.06-.16-.09l.14.11c-.08-.08-.08-.07,0,.03.11.3.19.43.1.76,0,.15-.06.28-.17.38-.14.1-.14.1,0,0,.61-.38.9-1.24.49-1.87s-1.22-.9-1.87-.49h0Z"/>
  <path class="cls-2" d="M22.32,23.26s.07,0,.11.01l-.36-.05c.94.13,1.91.46,2.85.12.6-.21,1.11-.57,1.44-1.13.2-.34.27-.66.31-1.04,0-.07.01-.13,0-.2-.01-.19-.03-.39-.1-.56-.12-.34-.31-.63-.63-.82-.29-.17-.73-.24-1.05-.14s-.65.31-.82.63-.26.71-.14,1.05c.02.05.03.1.04.16l-.05-.36c.01.08,0,.16,0,.24l.05-.36c-.01.08-.04.16-.07.24l.14-.33c-.04.08-.08.15-.13.22l.21-.28c-.06.08-.13.15-.21.21l.28-.21c-.09.06-.18.11-.28.16l.33-.14c-.13.05-.27.09-.41.11l.36-.05c-.23.03-.45.02-.68,0l.36.05c-.53-.07-1.05-.2-1.58-.26-.33-.04-.75.18-.97.4-.24.24-.42.63-.4.97s.13.72.4.97l.28.21c.21.12.44.19.69.19h0Z"/>
  <path class="cls-2" d="M17.23,14.77c-.39.08-.7.43-.8.8-.11.41,0,.85.19,1.23.16.3.41.58.71.75.32.17.7.23,1.05.13.19-.05.35-.15.5-.27.16-.14.26-.32.33-.51s.1-.41.11-.62c0-.18-.01-.37-.07-.54-.22-.66-.87-1.18-1.59-1.14-.37.02-.77.17-1.01.47-.14.17-.24.35-.29.56-.05.18-.07.37-.07.56,0,.08,0,.16,0,.24,0,.2.17.4.39.39s.4-.17.39-.39c0-.17,0-.34.02-.51v.1c0-.12.03-.24.08-.35l-.04.09c.03-.07.07-.14.12-.2l-.06.08c.05-.06.11-.12.17-.17l-.08.06c.07-.05.13-.09.21-.12l-.09.04c.09-.04.19-.06.28-.08h-.1c.1,0,.19,0,.29.01h-.1c.1,0,.2.03.29.06l-.09-.04c.1.04.2.1.29.17l-.08-.06c.08.07.16.14.23.23l-.06-.08c.07.09.12.18.16.28l-.04-.09c.04.09.07.19.08.29v-.1c0,.13,0,.25-.02.38v-.1c0,.14-.04.28-.09.42l.04-.09c-.03.06-.06.12-.1.18l.06-.08c-.04.05-.09.1-.14.14l.08-.06c-.06.04-.12.08-.19.11l.09-.04c-.08.03-.16.05-.24.06h.1c-.09,0-.18,0-.27-.01h.1c-.09,0-.17-.02-.25-.05l.09.04c-.09-.04-.18-.09-.26-.15l.08.06c-.09-.07-.18-.16-.25-.25l.06.08c-.09-.11-.16-.24-.21-.37l.04.09c-.05-.12-.09-.25-.11-.38v.1c0-.1,0-.2.01-.3v.1c0-.07.01-.14.04-.21l-.04.09c.03-.06.06-.12.1-.17l-.06.08c.04-.05.09-.1.14-.14l-.08.06s.08-.05.13-.07l-.09.04s.08-.03.12-.04c.09-.02.19-.1.23-.18.05-.08.07-.21.04-.3-.07-.21-.27-.32-.48-.27h0Z"/>
  <path class="cls-2" d="M18.63,14.99s.06.01.09.02c.01,0,.02,0,.04.01.04.01.03.01-.02-.01,0,0,.12.06.13.07.01,0,.03.02.04.03l-.04-.03s.05.04.07.06c.04.04.08.08.12.12.03.04.08.08.1.12-.03-.04-.04-.05-.01-.02,0,.01.02.02.02.03.02.03.04.05.06.08.07.1.13.2.18.31.01.03.02.05.04.08.01.03,0,.02-.01-.03,0,.02.01.04.02.05.02.05.04.11.05.16,0,.03.01.06.02.08.02.09,0-.09,0,.01,0,.05,0,.11,0,.16,0,.01,0,.03,0,.04,0,.03,0,.02,0-.04-.01.01-.01.06-.01.07,0,.03-.01.06-.02.08,0,.01,0,.02-.01.04-.02.04-.01.03.01-.03-.01,0-.06.11-.07.13-.04.07.05-.05,0,0-.02.02-.05.05-.07.07l.55.55c.2-.19.37-.4.46-.67.09-.3,0-.61-.14-.88-.12-.23-.28-.44-.46-.63s-.41-.37-.67-.41c-.16-.03-.31,0-.41.14-.09.12-.12.31-.03.43.11.16.25.29.39.43.03.03.06.06.09.09.01.01.03.03.04.04.06.06-.05-.07,0,0,.02.03.04.06.06.1.04.07-.02-.08,0,0,0,.02.01.04.02.07.01.04,0-.09,0,0,0,.02,0,.05,0,.07,0,.09,0,0,0,0,0,0-.02.08-.02.09-.01.05-.03.1-.05.14-.03.09.04-.07,0,.02-.01.02-.02.04-.03.07-.1.21-.22.42-.26.66-.03.14,0,.28.1.38.1.1.25.14.38.1.45-.14.74-.59.73-1.05s-.28-.9-.62-1.21c-.2-.17-.41-.31-.66-.39-.23-.07-.47-.1-.71-.13-.45-.06-.94-.12-1.32.19-.21.17-.3.44-.36.69-.06.28-.09.57-.08.85,0,.2.17.4.39.39.21,0,.4-.17.39-.39,0-.06,0-.12,0-.17,0-.03.03-.11,0-.02,0-.03.01-.06.02-.09.01-.06.03-.11.05-.17,0-.03.02-.06.03-.09.01-.04-.01.03-.01.03.01-.01.02-.04.02-.05.03-.05.05-.1.09-.15.01-.02.03-.07.05-.08,0,0-.05.06-.02.03.01-.01.02-.03.03-.04.04-.04.08-.08.12-.12.01,0,.09-.07.04-.04-.04.03,0,0,0,0,.01,0,.03-.02.04-.03.05-.03.1-.06.15-.08.01,0,.02-.01.04-.02.06-.03-.01,0-.02,0,.03,0,.06-.02.09-.03.05-.02.11-.03.16-.04.02,0,.04,0,.05,0,0,0-.08,0-.04,0,.03,0,.06,0,.09,0,.06,0,.11,0,.17,0,.02,0,.07,0,.01,0-.06,0-.01,0,0,0,.03,0,.06.01.08.02.05.01.1.04.15.05,0,0-.09-.04-.03-.01.01,0,.02.01.03.02.03.01.05.03.08.04.03.02.06.03.08.05.01,0,.02.01.03.02.04.03-.07-.06-.01,0,.05.04.09.08.13.13.02.02.04.05.06.07,0,0-.05-.07-.02-.02,0,.01.02.03.03.04.04.06.07.11.09.17l.06-.47h-.01c.06-.02.12-.05.17-.09h.07c.08,0,.1,0,.06,0-.02,0-.04-.01-.06-.02-.01,0-.1-.04-.05-.02s0,0,0,0c-.02,0-.04-.02-.05-.02-.03-.01-.06-.03-.1-.04-.13-.06-.25-.12-.38-.18-.28-.12-.56-.22-.87-.23s-.63.09-.87.3c-.2.17-.35.44-.4.7-.13.59.08,1.23.43,1.71.17.24.37.47.61.64.27.19.62.2.94.19.36,0,.71-.05,1.07-.1.14-.02.3-.03.43-.07.1-.03.21-.08.28-.16.1-.1.14-.22.15-.36.02-.2-.19-.4-.39-.39-.23.01-.37.17-.39.39,0-.05.04-.21.13-.23h-.02s-.02.02.03,0c-.01,0-.05.01-.06.02-.02,0-.05,0-.07.01-.06,0-.13.02-.19.03-.03,0-.06,0-.1.01-.05,0-.04,0,0,0-.02,0-.04,0-.07,0-.26.03-.52.06-.78.06-.13,0-.26,0-.39-.01-.04,0-.05.01.02,0-.03,0-.06-.01-.09-.02-.09-.01.06.04-.01,0-.02-.01-.08-.03-.09-.06l.04.03s-.03-.02-.04-.04c-.02-.02-.04-.04-.06-.06-.04-.04-.08-.08-.12-.12s-.07-.08-.11-.13c-.05-.05,0,0,0,.01-.03-.02-.05-.06-.06-.09-.06-.09-.12-.19-.17-.29-.01-.02-.02-.05-.04-.08-.01-.02-.06-.09,0,0-.03-.06-.05-.13-.07-.2-.01-.05-.03-.1-.04-.15,0-.03-.01-.06-.02-.09-.02-.1,0,.08,0-.02,0-.06,0-.12,0-.18v-.03s0-.04,0,.01c0-.03.01-.07.02-.1,0-.02.05-.13.05-.14l-.02.05s.01-.03.02-.04c0-.01.02-.03.02-.04.01-.02.03-.04.04-.06.05-.07-.06.06,0,0,.02-.02.03-.04.05-.05.01-.01.02-.02.04-.03-.05.04-.05.04-.02.02.02-.01.04-.03.06-.04h.02s.03-.03-.02,0c.01-.03.13-.04.15-.04.09-.02-.09,0,0,0,.02,0,.04,0,.05,0,.03,0,.05,0,.08,0,.02,0,.04,0,.05,0,.04,0,.04,0-.02,0,.05,0,.14.03.19.04.06.02.12.04.18.06.02,0,.11.04.02,0,.04.01.07.03.11.05.05.03.11.05.16.08.15.07.3.14.45.2.21.09.44.14.62-.05.13-.13.13-.31.06-.47-.26-.56-.86-.93-1.47-.96-.65-.02-1.28.34-1.6.9-.18.31-.27.68-.26,1.04h.78c0-.09,0-.19,0-.28,0-.04,0-.08,0-.13,0-.03,0-.05,0-.08,0-.03,0-.02,0,.03,0-.02,0-.03,0-.05.01-.09.03-.17.06-.26.01-.04.02-.08.04-.12.02-.05-.05.08,0,0,.01-.02.02-.04.03-.06.04-.06-.01-.01,0,0,0,0,.04-.04.04-.04.04-.05-.01.01-.02.01,0,0,.03-.02.04-.03h.02s.03-.03,0-.01h-.02s.03,0,.05,0c.02,0,.03,0,.05-.01.07-.02-.09,0,0,0,.16,0,.32,0,.48.02.1.01.19.02.29.03-.01,0-.08-.01,0,0,.02,0,.04,0,.06,0,.05,0,.1.02.15.02.09.02.18.04.26.07.01,0,.04.01.06.02-.07-.04-.03-.02-.01,0,.05.02.09.05.14.08.02.01.03.02.05.03.02.02.08.04,0,0,.03.02.06.05.09.07.07.06.13.12.18.19h0s.02.04-.01,0c0,0,.03.04.03.04.02.03.04.06.06.09.01.03.06.09.06.12,0,0-.03-.09,0-.02,0,.03.02.05.02.08,0,.02,0,.03.01.05,0,.01,0,.03,0,.04,0,.03,0,.02,0-.04.01,0,0,.1,0,.12,0,.01,0,.03,0,.05,0-.06.01-.08,0-.05,0,.01,0,.02,0,.03,0,.03-.03.08-.03.11,0-.06.03-.06.01-.03-.01.02-.02.04-.03.06,0,0-.05.07,0,.02.04-.05,0,0-.01.01-.01.01-.03.03-.04.04-.03.03.08-.05,0,0-.01,0-.03.01-.04.02-.03.01-.01,0,.04-.02-.01,0-.03.01-.04.01l.48.48c.01-.06.03-.12.05-.17,0-.03.02-.06.03-.08-.02.04-.02.04,0,0,.05-.1.1-.21.15-.31.12-.28.2-.56.15-.86-.04-.23-.18-.43-.34-.59-.06-.06-.13-.12-.19-.18-.03-.03-.07-.07-.1-.1-.01-.01-.03-.05-.05-.05l.03.04s-.02-.03-.03-.04l-.44.57s.08.03.12.03c-.05-.02-.06-.03-.03-.01.01,0,.02.01.03.02.02.01.04.02.05.03.06.04.02,0,0,0,.01,0,.04.04.05.04.04.03.07.07.1.1s.06.07.09.11c0,0,.06.07.02.03s.02.02.02.03c.06.08.12.17.17.26.02.04.04.09.07.13s-.02-.07,0,0c0,.02.02.05.02.07,0,.02.02.05.02.07,0-.05,0-.06,0-.03,0,.01,0,.03,0,.04,0,.07.02-.06,0-.01,0,.02,0,.04-.02.06v.02s-.02.03,0,0c.01-.03.01-.03,0,0v.02s-.06.09-.09.11c.03-.04.04-.05.02-.03,0,.01-.02.02-.03.03-.01.02-.03.03-.05.05-.03.04-.07.07-.1.1-.15.14-.15.41,0,.55.16.15.39.15.55,0,.25-.22.37-.54.4-.86s-.06-.63-.19-.92c-.12-.27-.3-.52-.5-.73s-.47-.42-.77-.47c-.2-.04-.43.06-.48.27-.04.19.06.44.27.48h0Z"/>
</svg>