<?xml version="1.0" encoding="UTF-8"?>
<svg id="Layer_1" data-name="Layer 1" xmlns="http://www.w3.org/2000/svg" viewBox="0 0 48 48">
  <defs>
    <style>
      .cls-1 {
        fill: none;
        stroke: #ec1e31;
        stroke-miterlimit: 10;
        stroke-width: 1.96px;
      }

      .cls-2 {
        fill: #ec1e31;
      }
    </style>
  </defs>
  <ellipse class="cls-1" cx="16.37" cy="16.55" rx="14.87" ry="15.05"/>
  <path class="cls-2" d="M40.3,45.74c.57.49,1.15.98,1.73,1.46.09.1.19.16.32.2.12.06.24.09.38.08.24,0,.53-.11.69-.29s.3-.43.29-.69c-.01-.25-.09-.53-.29-.69-.58-.48-1.16-.97-1.73-1.46-.2-.17-.42-.29-.69-.29-.24,0-.53.11-.69.29s-.3.43-.29.69.09.52.29.69h0Z"/>
  <path class="cls-2" d="M25,29.44c3.82,5,8.04,9.67,12.66,13.94.92.85,2.31-.53,1.38-1.38-4.49-4.15-8.64-8.68-12.35-13.54-.32-.42-.84-.64-1.34-.35-.42.24-.67.92-.35,1.34h0Z"/>
  <path class="cls-2" d="M43.79,42.18c.24.29.48.59.71.88l-.15-.2s.05.06.07.09c.06.11.15.21.25.27.09.09.21.14.33.18.13.04.26.05.39.02.13,0,.25-.04.36-.12l.2-.15c.12-.12.21-.27.25-.43l.03-.26c0-.18-.05-.34-.13-.49-.3-.4-.61-.79-.93-1.17-.09-.1-.19-.16-.32-.2-.12-.06-.24-.09-.38-.08-.13,0-.26.02-.38.08-.12.04-.23.11-.32.2-.17.19-.3.43-.29.69l.03.26c.05.17.13.31.25.43h0Z"/>
  <path class="cls-2" d="M27.11,28.37c5.63,2.86,10.34,7.11,14.69,11.63.88.91,2.26-.48,1.38-1.38-4.47-4.62-9.32-9-15.09-11.93-1.12-.57-2.11,1.12-.99,1.69h0Z"/>
  <path class="cls-2" d="M43.25,47.31c1.18-.88,2.18-1.95,2.95-3.2.27-.44.11-1.1-.35-1.34s-1.05-.11-1.34.35c-.2.32-.41.62-.64.92l.15-.2c-.54.69-1.16,1.31-1.85,1.85l.2-.15s-.08.06-.12.09c-.21.16-.38.32-.45.59-.06.23-.04.55.1.75s.34.39.59.45.55.06.75-.1h0Z"/>
  <path class="cls-2" d="M45.15,43.85h.02c.08.05.16.08.23.11.13.04.26.05.39.02.09,0,.17-.02.25-.07.12-.04.23-.11.32-.2l.15-.2.1-.23c.04-.13.05-.26.02-.39,0-.13-.04-.25-.12-.36-.03-.05-.06-.1-.1-.15-.09-.11-.17-.23-.26-.33-.09-.1-.19-.16-.32-.2-.12-.06-.24-.09-.38-.08-.13,0-.26.02-.38.08-.12.04-.23.11-.32.2l-.15.2c-.09.15-.13.32-.13.49l.03.26c.05.17.13.31.25.43.05.06.1.13.15.19l-.15-.2s.02.02.02.04l-.1-.23s0,.01,0,.02l-.03-.26s0,.01,0,.02l.03-.26s0,.01,0,.02l.1-.23s0,0,0,0l.15-.2s0,0,0,0l.2-.15h0c-.11.06-.21.15-.27.25-.09.09-.14.21-.18.33-.04.13-.05.26-.02.39,0,.13.04.25.12.36l.15.2c.12.12.27.21.43.25l.26.03c.18,0,.34-.05.49-.13.2-.16.22-.14.36-.36,0,0,0,0,0,0,.02-.04.04-.08.05-.12.02-.04.03-.08.05-.12.03-.09.03-.19.04-.28,0,0,0-.01,0-.02-.02-.21-.04-.34-.15-.53,0,0,0-.01-.01-.02-.05-.07-.11-.14-.17-.21-.05-.06-.09-.12-.14-.18l-1.38,1.38s.07.08.1.12l-.15-.2c.04.05.08.11.11.16l1.34-1.34h-.02c-.11-.08-.23-.12-.36-.13-.13-.03-.26-.02-.39.02-.13.03-.24.09-.33.18-.11.07-.19.16-.25.27l-.1.23c-.05.17-.05.35,0,.52l.1.23c.09.15.2.26.35.35h0Z"/>
  <path class="cls-2" d="M46.41,42.38l-.04-.06c-.06-.11-.15-.21-.25-.27-.09-.09-.21-.14-.33-.18-.13-.04-.26-.05-.39-.02-.13,0-.25.04-.36.12l-.2.15c-.12.12-.21.27-.25.43l-.03.26c0,.18.05.34.13.49l.04.06c.06.11.15.21.25.27.09.09.21.14.33.18.13.04.26.05.39.02.13,0,.25-.04.36-.12l.2-.15c.12-.12.21-.27.25-.43l.03-.26c0-.18-.05-.34-.13-.49h0Z"/>
  <path class="cls-2" d="M45.83,42.3s.06.06.08.09l-.03-.04s.03.04.04.06c.03.04.07.08.12.09.03,0,.05,0,.08,0,.03,0,.05,0,.07-.02.04-.03.08-.07.09-.12v-.05s0-.07-.02-.1c-.04-.09-.1-.17-.17-.25-.02-.02-.04-.03-.06-.04-.02-.01-.05-.02-.08-.02-.03,0-.05,0-.08.02-.02,0-.05.02-.06.04-.03.04-.06.09-.06.14v.05s.03.06.06.09c.02.02.03.04.05.06l-.03-.04s.07.09.09.15l.34-.2s-.06-.08-.09-.12c-.02-.03-.04-.05-.07-.07-.02-.02-.04-.03-.06-.04-.02-.01-.05-.02-.08-.02-.03,0-.05,0-.08.02-.02,0-.05.02-.06.04-.03.04-.06.09-.06.14v.05s.03.06.06.09h0Z"/>
  <path class="cls-2" d="M45.8,42.25s.03.02.04.03l-.04-.03c.07.06.14.12.2.2l.28-.28s-.08-.09-.12-.13c-.05-.05-.11-.1-.17-.15-.03-.02-.06-.04-.08-.06l-.2.34s.09.05.12.08l-.04-.03c.06.05.11.1.16.16l-.03-.04s.05.07.07.1c.01.02.03.04.05.05.02.02.04.03.07.04.03,0,.05,0,.08,0,.03,0,.05,0,.07-.02.04-.03.08-.07.09-.12v-.05s0-.07-.02-.1c-.04-.07-.09-.14-.14-.2s-.12-.11-.18-.16c-.03-.02-.06-.04-.1-.06-.02-.01-.05-.02-.07-.02-.03,0-.05,0-.08,0-.03,0-.05.02-.07.04-.02.01-.04.03-.05.05l-.02.05s0,.07,0,.1c.02.05.05.09.09.12.03.02.06.04.09.06l-.04-.03c.09.07.17.16.24.24.02.02.04.03.06.04.02.01.05.02.08.02.03,0,.05,0,.08-.02.02,0,.05-.02.06-.04.03-.04.06-.09.06-.14v-.05s-.03-.06-.06-.09c-.08-.1-.17-.18-.28-.26-.02-.01-.05-.02-.07-.02-.03,0-.05,0-.08,0-.03,0-.05.02-.07.04-.02.01-.04.03-.05.05l-.02.05s0,.07,0,.1l.02.05s.04.05.07.07h0Z"/>
  <path class="cls-2" d="M46.01,43.69s-.03.04-.04.06l.03-.04s-.05.06-.08.09l.31.24c.12-.16.24-.33.32-.52.02-.04.03-.08.05-.12,0-.01,0-.03.01-.04,0-.03.01-.06,0-.09,0-.03,0-.05-.02-.08,0-.02-.02-.05-.04-.06-.03-.03-.09-.06-.14-.06s-.1.02-.14.06c-.03.04-.06.09-.06.14,0,.01,0,.02,0,.04v-.05s-.02.07-.03.11l.02-.05c-.08.19-.21.36-.33.53-.01.02-.02.05-.02.07,0,.03,0,.05,0,.08.01.04.04.08.07.1.08.06.19.05.26-.02.06-.05.11-.12.15-.18.03-.04.03-.1.02-.15s-.05-.09-.09-.12c-.05-.02-.1-.04-.15-.02s-.09.05-.12.09h0Z"/>
  <path class="cls-2" d="M46.24,43.1s-.04.08-.05.13c0,.05,0,.11.02.15.02.04.05.06.09.08s.09.02.13,0c.05-.02.1-.04.12-.09l.07-.14s.03-.1.02-.15c-.01-.05-.05-.09-.09-.12-.05-.02-.1-.04-.15-.02-.05.02-.09.04-.12.09-.05.09-.08.18-.11.27v.05s0,.05,0,.08c.02.04.04.07.08.09.03.02.06.03.1.03.05,0,.1-.02.14-.06.04-.04.07-.08.1-.13s.05-.1.06-.15,0-.1-.02-.15c-.02-.04-.07-.08-.12-.09-.05-.01-.11,0-.15.02l-.04.03s-.04.05-.05.09l-.07.17s0,.11.02.15.05.06.09.08.09.02.13,0c.05-.01.1-.04.12-.09.04-.09.08-.18.11-.27,0-.03.01-.07.02-.1s0-.07,0-.11c0-.05-.03-.1-.05-.15-.07-.15-.17-.28-.29-.4-.04-.04-.09-.06-.14-.06s-.11.02-.14.06-.06.09-.06.14.02.1.06.14c.04.04.08.09.12.13l-.03-.04c.06.08.12.16.15.25l-.02-.05s.02.04.02.07v-.05s0,.04,0,.06v-.05c0,.07-.03.13-.06.2l.02-.05s-.02.05-.03.07l.36.15.07-.17-.38-.1s-.01.05-.02.07l.02-.05s-.03.05-.04.08l.03-.04s-.03.03-.04.05l.33.19s.03-.08.04-.13l-.02.05s.03-.07.05-.1l-.34-.2-.07.14.36.15s.01-.04.02-.06l-.02.05s0-.01,0-.02c.02-.05.03-.1.02-.15-.01-.05-.05-.09-.09-.12-.05-.02-.1-.04-.15-.02-.05.02-.09.04-.12.09h0Z"/>
  <path class="cls-2" d="M46.18,42.96v.05s.02.1.06.14.09.06.14.06.1-.02.14-.06l.03-.04s.03-.06.03-.1c0-.05,0-.09,0-.14,0-.03-.02-.05-.04-.07-.01-.02-.03-.04-.05-.05l-.05-.02s-.05,0-.08,0c-.02,0-.03,0-.05.01-.02,0-.05.02-.06.04-.03.04-.06.09-.06.14,0,.05,0,.08.03.12,0,.01.01.02.02.03s.02.02.03.03c.02.02.05.04.09.05.03,0,.07,0,.1,0,.07-.02.12-.07.14-.14,0-.02,0-.04.01-.06s0-.04,0-.06l-.38.05s.02.08.05.12l.03.04s.04.03.06.04c.02,0,.03.01.05.01.03,0,.05,0,.08,0,.03-.01.06-.03.09-.05.02-.02.03-.04.04-.06.01-.02.02-.05.02-.08,0-.03,0-.07.01-.1l-.38.05s0,.06.01.1l.02.05s.03.04.05.05c.03.03.08.04.12.04.03,0,.07-.01.1-.03.02-.01.04-.03.05-.05.02-.02.03-.04.04-.07,0-.03.01-.06,0-.09,0-.02,0-.05-.01-.07,0-.02-.02-.05-.03-.07l-.03-.04s-.04-.03-.06-.04c-.02,0-.03-.01-.05-.01-.03,0-.05,0-.08,0-.03.01-.06.03-.09.05-.02.02-.03.04-.04.06-.01.02-.02.05-.02.08,0,.06.02.12.04.18,0,.03.02.05.04.07.01.02.03.04.05.05.04.02.1.03.15.02s.09-.04.12-.09l.02-.05s0-.07,0-.1c-.01-.1-.05-.19-.09-.28s-.09-.17-.16-.24c-.02-.02-.04-.03-.06-.04-.02-.01-.05-.02-.08-.02h-.05s-.05.02-.07.04c-.03.03-.06.06-.07.1v.05s0,.07.02.1c.06.08.12.15.15.24l-.02-.05s.03.08.03.12v-.05s0,.07,0,.1v-.05s0,.05-.01.08l.02-.05s-.02.04-.03.06l.03-.04s0,0-.01.01c-.03.04-.06.09-.06.14,0,.05.02.11.06.14s.09.06.14.06.1-.02.14-.06c.05-.06.09-.12.11-.19.01-.04.01-.07.02-.11,0-.02,0-.04,0-.06,0-.06-.01-.12-.03-.18-.02-.06-.05-.12-.08-.17-.03-.05-.06-.09-.1-.14l-.31.24s.01.01.02.02l-.03-.04c.05.06.08.13.11.2l-.02-.05c.03.07.05.14.06.22l.38-.1s-.03-.07-.03-.11v.05s0,0,0-.01l-.36.1h0s-.01-.03-.02-.04c0,.01,0,.02,0,.03v-.05s0,.02,0,.03v-.05s0,0,0,.01h.38s0-.06-.01-.1c0-.03-.02-.05-.04-.07-.01-.02-.03-.04-.05-.05l-.05-.02s-.05,0-.08,0c-.02,0-.03,0-.05.01-.02,0-.05.02-.06.04l-.03.04s-.03.06-.03.1c0,.03,0,.07-.01.1l.36-.1s-.01-.02-.02-.03l.02.05s0-.03-.01-.04c0-.03-.02-.05-.04-.07-.01-.02-.03-.04-.05-.05l-.05-.02s-.05,0-.08,0c-.02,0-.03,0-.05.01-.02,0-.05.02-.06.04-.03.04-.06.09-.06.14,0,.01,0,.03,0,.04v-.05s0,.03,0,.04l.33-.09s0,0,0,0l.03.04s0,0,0-.01l.02.05s0,0,0-.01v.05s0,0,0,0l-.38.05s0,0,0,.01v-.05s0,.05,0,.07h.39v-.05s-.02-.1-.06-.14-.09-.06-.14-.06-.1.02-.14.06-.06.09-.06.14h0Z"/>
  <path class="cls-2" d="M28.81,28.59c-.4-.59-.96-1.04-1.66-1.22-.64-.17-1.38.45-1.14,1.14.23.63.6,1.13,1.17,1.5.33.22.85.14,1.12-.14.29-.32.33-.74.14-1.12-.24-.5-.66-.93-1.15-1.18-.34-.17-.72-.16-1.03.07-.27.21-.46.63-.33.97.21.55.48,1.02.86,1.47.14.17.31.32.48.46.23.18.53.44.83.51l-.68-.89v.03c.04-.16.09-.31.13-.47l.11-.14.9-.24h-.03c.18.14.37.28.55.42l-.03-.05.13.47c-.04.19-.04.15,0-.14,0-.05.01-.1,0-.16,0-.15-.04-.33-.09-.47-.09-.26-.22-.49-.39-.71-.29-.39-.82-.62-1.27-.33-.4.26-.62.83-.33,1.27.74,1.12,1.44,2.45,2.79,2.9.65.22,1.36-.48,1.14-1.14-.33-.98-.84-1.86-1.52-2.64-.3-.35-.87-.34-1.21-.07s-.48.8-.24,1.19c.8,1.3,1.85,2.4,3.11,3.26.32.22.86.14,1.12-.14.28-.3.36-.76.14-1.12-.4-.67-.87-1.31-1.41-1.87-.32-.33-.86-.35-1.21-.07s-.51.82-.24,1.19l.11.15c.28.39.82.62,1.27.33.39-.25.63-.84.33-1.27l-.11-.15-1.45,1.12c.12.12.23.25.34.37.05.06.11.13.16.19.17.21-.1-.14.06.08.2.27.39.56.56.85l1.27-1.27c-.13-.09-.26-.18-.39-.28.16.12-.05-.04-.07-.06-.06-.05-.12-.1-.19-.16-.25-.21-.48-.44-.7-.67-.11-.12-.22-.24-.33-.36-.05-.06-.11-.12-.16-.19-.03-.03-.17-.22-.06-.07-.2-.26-.38-.53-.56-.81l-1.45,1.12c.07.08.14.16.21.25-.13-.16.08.11.1.14.11.16.21.32.3.48s.18.33.26.51c.02.05.04.1.07.15-.04-.1-.04-.09,0,0,.04.1.08.2.11.31l1.14-1.14c-.21-.07.1.06-.01,0-.05-.03-.11-.05-.16-.08-.02-.01-.19-.12-.08-.05s-.05-.05-.07-.07c-.09-.08-.18-.17-.26-.26-.04-.05-.08-.1-.12-.14-.09-.1.12.17-.02-.02-.34-.46-.64-.94-.96-1.42l-1.6.93c.06.09.13.18.18.27.03.05.05.09.08.14l-.04-.07c.03.11.02.1,0-.02.03-.18.02-.13-.02.15,0,.2.04.39.14.56.25.42.75.6,1.2.41.35-.15.64-.52.6-.92s-.26-.8-.68-.89c.15.07.18.07.07.01-.04-.03-.08-.05-.12-.08-.18-.11.1.09-.05-.03s-.27-.25-.39-.39c-.02-.03-.05-.06-.07-.09.07.09.07.09.01,0-.05-.07-.1-.14-.14-.22s-.09-.15-.13-.23c-.02-.04-.04-.09-.06-.14.04.11.05.11,0,.01l-1.36,1.04c.09.05.17.09.25.15-.13-.09-.02,0,.04.05.04.04.14.2.05.05.05.09.11.17.15.26l1.27-1.27c-.08-.06-.08-.05.01.02-.04-.03-.07-.06-.11-.1-.05-.05-.1-.1-.15-.16.14.17,0-.02-.02-.05-.02-.04-.05-.09-.07-.13.04.11.05.12.01.02l-1.14,1.14c.06.01.32.13.12.03.09.05.17.09.25.15-.18-.11.06.05.1.09.03.04.07.07.1.11-.07-.09-.07-.09-.01,0,.27.4.83.61,1.27.33.4-.26.62-.84.33-1.27h0Z"/>
  <path class="cls-2" d="M30.14,31.86c.62,1.09,1.51,1.99,2.59,2.62.71.42,1.4-.39,1.07-1.07-.55-1.12-1.51-1.92-2.66-2.35-.52-.19-1.19.43-.96.96.47,1.1.97,2.19,1.55,3.24.48.89,1.8.11,1.35-.79s-1.11-1.79-1.9-2.48c-.67-.6-1.63.14-1.23.95,1.05,2.11,2.75,3.87,4.82,5,.55.3,1.13-.08,1.18-.68.17-2.18-.97-4.35-2.83-5.49-.58-.35-1.35.23-1.15.88.3.99.72,1.96,1.26,2.84s1.18,1.62,2.16,1.97c.5.18.98-.28.99-.76.05-1.54-.56-3.04-1.65-4.13-.55-.54-1.54,0-1.31.76.47,1.57,1.46,2.89,2.83,3.78.58.38,1.33-.25,1.15-.88-.18-.67-.52-1.26-1.01-1.76-.52-.53-1.59,0-1.31.76.38,1,.9,1.9,1.61,2.7.5.57,1.59-.03,1.31-.76-.34-.88-.93-1.62-1.79-2.05-.33-.17-.67-.12-.95.12-.47.41-.34,1.02-.17,1.54.18.57.37,1.14.55,1.71l1.31-.76c-.56-.5-1.08-1.04-1.56-1.61-.57-.67-1.74.22-1.23.95l1.61,2.3c.36.52.99.48,1.35,0,.69-.9,1.18-1.94,1.46-3.05.25-.99-1.17-1.36-1.51-.42-.28.79-.59,1.56-.93,2.33s.33,1.39,1.07,1.07c.68-.3,1.24-.83,1.59-1.48.42-.77-.59-1.6-1.23-.95s-1.15,1.37-1.54,2.18c-.17.35-.13.77.2,1.01.3.23.76.23,1.03-.06.68-.72,1.26-1.53,1.71-2.42s-.89-1.69-1.35-.79c-.39.77-.87,1.47-1.46,2.1l1.23.95c.33-.69.75-1.31,1.29-1.86l-1.23-.95c-.24.44-.57.72-1.03.92l1.07,1.07c.39-.89.76-1.79,1.09-2.7l-1.51-.42c-.25.98-.69,1.86-1.3,2.67h1.35l-1.61-2.3-1.23.95c.49.57,1.01,1.11,1.56,1.61s1.56.02,1.31-.76c-.12-.38-.25-.76-.37-1.14-.06-.19-.12-.38-.18-.57-.03-.1-.06-.19-.09-.29-.04-.21-.09-.12-.14.27l-.95.12c.48.24.87.6,1.07,1.11l1.31-.76c-.52-.59-.93-1.28-1.21-2.01l-1.31.76c.3.31.5.66.61,1.07l1.15-.88c-1.03-.67-1.76-1.68-2.11-2.85l-1.31.76c.81.81,1.23,1.88,1.19,3.02l.99-.76c-.64-.23-1.05-.94-1.37-1.49-.41-.7-.73-1.44-.96-2.23l-1.15.88c1.42.87,2.18,2.49,2.05,4.13l1.18-.68c-1.85-1.01-3.32-2.55-4.26-4.43l-1.23.95c.7.62,1.24,1.33,1.65,2.16l1.35-.79c-.51-.93-.98-1.89-1.39-2.87l-.96.96c.78.29,1.36.9,1.73,1.63l1.07-1.07c-.86-.5-1.54-1.2-2.03-2.06s-1.86-.09-1.35.79h0Z"/>
  <path class="cls-2" d="M38.79,37.89l-.14-.1c-.12-.07-.25-.11-.4-.11-.11,0-.21.02-.3.07-.1.03-.18.09-.25.16-.1.1-.16.21-.2.35,0,0,0,0,0,.01,0,.01-.03.19-.03.21,0,0,0,0,0,0,0,0,0,0,0,.01,0,.01.03.19.03.21,0,0,0,0,0,0,0,0,0,0,0,0,.01.03.05.12.04.1-.01-.03.03.07.04.1,0,0,0,0,0,0,0,0,0,0,0,0,.02.03.1.14.12.16,0,0,0,.01.02.02.02.02.14.11.16.12,0,0,0,0,0,0,0,0,0,0,.01,0,0,0,0,0,.01,0,0,0,0,0,0,0,.05.02.14.06.19.08,0,0,.01,0,.02,0,.04,0,.09.01.11.02.03,0,.08.01.11.01.04,0,.1-.01.13-.02.03,0,.09,0,.12-.02.07-.02.14-.05.21-.09,0,0,0,0,.01,0,.04-.03.12-.09.16-.12,0,0,0,0,0,0,0,0,.01-.01.02-.02.02-.03.05-.06.07-.09.02-.03.05-.06.07-.09,0,0,.01-.02.02-.03,0,0,.01-.02.01-.03.03-.07.06-.14.09-.22,0-.02.01-.04.02-.07.03-.1.04-.21.01-.31,0-.1-.04-.2-.09-.29-.05-.09-.12-.16-.2-.22-.08-.07-.16-.12-.27-.14l-.21-.03c-.14,0-.27.04-.4.11l-.16.12c-.1.1-.16.21-.2.35,0,.03-.02.06-.03.09l.08-.19s-.02.05-.04.07l.12-.16s-.02.02-.03.03l.16-.12s-.02.01-.03.02l.19-.08s-.02,0-.03,0l.21-.03s-.02,0-.03,0l.21.03s-.02,0-.04,0l.19.08s-.02-.01-.03-.02l.16.12s-.01-.01-.02-.02l.12.16s0-.01-.01-.02l.08.19s0-.01,0-.02l.03.21s0-.01,0-.02l-.03.21s0,0,0-.01l-1.15.47.14.1c.09.06.19.09.29.09.1.02.21.02.31-.01.1-.02.19-.07.27-.14.09-.06.15-.13.2-.22l.08-.19c.04-.14.04-.28,0-.42l-.08-.19c-.07-.12-.16-.21-.28-.28h0Z"/>
  <path class="cls-2" d="M42.16,38.72c-.37.03-.7.13-1.02.33-.26.16-.5.37-.7.59-.38.41-.69.88-1,1.34-.11.16-.13.42-.08.6s.19.38.36.47c.4.21.82.08,1.07-.28.19-.28.38-.56.58-.83l-.12.16c.2-.26.42-.51.69-.71l-.16.12c.12-.09.25-.17.38-.23l-.19.08c.11-.05.22-.08.34-.1l-.21.03s.03,0,.05,0c.21-.02.4-.07.55-.23.14-.14.24-.36.23-.55s-.08-.41-.23-.55c-.14-.13-.35-.25-.55-.23h0Z"/>
  <path class="cls-2" d="M41.42,41.24c.34-.45.64-.92.93-1.4.17-.29.13-.72-.12-.95-.1-.09-.22-.16-.35-.2-.17-.05-.46-.03-.6.08-.89.66-1.69,1.47-2.18,2.49-.09.19-.14.39-.08.6.05.18.19.38.36.47.35.18.88.11,1.07-.28.16-.33.35-.64.57-.93l-.12.16c.35-.45.76-.85,1.21-1.19l-.16.12s.08-.06.11-.09l-1.07-1.07c-.29.48-.59.96-.93,1.4-.11.15-.13.43-.08.6.05.18.19.38.36.47.18.1.4.14.6.08l.19-.08c.12-.07.21-.16.28-.28h0Z"/>
  <path class="cls-2" d="M37.8,38.45c-.07.2-.11.42-.14.63-.06.33.04.71.36.88s.68.12.95-.12c.56-.51.96-1.16,1.21-1.87.11-.31-.07-.73-.36-.88-.31-.16-.69-.13-.95.12-.7.69-1.09,1.62-1.13,2.6-.02.58.69.99,1.18.68.61-.39,1.04-1.27.99-1.99-.04-.56-.43-1.04-1.02-1.02-.53.02-.97.38-1.21.82-.46.84-.77,2.23.22,2.84.51.31,1.17.21,1.58-.21s.56-1.03.41-1.58c-.27-.99-1.55-1.44-2.42-.95-.47.26-.73.75-.77,1.28s.22.95.63,1.23c.61.42,1.52.41,2.2.2.95-.3,1.81-1.35,1.25-2.35s-2.11-.88-2.86-.14c-.56.55-.91,1.37-.97,2.14-.07.97.68,1.78,1.66,1.75.89-.03,1.72-.73,2.25-1.39.29-.36.57-.75.69-1.21.11-.41.11-.93-.13-1.3-.27-.43-.8-.57-1.27-.41-.38.13-.71.4-.99.69-.55.59-.94,1.27-.93,2.1,0,.39.1.8.39,1.07s.73.35,1.12.23c.64-.19,1.14-.74,1.53-1.25.35-.46.69-1.09.51-1.68-.16-.51-.68-.81-1.2-.67-.32.09-.6.31-.82.55-.5.54-.92,1.22-1.14,1.93-.1.32-.16.7-.04,1.02.13.39.54.68.96.55.38-.12.69-.55.55-.96-.05-.14,0,.07,0,.08,0-.04,0-.09,0-.12-.01-.11-.05.23,0,.06.01-.06.03-.11.04-.17.01-.05.03-.09.05-.14.01-.03.02-.06.03-.09.03-.09-.07.16-.03.08.06-.12.11-.24.18-.36.06-.11.12-.21.19-.32.03-.05.07-.11.11-.16.04-.06.2-.21.03-.04.07-.07.13-.16.2-.24.04-.04.07-.08.11-.11.03-.03.18-.15.05-.05s0,0,.03-.01c.12-.09-.17.06-.09.03.01,0,.02,0,.04,0-.21.05-.1.03-.24.01-.15-.02-.31-.11-.4-.23-.09-.11-.06-.07-.04-.04.05.07-.08-.23-.06-.13s-.02-.26-.02-.12,0-.06.02-.1c-.02.03-.02.08-.03.12s-.07.19,0,.03,0,0-.02.04c-.04.09-.09.17-.15.25-.03.04-.06.08-.09.13-.12.17.08-.09,0,0s-.14.16-.21.24c-.07.07-.14.14-.21.21-.04.03-.08.06-.11.1-.04.04-.11.05.08-.06-.03.02-.05.04-.08.05-.07.05-.14.08-.21.12-.11.07.21-.06.06-.03-.09.02-.2.02.08,0-.03,0-.05,0-.08,0,.17.01.15,0,.29.08-.12-.07.16.14.08.06-.06-.06.14.19.08.1-.02-.03-.05-.11,0,.03.07.16.02,0,0-.03-.03-.1,0,.22,0,.04,0-.06,0-.12,0-.18,0-.04.01-.29.01-.16,0,.12,0-.03.02-.07.01-.04.04-.09.04-.13-.02.16-.07.15-.03.09.01-.02.02-.05.03-.07.03-.06.06-.12.1-.17.03-.05.07-.11.11-.16.02-.03.05-.06.06-.09,0,0-.12.15-.04.06s.17-.19.26-.28c.04-.04.09-.08.13-.12.02-.02.04-.03.06-.05.07-.07-.17.12-.05.04.04-.03.08-.05.12-.08.02-.01.04-.02.06-.03.1-.06.04.04-.08.03.02,0,.09-.02.1-.03-.11.07-.28,0-.36-.03-.11-.05-.18-.1-.26-.23.04.07-.05-.03-.05-.12,0,0,.02.08.02.09-.01-.01,0-.22-.01-.1,0,.03,0,.06,0,.08,0,.05-.02.3,0,.12.01-.16-.02.03-.03.07,0,0-.03.07-.03.07-.01,0,.09-.2.01-.03-.06.11-.12.22-.19.32-.02.03-.05.07-.07.1-.05.09.1-.11.03-.04-.06.07-.11.14-.17.2-.1.11-.21.22-.32.32-.06.05-.12.1-.18.15-.07.07.12-.08.04-.03-.04.03-.08.06-.12.09-.1.07-.26.12-.35.2.1-.09.14-.05.07-.03-.03,0-.05.02-.08.03-.03,0-.06.02-.1.03-.13.04.04-.02.08,0-.01,0-.24,0-.08,0s-.09-.04-.11-.04c0,0,.2.07.08.03,0,0-.06-.04-.06-.04.05-.02.14.13.07.06-.11-.11.03.02.03.06,0-.02-.11-.22-.04-.05.06.14,0-.04-.01-.07-.03-.11,0,.21,0,.03,0-.06,0-.13,0-.19,0-.13,0,.09-.01.09,0,0,.01-.07.01-.08.01-.06.03-.12.05-.18s.04-.12.06-.18c0-.03.02-.05.03-.08-.04.19-.04.1-.01.03.05-.11.11-.21.17-.32.03-.05.07-.1.1-.15.11-.16-.11.12.01-.02.03-.03.06-.07.09-.1.05-.05.1-.08,0-.02.04-.03.08-.05.12-.08.03-.02.12-.09.03-.02s.03,0,.06-.02c.04-.01.08-.02.13-.03.1-.03-.2,0-.04,0,.03,0,.07,0,.1,0,.1,0,0,.05-.07-.01.01,0,.07.02.09.02.2.06-.13-.05.03.01.03.01.12.07,0,0-.15-.09.08.11-.03-.03-.08-.1-.03-.03,0,0,.05.09-.07-.2-.03-.06.02.06,0,.13-.01-.09,0,.09-.04,0,.02-.09,0,0-.02.08-.02.09-.03-.05.08-.15.02-.05,0,0-.09.16-.03.06.06-.1-.04.04-.06.06-.04.04-.08.07-.11.1-.06.06.17-.11.09-.07-.04.02-.08.05-.12.07-.15.09.15-.04.03-.01-.06.02-.11.04-.17.06-.06.02-.11.03-.17.04-.03,0-.05,0-.08.01-.1.02.22-.02.07,0-.12,0-.24.02-.36.01-.05,0-.11-.02-.16-.01.17-.02.17.03.08,0-.02,0-.05,0-.07-.01-.05-.01-.1-.03-.16-.04-.07-.02-.03-.07.09.04-.02-.01-.07-.04-.09-.04-.15-.07.1.11.03.03,0-.01-.03-.03-.04-.04-.1-.07.11.15.06.08-.11-.15.04.13.01.03-.02-.09.04.02.01.11,0-.02,0-.08,0-.1,0-.11-.05.2,0,.02s-.06.1,0,0c.07-.12-.12.1-.04.05.02-.01.04-.03.05-.05.06-.08-.16.13-.05.05.02-.02.14-.07,0,0-.17.08.08,0,.09-.01-.02.02-.21,0-.09.02.02,0,.06,0,.08,0,.11-.01-.07,0-.09-.02.02.01.07.01.09.02.02,0,.05.02.07.02.07,0-.18-.1-.05-.02.02.01.04.03.07.04.1.05-.02.05-.05-.04,0,.01.05.05.05.05.07.08-.06-.06-.05-.07,0,0,.04.05.04.06.03.13-.03-.1-.03-.08,0,.01.02.08.03.09.03.07,0-.19-.01-.06,0,.05.03.13,0,.04-.03-.08.01-.03-.01.03-.07.15.02-.03.01-.03,0,0-.05.09-.05.08,0-.01.13-.15.04-.06s.05-.04.06-.04c-.02.02-.05.03-.07.04.13-.05.16-.06.08-.04l.13-.02s-.05,0-.07,0h.14c-.06,0-.05,0,.02.03.18.05-.08-.05.07.04l.05.03c-.05-.06-.04-.04.04.05,0,0-.05-.1-.05-.09,0,0,.06.14.03.05-.03-.1.02.11.01.11,0,0,0-.1,0-.11,0-.03,0-.06,0-.08,0-.12,0,.06-.01.07.02-.06.03-.15.04-.22,0-.04.12-.48.15-.47,0,0-.08.18-.02.05.01-.03.03-.06.04-.09.03-.06.07-.11.1-.17.04-.08-.12.12-.05.07.01-.01.05-.05.06-.06,0-.01-.17.18-.07.06.04-.04.22-.07-.05.01.16-.05-.14,0-.07,0-.15,0-.3-.05-.42-.18l-.1-.13s.02.02-.02-.06c-.06-.13-.03-.08-.02-.04.02.08,0-.24-.02-.12,0,.02,0,.05,0,.07,0,.02,0,.05,0,.08,0,0,.04-.22.01-.11-.01.05-.02.09-.03.14-.02.06-.03.11-.05.16-.01.03-.05.12,0,0,.06-.13,0,0-.02.03-.03.07-.16.21-.16.28,0-.1.12-.14.06-.08-.02.02-.03.03-.04.05-.02.02-.04.03-.06.05-.06.07.18-.13.08-.06l1.18.68s.03-.32,0-.13c.01-.09.03-.18.05-.27s.05-.17.07-.26c.01-.04.03-.08.05-.13-.03.07-.04.08-.01.03.08-.15.15-.3.25-.44.03-.04.05-.07.08-.11-.05.07-.05.07,0,0,.06-.07.12-.13.19-.2l-1.31-.76c-.02.07-.05.13-.07.19.06-.16-.02.03-.03.06-.07.13-.14.26-.22.38-.01.02-.13.19-.08.12s-.07.09-.09.11c-.1.11-.2.22-.31.32l1.31.76c.04-.21.07-.42.14-.63.13-.39-.15-.87-.55-.96-.43-.1-.82.13-.96.55h0Z"/>
  <path class="cls-2" d="M42.56,42.17v.02c.03-.05.07-.11.11-.16-.37.47-.79.9-1.24,1.3-.15.13-.23.37-.23.55s.09.42.23.55.35.24.55.23l.21-.03c.13-.04.25-.1.35-.2.23-.2.46-.41.67-.64.26-.27.49-.55.71-.84.06-.09.09-.19.09-.29.02-.1.02-.21-.01-.31-.05-.18-.19-.38-.36-.47-.18-.1-.4-.14-.6-.08l-.19.08c-.12.07-.21.16-.28.28h0Z"/>
  <path class="cls-2" d="M43.64,42.58c-.56.68-1.19,1.29-1.88,1.84-.14.11-.24.38-.23.55s.06.33.17.47c.24.31.67.4,1.01.2.54-.3,1.07-.67,1.48-1.13.5-.56.81-1.21.86-1.97.02-.33-.26-.68-.58-.76s-.73.04-.88.36c-.12.25-.25.48-.42.7-.01.02-.08.11-.01.02s0,0-.02.02c-.04.05-.08.1-.13.15-.09.1-.19.2-.29.3-.19.18-.39.36-.59.52-.05.04-.1.08-.15.12-.02.02-.14.11-.04.03.09-.07,0,0-.02.01-.11.08-.22.17-.33.25l.95,1.23c.48-.38.96-.76,1.37-1.21.49-.53.87-1.12,1.13-1.8.12-.31-.07-.73-.36-.88-.3-.16-.7-.14-.95.12-.41.43-.85.84-1.32,1.21-.03.02-.06.04-.08.07-.08.07.12-.09.03-.02-.06.04-.11.09-.17.13-.12.09-.25.18-.37.26-.25.17-.51.33-.77.48-.35.21-.51.72-.28,1.07s.69.5,1.07.28c1.22-.7,2.59-1.61,2.89-3.1.08-.39-.08-.77-.45-.92s-.74,0-.98.32c-.02.03-.04.06-.06.09-.05.07-.04.06.03-.03-.02.04-.07.09-.1.12-.08.1-.16.19-.24.28-.15.17-.31.34-.47.5s-.33.32-.51.47c-.09.07-.19.18-.29.23.17-.09.04-.03,0,0-.06.04-.11.08-.17.13-.17.12-.3.26-.36.47-.05.19-.03.44.08.6.21.33.72.54,1.07.28.92-.66,1.71-1.45,2.39-2.36l-1.43-.6c-.02.08-.03.16-.06.23-.01.03-.02.07-.03.1-.02.06-.09.16.02-.03-.07.12-.12.25-.2.37-.02.04-.05.07-.07.1-.02.02-.1.13-.01.02s0,0-.02.02c-.03.03-.06.06-.08.1-.1.11-.21.22-.32.32-.05.05-.11.09-.17.14-.03.02-.06.04-.09.07.17-.15.06-.05.02-.02-.12.09-.25.18-.38.26-.25.16-.51.32-.78.47l.79,1.35c1.1-.64,2.12-1.45,2.99-2.38l-1.31-.76s-.02.06-.04.09c-.06.16.06-.12.01-.03-.03.07-.06.13-.1.2-.06.12-.14.24-.21.36-.04.06-.08.12-.13.18-.06.08.01-.02.03-.04-.03.03-.05.06-.08.09-.09.11-.19.22-.29.33-.4.42-.85.78-1.31,1.14-.14.11-.24.38-.23.55s.06.33.17.47c.22.28.7.43,1.01.2.99-.74,2.01-1.54,2.55-2.68l-1.46-.4s0,.06,0,.09c0-.21.02-.12,0-.05-.01.06-.02.12-.04.17-.02.06-.04.12-.06.19-.03.1.02-.05.03-.07-.02.03-.03.07-.05.1-.06.11-.12.21-.19.31-.02.02-.04.05-.05.07.12-.18.06-.08.03-.04-.04.05-.09.1-.13.15-.09.09-.18.18-.27.26-.05.04-.1.09-.15.13-.08.07.03-.03.05-.04-.02.02-.05.04-.07.05-.21.15-.43.29-.66.42l.95,1.23c.69-.55,1.32-1.16,1.88-1.84.14-.16.23-.33.23-.55,0-.19-.09-.42-.23-.55-.29-.27-.83-.34-1.11,0h0Z"/>
  <path class="cls-2" d="M35.96,41.75c.8.85,1.66,1.64,2.53,2.42s1.71,1.64,2.73,2.17c.38.19.85.1,1.07-.28.21-.35.1-.88-.28-1.07-.92-.48-1.68-1.28-2.48-1.99-.85-.75-1.68-1.53-2.46-2.35-.29-.31-.81-.29-1.11,0s-.29.8,0,1.11h0Z"/>
  <path class="cls-2" d="M41.56,39.2c.66.68,1.33,1.34,1.97,2.04.14.15.29.31.42.47.06.08.13.15.19.23.03.04.06.08.01.02.04.05.07.1.11.15.12.17.24.35.34.53.05.09.09.17.14.26.1.19,0-.06.02.03.02.07,0-.16,0-.17l.2-.35-.03.04c-.27.31-.33.81,0,1.11.29.27.82.33,1.11,0,.51-.6.2-1.25-.15-1.84-.28-.46-.62-.88-.97-1.29-.71-.81-1.49-1.57-2.25-2.34-.29-.29-.82-.31-1.11,0s-.31.79,0,1.11h0Z"/>
  <path class="cls-2" d="M39.24,40.83c-.28.35-.54.7-.77,1.08-.21.33-.1.78.2,1.01.28.22.78.24,1.03-.06.09-.11.18-.22.27-.33l-1.23-.95c-.11.24-.25.47-.4.69-.22.32-.09.79.2,1.01s.75.22,1.03-.06c1.04-1.07,2.07-2.13,3.11-3.2.29-.29.31-.82,0-1.11s-.8-.31-1.11,0c-1.04,1.07-2.07,2.13-3.11,3.2l1.23.95c.15-.22.28-.45.4-.69.17-.36.12-.76-.2-1.01-.28-.22-.78-.24-1.03.06-.09.11-.18.22-.27.33l1.23.95c.09-.15.19-.3.29-.45.05-.06.09-.13.14-.19.01-.02.12-.15.05-.06s.05-.06.05-.06c.13-.17.23-.33.23-.55,0-.19-.09-.42-.23-.55-.28-.26-.83-.34-1.11,0h0Z"/>
  <path class="cls-2" d="M43.62,41.09c-1.02.99-2.01,2.01-2.97,3.06-.28.3-.32.81,0,1.11.3.28.81.32,1.11,0,.96-1.05,1.95-2.07,2.97-3.06.3-.29.31-.83,0-1.11s-.79-.3-1.11,0h0Z"/>
  <path class="cls-2" d="M37.94,35.6c-.09-.17-.19-.35-.31-.5-.1-.13-.19-.25-.31-.36-.02-.02-.04-.03-.06-.05-.06-.05-.13-.11-.2-.15-.13-.07-.28-.12-.43-.12-.08,0-.16,0-.23.03-.14.04-.19.08-.29.15-.11.08-.12.09-.21.23,0,.01-.01.02-.02.03-.02.04-.08.16-.1.24-.05.21-.04.34,0,.54,0,.05.02.09.04.13.04.1.08.21.14.31.06.09.12.18.19.26.12.13.26.2.43.26s.34.05.5,0c0,0,.02,0,.03,0,.06-.02.14-.06.2-.08.08-.04.15-.09.21-.15.17-.17.26-.4.26-.63,0-.2-.06-.35-.15-.53-.02-.05-.05-.1-.08-.14-.07-.09-.14-.19-.22-.28-.2-.2-.49-.28-.76-.2-.13.04-.25.1-.35.2-.1.1-.16.21-.2.35-.04.1-.05.22-.05.32,0,.05,0,.11.02.16,0,.06.01.11.03.17.02.1.07.19.14.27.06.09.13.15.22.2.09.06.19.09.29.09.1.02.21.02.31-.01l.19-.08c.12-.07.21-.16.28-.28l.08-.19c.04-.14.04-.28,0-.42,0-.02-.01-.04-.01-.06l.03.21s0-.06,0-.09l-.03.21s.01-.05.02-.08l-1.31.35s.06.06.09.1l-.12-.16c.04.06.08.12.11.19l-.08-.19s.02.06.03.09l-.03-.21s0,.02,0,.03l.03-.21s0,.02,0,.03l.08-.19s0,.02-.01.02l.12-.16s-.02.02-.03.03l.16-.12s-.02.01-.03.02l.19-.08s-.02,0-.04.01l.21-.03s-.03,0-.05,0l.21.03s-.03,0-.04-.01l.19.08s-.03-.02-.05-.03l.16.12s-.05-.04-.07-.07l.12.16c-.04-.05-.07-.12-.1-.18l.08.19s-.03-.09-.04-.14l.03.21s0-.07,0-.1l-.03.21s.01-.05.02-.07l-.08.19s.01-.02.02-.03l-.12.16h0c-.05.03-.11.07-.16.11h0c-.06.02-.12.05-.19.07,0,0,.01,0,.02,0l-.21.03h.01c-.07,0-.14-.02-.21-.03.01,0,.02,0,.03,0l-.19-.08s.03.02.04.03l-.16-.12c.09.07.17.16.24.25l-.12-.16c.12.16.22.33.31.5.05.09.12.16.2.22.08.07.16.12.27.14.1.03.21.04.31.01.1,0,.2-.04.29-.09l.16-.12c.1-.1.16-.21.2-.35l.03-.21c0-.14-.04-.27-.11-.4h0Z"/>
  <path class="cls-2" d="M33.61,33.17c-.28-.48-.63-.93-1.04-1.31-.3-.28-.81-.32-1.11,0-.14.15-.24.35-.23.55s.09.39.23.55c.29.35.68.58,1.1.73.16.06.36.02.51-.04s.3-.17.37-.32c.07-.12.1-.26.11-.4,0-.21-.1-.4-.23-.55-.36-.43-.76-.82-1.2-1.16-.16-.13-.33-.24-.55-.23-.18,0-.33.06-.47.17-.13.1-.24.24-.28.41-.04.19-.04.44.08.6.23.3.49.57.84.75s.71.27,1.1.28c.31,0,.6-.2.72-.48.06-.13.07-.26.05-.41-.02-.16-.09-.35-.22-.45-.47-.38-.94-.77-1.42-1.15-.17-.14-.33-.23-.55-.23-.19,0-.42.09-.55.23-.27.3-.33.82,0,1.11.42.37.88.63,1.4.81.18.06.45.02.6-.08.15-.09.25-.21.32-.37s.09-.34.04-.51c-.07-.21-.19-.34-.36-.47-.3-.23-.62-.44-.96-.63-.36-.2-.87-.1-1.07.28s-.09.84.28,1.07c.63.38,1.34.65,2.07.76.22.03.41.04.6-.08.16-.1.32-.28.36-.47.05-.2.04-.43-.08-.6-.1-.16-.27-.33-.47-.36-.42-.06-.83-.18-1.23-.34l.19.08c-.23-.1-.45-.21-.66-.34l-.79,1.35c.33.19.65.4.96.63l.6-1.43c-.07-.03-.15-.05-.22-.08l.19.08c-.24-.1-.47-.24-.68-.4l.16.12c-.05-.04-.1-.08-.15-.13l-1.11,1.11c.47.38.94.77,1.42,1.15l.55-1.34c-.07,0-.14,0-.21-.01l.21.03c-.13-.02-.25-.05-.38-.1l.19.08c-.13-.06-.25-.13-.37-.21l.16.12c-.1-.08-.2-.17-.28-.28l.12.16-.02-.03-1.23.95c.44.34.84.73,1.2,1.16l.76-1.31s-.07-.03-.1-.04l.19.08c-.14-.06-.27-.13-.39-.23l.16.12c-.1-.08-.19-.16-.27-.26l-1.11,1.11c.2.18.38.38.54.58l-.12-.16c.14.18.26.37.38.56.2.36.72.51,1.07.28s.5-.69.28-1.07h0Z"/>
  <path class="cls-2" d="M27.46,27.84c4.34,2.5,7.84,6.12,11.3,9.7.88.91,2.26-.48,1.38-1.38-3.57-3.69-7.21-7.42-11.69-10-1.09-.63-2.08,1.06-.99,1.69h0Z"/>
  <path class="cls-2" d="M44.79,46.02c.57-.57,1.09-1.18,1.58-1.81.26-.34.58-.73.44-1.19-.06-.19-.17-.36-.32-.49-.05-.04-.09-.08-.14-.12,0,0-.08-.08-.08-.08.02,0,.08.13.01,0-.14-.27-.54-.38-.8-.21-.28.18-.37.51-.21.8.07.13.17.24.28.34.05.04.09.08.14.12,0,0,.04.05.05.05l-.05-.07s.02.04,0-.01c-.02-.05-.02-.05-.01-.02.01.04,0,.02,0-.07,0,0,.02-.12.03-.12,0,0-.11.17-.13.19-.05.07-.1.13-.15.2-.03.04-.06.07-.08.11-.06.08.08-.1-.03.03-.42.53-.87,1.04-1.35,1.52-.22.22-.23.62,0,.83s.6.23.83,0h0Z"/>
  <path class="cls-2" d="M45.41,43.23c.15.17.33.32.52.43.11.07.25.09.37.07s.25-.07.34-.16c.07-.08.12-.16.15-.26.05-.14.01-.32-.06-.45-.24-.44-.56-.85-.92-1.2-.11-.11-.26-.17-.42-.17-.14,0-.32.06-.42.17s-.18.26-.17.42.06.31.17.42c.16.15.31.32.44.49l-.09-.12c.14.19.27.38.38.58l.8-.8c-.06-.03-.11-.07-.17-.11l.12.09c-.09-.07-.17-.14-.24-.23-.09-.11-.28-.17-.42-.17s-.32.06-.42.17-.18.26-.17.42l.02.16c.03.1.08.19.15.26h0Z"/>
  <path class="cls-2" d="M30.73,17.18c-2.38-.18-4.55-1.21-6.24-2.89-1.41-1.4-2.73-2.97-4.84-3.16-1.97-.18-3.83.87-4.85,2.54-.59.98-.63,2-.92,3.07-.31,1.13-1.39,1.73-2.34,2.27-.74.42-.32,1.37.4,1.46,1.32.16,2.68.42,3.17,1.81.44,1.25.77,2.5,1.39,3.69s1.36,2.23,2.32,3.09c.69.62,1.76,1.67,2.74,1.22.33-.15.42-.57.36-.88v-.06c-.19-.99-1.71-.57-1.52.42v.06c.13-.29.25-.59.37-.88.43-.04.47-.12.11-.25-.16-.1-.31-.2-.46-.31-.24-.18-.47-.39-.69-.6-.49-.48-.92-1.01-1.3-1.59-.69-1.07-1.2-2.25-1.57-3.48-.33-1.1-.62-2.12-1.62-2.81s-2.17-.84-3.31-.98l.4,1.46c.82-.47,1.66-.97,2.27-1.71.72-.86.8-1.8,1.03-2.85.46-2.09,2.54-3.72,4.7-2.92,1.85.68,3.01,2.71,4.58,3.83,1.71,1.23,3.73,1.89,5.82,2.05,1.01.08,1-1.49,0-1.57h0Z"/>
  <path class="cls-2" d="M21.68,29.1c-.08-.03-.17-.05-.25-.08-.04-.01-.07-.03-.11-.04-.02,0-.04-.01-.05-.02-.05-.02-.04-.01.05.02,0,0-.19-.1-.2-.11-.02-.01-.16-.09-.06-.03.09.05-.04-.03-.05-.05l-.55,1.34c.61.07,1.22.13,1.83.2.66.07,1.3.1,1.96-.01.4-.07.67-.59.55-.96-.14-.44-.53-.62-.96-.55-.09.01-.09.02,0,0-.03,0-.07,0-.1.01-.07,0-.14.01-.21.01-.15,0-.3,0-.45,0-.29-.01-.57-.04-.86-.07-.59-.06-1.18-.13-1.77-.19-.3-.03-.61.22-.72.48-.12.28-.07.64.16.86.39.36.87.55,1.37.71.39.13.87-.15.96-.55.1-.43-.13-.83-.55-.96h0Z"/>
  <path class="cls-2" d="M18.62,17.32c1.01,0,1.01-1.57,0-1.57s-1.01,1.57,0,1.57h0Z"/>
</svg>