<?xml version="1.0" encoding="UTF-8"?>
<svg id="Layer_1" data-name="Layer 1" xmlns="http://www.w3.org/2000/svg" viewBox="0 0 60 60">
  <defs>
    <style>
      .cls-1 {
        fill: none;
        stroke: #ec1e31;
        stroke-miterlimit: 10;
        stroke-width: 2.43px;
      }

      .cls-2 {
        fill: #ec1e31;
      }
    </style>
  </defs>
  <path class="cls-1" d="M20.21,2C9.99,2.17,1.84,10.66,2,20.97c.17,10.31,8.59,18.53,18.81,18.36,10.22-.17,18.38-8.66,18.21-18.96-.17-10.31-8.59-18.53-18.81-18.36ZM26.56,21.6c-.34.28-.64.46-1.05.61-.1.04-.21.07-.32.1-.27.14-.55.25-.85.3-.5.1-1.01.1-1.51,0-.09.02-.19.04-.28.04-.09.04-.18.08-.27.1-.28.06-.51.07-.79,0-.25-.06-.47-.2-.67-.38-.1-.09-.17-.2-.25-.3-.03-.04-.05-.07-.07-.11-.06-.12-.12-.26-.16-.39-.04-.14-.05-.31-.07-.44-.02-.23.01-.45.05-.68.02-.11.04-.23.08-.34-.02-.4.05-.81.28-1.15.22-.33.52-.59.91-.69.04,0,.07-.01.11-.02.28-.31.63-.56,1.05-.72,1.28-.49,3.13.06,3.76,1.35.21.43.28.9.22,1.35.1.18.17.39.17.58,0,.26-.12.62-.33.79Z"/>
  <path class="cls-2" d="M50.27,57.04c.71.61,1.42,1.22,2.14,1.82.11.12.24.2.39.25.15.08.3.11.47.1.3,0,.65-.13.86-.36s.37-.54.36-.86c-.01-.31-.11-.66-.36-.86-.72-.6-1.43-1.21-2.14-1.82-.25-.21-.53-.36-.86-.36-.3,0-.65.13-.86.36s-.37.54-.36.86.11.65.36.86h0Z"/>
  <path class="cls-2" d="M31.34,36.7c4.72,6.24,9.94,12.06,15.66,17.4,1.14,1.07,2.87-.65,1.72-1.72-5.56-5.19-10.69-10.84-15.28-16.9-.4-.53-1.05-.79-1.66-.44-.52.3-.83,1.14-.44,1.66h0Z"/>
  <path class="cls-2" d="M54.64,52.66c.27.33.53.66.79.99l-.19-.25c.06.07.11.15.17.22.08.14.18.26.31.34.12.11.26.18.41.22.16.05.32.06.49.02.16,0,.31-.06.45-.14l.25-.19c.15-.15.26-.33.31-.54l.04-.32c0-.22-.06-.42-.17-.61-.38-.49-.76-.98-1.15-1.46-.11-.12-.24-.2-.39-.25-.15-.08-.3-.11-.47-.1-.17,0-.32.03-.47.1-.15.05-.28.13-.39.25-.21.23-.37.54-.36.86l.04.32c.06.21.16.39.31.54h0Z"/>
  <path class="cls-2" d="M33.97,35.39c6.99,3.6,12.81,8.91,18.21,14.55,1.09,1.13,2.8-.59,1.72-1.72-5.53-5.78-11.54-11.24-18.7-14.93-1.39-.72-2.62,1.38-1.23,2.1h0Z"/>
  <path class="cls-2" d="M53.93,59.01c1.47-1.09,2.72-2.4,3.69-3.95.34-.54.13-1.36-.44-1.66-.6-.32-1.3-.14-1.66.44-.22.35-.46.7-.71,1.03l.19-.25c-.67.86-1.44,1.64-2.31,2.31l.25-.19c-.08.06-.16.12-.24.18-.26.19-.47.4-.56.73-.08.29-.04.68.12.94s.42.49.73.56.68.07.94-.12h0Z"/>
  <path class="cls-2" d="M56.32,54.74l.03.02.29.12c.16.05.32.06.49.02.11,0,.21-.03.31-.08.15-.05.28-.13.39-.25l.19-.25.12-.29c.05-.16.06-.32.02-.49,0-.16-.06-.31-.14-.45-.04-.07-.08-.13-.12-.19-.11-.14-.21-.28-.33-.42-.11-.12-.24-.2-.39-.25-.15-.08-.3-.11-.47-.1-.17,0-.32.03-.47.1-.15.05-.28.13-.39.25l-.19.25c-.11.19-.17.39-.17.61l.04.32c.06.21.16.39.31.54.06.08.12.16.18.24l-.19-.25s.02.03.03.05l-.12-.29s0,.02,0,.03l-.04-.32s0,.02,0,.03l.04-.32s0,0,0,.01l.12-.29s0,.01,0,.02l.19-.25s0,0,0,0l.25-.19h0c-.14.08-.26.18-.34.32-.11.12-.18.26-.22.41-.05.16-.06.32-.02.49,0,.16.06.31.14.45l.19.25c.15.15.33.26.54.31l.32.04c.22,0,.42-.06.61-.17.26-.19.27-.18.45-.45.03-.05.06-.13.07-.16.1-.23.08-.16.11-.49,0,0,0-.01,0-.02-.02-.27-.05-.42-.18-.66,0,0,0-.02-.02-.02-.07-.09-.14-.18-.21-.27-.06-.07-.12-.15-.18-.22l-1.72,1.72s.08.1.12.15l-.19-.25c.05.07.1.14.14.21l1.66-1.66-.03-.02c-.14-.09-.29-.14-.45-.14-.16-.04-.32-.03-.49.02-.16.04-.3.11-.41.22-.13.09-.24.2-.31.34l-.12.29c-.06.22-.06.43,0,.65l.12.29c.11.18.25.33.44.44h0Z"/>
  <path class="cls-2" d="M57.89,52.92l-.04-.07c-.08-.14-.18-.26-.31-.34-.12-.11-.26-.18-.41-.22-.16-.05-.32-.06-.49-.02-.16,0-.31.06-.45.14l-.25.19c-.15.15-.26.33-.31.54l-.04.32c0,.22.06.42.17.61l.04.07c.08.14.18.26.31.34.12.11.26.18.41.22.16.05.32.06.49.02.16,0,.31-.06.45-.14l.25-.19c.15-.15.26-.33.31-.54l.04-.32c0-.22-.06-.42-.17-.61h0Z"/>
  <path class="cls-2" d="M57.17,52.82s.07.07.1.11l-.04-.05s.03.05.05.07c.02.03.04.05.06.07.02.02.05.04.08.04.03.01.06.01.1,0,.03,0,.06-.01.09-.03l.05-.04s.05-.07.06-.11v-.06s0-.08-.02-.12c-.02-.05-.05-.09-.08-.14-.04-.06-.09-.12-.13-.17-.02-.02-.05-.04-.08-.05-.03-.02-.06-.02-.09-.02-.03,0-.06,0-.09.02-.03,0-.06.03-.08.05l-.04.05s-.03.08-.03.12v.06s.04.08.07.11c.02.02.04.04.06.07l-.04-.05c.05.06.09.12.12.19l.42-.25c-.03-.05-.07-.1-.11-.14-.03-.03-.05-.06-.08-.09-.02-.02-.05-.04-.08-.05-.03-.02-.06-.02-.09-.02-.03,0-.06,0-.09.02-.03,0-.06.03-.08.05l-.04.05s-.03.08-.03.12v.06s.04.08.07.11h0Z"/>
  <path class="cls-2" d="M57.13,52.76s.03.02.05.03l-.05-.04c.09.07.18.16.25.25l.34-.34c-.05-.06-.1-.11-.15-.16-.07-.07-.14-.13-.21-.18-.03-.03-.07-.05-.1-.07l-.25.42c.05.03.1.06.15.1l-.05-.04c.07.06.14.13.2.2l-.04-.05s.06.09.09.13c.02.03.04.05.06.07.02.02.05.04.08.04.03.01.06.01.1,0,.03,0,.06-.01.09-.03l.05-.04s.05-.07.06-.11v-.06s0-.08-.02-.12c-.02-.04-.04-.07-.07-.1-.04-.05-.07-.1-.11-.14-.07-.08-.15-.14-.23-.2-.04-.03-.08-.05-.12-.07-.03-.02-.06-.03-.09-.03-.03,0-.06,0-.1,0-.03,0-.06.02-.08.04-.03.02-.05.04-.06.07l-.02.06s-.01.09,0,.13l.02.06s.05.07.09.09c.04.02.07.05.11.07l-.05-.04c.11.09.21.2.3.3.02.02.05.04.08.05.03.02.06.02.09.02.03,0,.06,0,.09-.02.03,0,.06-.03.08-.05l.04-.05s.03-.08.03-.12v-.06s-.04-.08-.07-.11c-.1-.13-.22-.23-.35-.32-.03-.02-.06-.03-.09-.03-.03,0-.06,0-.1,0-.03,0-.06.02-.08.04-.03.02-.05.04-.06.07l-.02.06s-.01.09,0,.13l.02.06s.05.07.09.09h0Z"/>
  <path class="cls-2" d="M57.38,54.55s-.03.04-.05.07l.04-.05s-.07.08-.1.11l.38.29c.15-.2.31-.41.41-.64.02-.05.04-.1.06-.15,0-.02.01-.04.02-.06,0-.04.01-.08.01-.11,0-.03,0-.06-.02-.09,0-.03-.03-.06-.05-.08-.04-.04-.11-.07-.17-.07s-.13.02-.17.07c-.04.04-.08.11-.07.17,0,.01,0,.03,0,.04v-.06s-.02.09-.04.14l.02-.06c-.1.24-.26.45-.42.66-.02.03-.03.06-.03.09,0,.03,0,.06,0,.1.02.05.04.09.09.13s.09.05.15.05c.07,0,.12-.03.17-.07.07-.07.13-.14.19-.23.03-.05.04-.13.02-.19s-.06-.12-.11-.15c-.06-.03-.12-.04-.19-.02s-.11.06-.15.11h0Z"/>
  <path class="cls-2" d="M57.68,53.81c-.03.05-.05.1-.06.16-.01.06-.01.13.02.19.03.05.07.08.12.1.1.04.25,0,.3-.1l.09-.17c.03-.06.04-.12.02-.19-.02-.06-.06-.12-.11-.15-.06-.03-.12-.04-.19-.02-.06.02-.12.06-.15.11-.06.11-.11.22-.14.34v.06s0,.06.01.09c.02.05.05.09.1.12.04.02.08.03.12.03.06,0,.13-.03.17-.07.1-.09.17-.22.2-.34.01-.06,0-.13-.02-.19-.03-.05-.09-.1-.15-.11-.06-.01-.13-.01-.19.02l-.05.04s-.05.07-.06.11l-.08.21c-.02.05,0,.14.02.19s.07.08.12.1.11.03.16.01c.06-.02.12-.06.15-.11.05-.11.1-.22.13-.33.01-.04.02-.09.02-.13s0-.08,0-.13c0-.06-.04-.12-.07-.18-.09-.18-.21-.35-.36-.49-.04-.04-.11-.07-.17-.07s-.13.03-.17.07-.07.11-.07.17.02.13.07.17c.05.05.1.1.14.16l-.04-.05c.08.1.15.21.2.32l-.02-.06s.02.06.02.09v-.06s0,.04,0,.07v-.06c0,.08-.04.16-.07.23l.02-.06s-.03.07-.05.1l.44.19.08-.21-.47-.13s-.01.06-.03.08l.02-.06s-.03.07-.06.1l.04-.05s-.03.04-.05.06l.41.24s.03-.1.05-.15l-.02.06s.04-.09.06-.13l-.42-.25-.09.17.44.19s.01-.05.02-.08l-.02.06s0-.02.01-.02c.03-.06.04-.12.02-.19-.02-.06-.06-.12-.11-.15-.06-.03-.12-.04-.19-.02-.06.02-.12.06-.15.11h0Z"/>
  <path class="cls-2" d="M57.6,53.64v.06c0,.06.03.13.07.17s.11.07.17.07.13-.02.17-.07l.04-.05s.03-.08.03-.12c0-.06,0-.11,0-.17,0-.03-.02-.06-.04-.08-.02-.03-.04-.05-.07-.06l-.06-.02s-.06-.01-.1,0c-.02,0-.04,0-.06.02-.03,0-.06.03-.08.05-.04.05-.07.11-.07.17,0,.06.01.09.04.15,0,.01.02.02.03.04s.02.03.03.04c.03.03.07.05.11.06.04.01.09.01.13,0,.08-.02.14-.09.17-.17.02-.05.02-.11.02-.16h-.49s0,.08.02.11.03.07.05.1l.04.05s.05.04.08.05c.02.01.04.02.06.02.03,0,.06,0,.1,0,.04-.01.08-.03.11-.06.02-.02.04-.05.05-.08.02-.03.02-.06.02-.09,0-.04,0-.08.01-.12l-.48.06s.01.08.02.12l.02.06s.04.05.06.07c.04.03.09.05.15.05.04,0,.08-.01.12-.03.03-.02.05-.04.07-.06.02-.02.04-.05.04-.08,0-.04.02-.08.01-.12,0-.03,0-.06-.01-.08,0-.03-.02-.06-.03-.08l-.04-.05s-.05-.04-.08-.05c-.02-.01-.04-.02-.06-.02-.03,0-.06,0-.1,0-.04.01-.08.03-.11.06-.02.02-.04.05-.05.08-.02.03-.02.06-.02.09,0,.08.02.15.05.22,0,.03.02.06.04.08.02.03.04.05.07.06.05.03.13.04.19.02s.12-.06.15-.11l.02-.06s.01-.09,0-.13c-.02-.12-.06-.23-.1-.35s-.12-.21-.19-.3c-.02-.02-.05-.04-.08-.05-.03-.02-.06-.02-.09-.02h-.06s-.06.03-.08.05c-.04.03-.08.08-.09.13v.06s0,.08.02.12c.07.09.14.19.19.3l-.02-.06s.03.09.04.14v-.06s0,.08,0,.13v-.06s0,.07-.02.1l.02-.06s-.02.05-.04.07l.04-.05s-.01.01-.02.02c-.04.05-.07.11-.07.17,0,.06.03.13.07.17s.11.07.17.07.13-.02.17-.07c.06-.07.11-.14.13-.23.01-.04.02-.09.02-.14,0-.03,0-.05,0-.08,0-.07-.02-.15-.04-.22-.03-.08-.06-.15-.1-.22-.04-.06-.08-.11-.12-.17l-.38.29s.01.01.02.02l-.04-.05c.06.08.11.16.14.24l-.02-.06c.04.09.06.18.08.28l.47-.13s-.03-.09-.04-.13v.06s0-.01,0-.02l-.45.12h0s-.02-.03-.02-.05c0,.01,0,.03.01.04v-.06s0,.03,0,.04v-.06s0,0,0,.01h.47s-.01-.08-.02-.12c0-.03-.02-.06-.04-.08-.02-.03-.04-.05-.07-.06l-.06-.02s-.06-.01-.1,0c-.02,0-.04,0-.06.02-.03,0-.06.03-.08.05l-.04.05s-.03.08-.03.12c0,.04,0,.08-.01.12l.45-.12s-.02-.02-.02-.04l.02.06s0-.03-.01-.04v.06s0,0,0,0c0-.03,0-.06-.02-.09,0-.03-.03-.06-.05-.08-.04-.04-.11-.07-.17-.07s-.13.02-.17.07-.07.11-.07.17c0,.01,0,.03,0,.04v-.06s0,.04,0,.05l.41-.11s0,0-.01-.01l.04.05s0,0,0-.02l.02.06s0-.01,0-.02v.06s0,0,0,0l-.48.06h0s0-.04,0-.06c0,.03,0,.07,0,.1h.49v-.06c0-.06-.03-.13-.07-.17s-.11-.07-.17-.07-.13.02-.17.07-.07.11-.07.17h0Z"/>
  <path class="cls-2" d="M36.18,36.44c-.43-.62-1.02-1.08-1.76-1.26-.67-.16-1.46.47-1.2,1.2.23.65.63,1.18,1.23,1.55.35.22.9.16,1.18-.15.31-.33.35-.78.15-1.18-.26-.51-.7-.96-1.22-1.21-.36-.18-.75-.18-1.08.08-.28.22-.49.66-.35,1.02.21.57.5,1.06.9,1.51.17.19.36.35.56.51.23.18.53.42.82.48l-.71-.94v.03c.05-.16.09-.33.13-.49l.11-.14.95-.25h-.03c.19.14.39.29.58.44l-.03-.05.13.49c-.04.21-.04.16.01-.14.01-.05.01-.11,0-.16,0-.16-.04-.33-.09-.49-.09-.27-.23-.5-.4-.73-.31-.41-.85-.66-1.33-.35-.42.27-.66.88-.35,1.33.78,1.15,1.52,2.53,2.94,2.97.69.21,1.43-.5,1.2-1.2-.34-1.01-.87-1.92-1.58-2.71-.32-.36-.92-.36-1.28-.08s-.51.84-.25,1.26c.85,1.34,1.96,2.47,3.28,3.33.83.54,1.82-.52,1.33-1.33-.41-.69-.91-1.34-1.48-1.92-.34-.35-.9-.37-1.28-.08-.35.27-.54.86-.25,1.26l.11.15c.3.41.86.65,1.33.35.41-.26.67-.89.35-1.33l-.11-.15-1.53,1.18c.13.13.25.26.37.4.05.06.1.11.15.17.02.02.18.22.12.15-.07-.09.07.1.09.12.05.07.11.15.16.22.1.15.2.3.29.46l1.33-1.33c-.14-.09-.28-.19-.42-.29-.02-.01-.24-.18-.07-.05-.07-.05-.13-.1-.2-.16-.26-.21-.51-.44-.74-.68s-.46-.5-.67-.76c-.13-.16.08.11-.05-.07-.04-.06-.08-.11-.12-.17-.11-.15-.21-.3-.3-.46l-1.53,1.18c.08.09.15.17.22.26.14.17-.06-.09.06.08.12.18.24.35.35.54.1.17.19.35.28.53.02.04.04.08.05.12-.04-.1-.04-.1,0,0,.04.11.08.21.12.32l1.2-1.2s-.22-.09-.1-.03-.06-.04-.09-.05c-.05-.03-.1-.07-.16-.1-.1-.06.12.11-.01-.01-.09-.09-.19-.17-.27-.27-.04-.05-.09-.1-.13-.15-.03-.03-.15-.18-.02-.02-.36-.47-.67-.96-1-1.45l-1.68.98c.07.09.13.18.19.27.03.05.06.1.08.15l-.04-.08c0-.13,0-.14,0-.02.02-.19.02-.14-.02.15,0,.21.04.4.15.59.26.44.79.63,1.26.43.37-.16.67-.55.64-.97s-.28-.85-.71-.94c.16.07.18.08.07.02-.05-.03-.09-.06-.13-.08-.03-.02-.22-.18-.06-.04-.14-.12-.28-.24-.4-.38-.05-.06-.14-.19-.05-.05-.06-.09-.12-.17-.18-.26-.04-.07-.08-.14-.12-.21-.02-.05-.05-.1-.07-.14.05.11.05.11,0,.01l-1.43,1.1c.09.05.18.1.27.15-.14-.09-.02-.02.04.05.04.04.16.22.05.04.06.09.11.18.16.27l1.33-1.33c-.07-.05-.18-.14-.06-.03-.02-.02-.23-.22-.14-.13s-.06-.1-.08-.13c-.02-.03-.04-.07-.06-.1.04.11.05.12,0,.01l-1.2,1.2c.05.01.36.12.13.02.09.04.18.1.27.15.09.06.09.06-.01-.01.04.03.08.07.11.1.04.04.07.07.11.11-.07-.1-.07-.1-.01-.01.29.42.87.65,1.33.35.41-.27.66-.88.35-1.33h0Z"/>
  <path class="cls-2" d="M37.71,39.75c.77,1.35,1.87,2.48,3.21,3.27.89.53,1.74-.49,1.33-1.33-.68-1.39-1.87-2.4-3.3-2.94-.65-.25-1.47.53-1.2,1.2.57,1.37,1.2,2.72,1.9,4.03.6,1.11,2.23.13,1.68-.98s-1.38-2.22-2.35-3.09c-.84-.75-2.02.18-1.53,1.18,1.29,2.63,3.4,4.82,5.97,6.23.69.38,1.4-.11,1.46-.84.23-2.71-1.18-5.4-3.48-6.83-.72-.44-1.67.29-1.43,1.1.37,1.26.9,2.48,1.59,3.59.66,1.05,1.45,1.97,2.64,2.4.62.22,1.21-.35,1.23-.94.07-1.91-.68-3.78-2.03-5.13-.68-.68-1.9,0-1.63.95.57,1.95,1.81,3.6,3.5,4.71.73.48,1.64-.31,1.43-1.1-.22-.84-.65-1.57-1.25-2.19-.65-.67-1.97.01-1.63.95.46,1.25,1.11,2.36,1.99,3.36.62.71,1.97-.04,1.63-.95-.42-1.1-1.15-2.01-2.21-2.55-.41-.21-.84-.15-1.18.15-.58.51-.43,1.26-.22,1.91.23.71.45,1.42.68,2.13l1.63-.95c-.69-.63-1.33-1.3-1.94-2.01-.71-.84-2.16.27-1.53,1.18.66.96,1.32,1.91,1.98,2.87.31.45,1.11.73,1.53.2.92-1.19,1.61-2.5,1.99-3.96.33-1.23-1.45-1.68-1.88-.52-.36.97-.75,1.93-1.17,2.88s.42,1.72,1.33,1.33c.85-.36,1.54-1.03,1.99-1.83.53-.96-.74-1.97-1.53-1.18s-1.44,1.69-1.93,2.69.72,2.02,1.53,1.18c.85-.89,1.57-1.89,2.14-2.98s-1.1-2.1-1.68-.98c-.49.95-1.1,1.81-1.84,2.59l1.53,1.18c.42-.86.95-1.62,1.62-2.3l-1.53-1.18c-.3.54-.72.89-1.29,1.13l1.33,1.33c.5-1.1.95-2.21,1.37-3.34l-1.88-.52c-.3,1.12-.78,2.18-1.49,3.1l1.53.2c-.66-.96-1.32-1.91-1.98-2.87l-1.53,1.18c.6.71,1.25,1.38,1.94,2.01s1.94.03,1.63-.95c-.15-.47-.3-.95-.45-1.42-.08-.24-.15-.47-.23-.71-.04-.12-.08-.24-.11-.35-.05-.26-.11-.15-.17.34l-1.18.15c.59.3,1.08.76,1.32,1.39l1.63-.95c-.64-.74-1.15-1.59-1.49-2.51l-1.63.95c.37.38.61.82.75,1.33l1.43-1.1c-1.27-.83-2.18-2.1-2.61-3.55l-1.63.95c1.01,1,1.51,2.34,1.46,3.76l1.23-.94c-.78-.28-1.27-1.14-1.66-1.81-.52-.89-.92-1.83-1.21-2.82l-1.43,1.1c1.76,1.08,2.69,3.11,2.52,5.14l1.46-.84c-2.3-1.26-4.11-3.19-5.27-5.54l-1.53,1.18c.86.77,1.53,1.66,2.04,2.7l1.68-.98c-.62-1.16-1.2-2.35-1.71-3.57l-1.2,1.2c.97.37,1.69,1.13,2.14,2.04l1.33-1.33c-1.06-.63-1.91-1.5-2.51-2.57s-2.3-.11-1.68.98h0Z"/>
  <path class="cls-2" d="M48.43,47.28l-.18-.12c-.15-.09-.32-.13-.49-.13-.13,0-.26.02-.38.08-.12.04-.23.11-.31.2-.12.12-.2.26-.25.43,0,0,0,0,0,.01,0,.02-.03.24-.04.26,0,0,0,0,0,0,0,0,0,0,0,.01,0,.02.03.24.03.26,0,0,0,0,0,0,0,0,0,0,0,.01.01.04.06.14.05.12-.02-.05.03.08.05.12,0,0,0,0,0,.01,0,0,0,0,0,0,.03.03.05.07.08.1.02.03.05.07.08.1,0,0,.01.01.02.02.03.03.17.13.2.15,0,0,0,0,0,0,0,0,0,0,.01,0,.08.05.17.08.26.11,0,0,.02,0,.03,0,.09.02.19.03.28.04,0,0,0,0,.01,0,0,0,0,0,0,0h0c.09-.01.17-.02.26-.04,0,0,.02,0,.03,0,.04-.01.14-.06.12-.05,0,0,.08-.03.12-.05,0,0,0,0,.01,0,.08-.05.15-.11.22-.17,0,0,.02-.02.03-.03,0,0,0,0,0,0,.05-.06.11-.14.16-.2,0,0,0,0,.01-.01,0,0,.01-.02.02-.03.05-.1.09-.2.13-.3,0-.03.02-.06.03-.08.04-.13.05-.26.02-.39,0-.13-.04-.25-.12-.36-.06-.11-.14-.2-.25-.27-.09-.09-.2-.14-.33-.17l-.26-.03c-.18,0-.34.04-.49.13l-.2.15c-.12.12-.2.26-.25.43-.01.04-.02.08-.04.12l.1-.23s-.03.06-.05.08l.15-.2s-.03.03-.04.04l.2-.15s-.02.02-.04.02l.23-.1s-.02,0-.03,0l.26-.03s-.03,0-.04,0l.26.03s-.03,0-.04-.01l.23.1s-.02-.01-.04-.02l.2.15s-.02-.01-.02-.02l.15.2s0-.01-.01-.02l.1.23s0-.02,0-.02l.03.26s0-.02,0-.02l-.03.26s0-.01,0-.02l-1.43.58.18.12c.11.07.23.11.36.12.13.03.26.02.39-.02.13-.03.24-.09.33-.17.11-.07.19-.16.25-.27l.1-.23c.05-.17.05-.35,0-.52l-.1-.23c-.09-.15-.2-.26-.35-.35h0Z"/>
  <path class="cls-2" d="M52.62,48.35c-.45.04-.86.16-1.25.39-.33.2-.63.46-.9.74-.48.51-.86,1.09-1.26,1.66-.14.2-.16.53-.1.75s.24.47.45.58c.23.12.5.18.75.1s.43-.23.58-.45c.23-.33.45-.66.7-.98l-.15.2c.26-.33.53-.64.86-.9l-.2.15c.16-.12.33-.23.51-.31l-.23.1c.13-.05.26-.09.4-.11l-.26.03s.06,0,.1-.01c.26-.02.5-.09.69-.29.17-.17.3-.45.29-.69s-.09-.51-.29-.69c-.18-.17-.43-.31-.69-.29h0Z"/>
  <path class="cls-2" d="M51.68,51.46c.43-.55.81-1.14,1.17-1.73.22-.35.16-.89-.15-1.18-.12-.11-.27-.2-.43-.25-.21-.07-.57-.04-.75.1-1.11.82-2.12,1.82-2.72,3.07-.12.24-.17.49-.1.75.06.23.24.47.45.58.44.23,1.1.14,1.33-.35.19-.39.42-.75.68-1.1l-.15.2c.43-.55.93-1.04,1.48-1.47l-.2.15c.07-.05.14-.11.21-.16l-1.33-1.33c-.36.6-.74,1.18-1.17,1.73-.14.19-.16.54-.1.75.06.23.24.47.45.58.23.12.5.18.75.1l.23-.1c.15-.09.26-.2.35-.35h0Z"/>
  <path class="cls-2" d="M47.2,47.98c-.09.25-.13.51-.18.78-.08.41.05.89.45,1.1s.84.15,1.18-.15c.7-.63,1.2-1.43,1.51-2.31.14-.39-.09-.91-.45-1.1-.39-.2-.86-.16-1.18.15-.88.85-1.37,2-1.43,3.22-.04.73.86,1.23,1.46.84.76-.48,1.29-1.57,1.24-2.47-.04-.71-.54-1.3-1.29-1.27-.65.03-1.19.47-1.49,1.02-.57,1.04-.97,2.78.26,3.53.64.39,1.44.26,1.97-.26s.71-1.32.5-2c-.37-1.2-1.92-1.75-3-1.15s-1.32,2.16-.37,2.95c.78.65,1.95.69,2.88.42,1.19-.34,2.33-1.67,1.61-2.92s-2.6-1.12-3.55-.19c-.69.67-1.15,1.69-1.21,2.65-.08,1.21.85,2.23,2.09,2.18,1.1-.05,2.12-.9,2.79-1.71s1.35-2.06.71-3.11c-.33-.55-1.01-.72-1.6-.5-.46.17-.85.48-1.19.82-.71.72-1.19,1.59-1.19,2.62,0,.47.12.98.47,1.32.38.36.92.45,1.41.3.72-.21,1.33-.8,1.78-1.38s1.01-1.41.78-2.22c-.19-.64-.85-1.04-1.5-.85-.4.11-.74.38-1.02.68-.63.66-1.15,1.51-1.43,2.38-.13.39-.2.87-.06,1.27.17.48.68.85,1.2.68.48-.15.86-.68.68-1.2-.06-.19,0,.09,0,.1,0-.04,0-.11,0-.15-.01-.13-.06.28,0,.07.02-.07.03-.14.05-.21s.04-.13.07-.2c.01-.03.02-.06.04-.09.04-.12-.11.24-.03.07.07-.14.14-.28.21-.42s.15-.26.24-.39c.04-.07.09-.13.14-.2.02-.03.04-.06.06-.08.11-.16-.15.18-.03.03.09-.1.17-.21.27-.31.04-.05.09-.09.14-.14.02-.02.04-.04.06-.05.09-.09.1,0-.08.06.04-.01.08-.05.11-.07.16-.11-.24.07-.09.04.05-.01.12-.02-.07,0-.16.02-.06.05-.3-.01-.17-.04-.35-.19-.45-.35.09.15-.08-.21-.05-.13.02.09-.02-.31-.02-.14s.07-.26.02-.11c-.02.05-.02.1-.04.15-.04.12-.12.18.03-.06-.03.04-.04.09-.06.13-.06.11-.12.22-.2.32-.04.05-.07.1-.11.16-.08.12.16-.2.02-.03-.09.11-.18.21-.28.31-.08.09-.17.17-.26.25-.04.04-.08.07-.13.11-.12.11.19-.13.09-.07-.03.02-.05.04-.08.06-.09.06-.19.1-.27.16-.08.05.26-.08.09-.04-.02,0-.05.01-.07.02-.12.05.15-.02.17-.02-.06,0-.21-.01,0,.01.09.01.16.03.23.07-.11-.06.22.2.11.08.18.19.15.21.11.13-.08-.14.06.1.05.13,0-.02-.03-.13-.04-.15-.03-.11.02.26.02.14,0-.04,0-.07,0-.11,0-.07,0-.13,0-.2,0-.04,0-.08,0-.11,0-.03,0-.06,0-.09,0-.07,0-.04-.01.1.02-.02.03-.12.03-.15,0-.03.03-.06.03-.1.02-.11-.1.21-.05.11.07-.14.14-.27.22-.4.04-.06.08-.11.12-.17.1-.16-.12.15-.04.05.02-.03.04-.06.07-.08.11-.13.22-.25.34-.36.05-.05.1-.09.15-.13.18-.17-.16.1,0,0,.05-.04.11-.07.16-.1.02-.01.05-.02.07-.04.13-.08-.24.09-.1.04.11-.04.21,0-.11,0,.19,0-.25-.06-.13-.02-.2-.06-.31-.15-.42-.32.05.09-.06-.01-.06-.15,0,.02.02.1.03.11-.02-.02,0-.27-.02-.13,0,.03,0,.07,0,.1,0,.04,0,.08,0,.11,0,.17,0-.07.02-.09-.03.05-.03.14-.05.19-.01.03-.04.08-.04.11,0-.06.1-.21.02-.07s-.16.28-.25.42c-.02.03-.05.07-.07.1-.12.17.11-.12.02-.02-.07.08-.14.17-.21.25-.13.14-.26.27-.4.4-.04.04-.15.16-.2.17.11-.01.13-.1.02-.02-.05.04-.1.07-.16.11-.14.09-.31.15-.44.24.16-.12.16-.06.08-.04-.03,0-.07.02-.1.03-.04.01-.08.02-.12.03-.1.04.25,0,.1-.01-.03,0-.08,0-.11,0-.11.02.23.05.11.02-.05-.02-.18-.07-.24-.06-.01,0,.25.07.1.04,0,0-.08-.05-.08-.05.06-.03.18.16.09.07-.13-.14.04.02.04.07,0-.02-.14-.28-.05-.07.08.18,0-.04-.01-.09-.04-.14,0,.27.01.03,0-.04.03-.22.01-.24.04.05-.04.24-.01.11,0-.04.02-.08.02-.13.02-.08.04-.15.06-.23.02-.07.04-.13.07-.2.09-.24-.08.17.03-.06.06-.13.13-.26.21-.39.04-.06.08-.12.12-.19.13-.2-.14.15.02-.02.04-.04.08-.08.12-.12.02-.02.04-.03.06-.05.09-.1-.13.08-.02.01.04-.02.08-.05.12-.08.14-.08.03-.08-.01,0,0-.01.12-.04.13-.04l.06-.02c.11-.02.08-.02-.07,0,.04.02.19,0,.24,0,.17,0-.07,0-.09-.01.01.01.11.03.13.03.11,0-.17-.1-.08-.04.03.02.08.05.11.06.05.02.16.13-.08-.06.06.05.15.19-.03-.05.02.02.03.05.05.08,0,0-.09-.24-.05-.1-.07-.29,0-.19-.02-.12-.02.16.02-.11.02-.11-.01.01-.1.18,0,.04.09-.11,0-.02-.02.02-.03.06-.07.19.01,0-.02.05-.1.11-.14.15-.24.23.18-.09-.01.02-.04.03-.09.05-.13.08-.2.11.21-.07.02,0-.07.02-.14.05-.22.07-.07.02-.14.03-.21.05-.23.05.17,0,.02,0s-.31.02-.47.01c-.12,0-.29-.08,0,0-.06-.02-.12-.02-.18-.04s-.11-.04-.17-.05c-.16-.04.18.11.09.04-.02-.02-.06-.03-.09-.05-.21-.1.16.13.02.03-.02-.02-.04-.06-.06-.07,0,0,.16.22.09.11s.05.26.03.06c-.02-.14.01.15.01.14,0-.03,0-.09,0-.13-.01-.14,0,.1-.02.12.01-.01.03-.1.03-.13,0-.04.05-.16,0,0s0,.03.02-.01c-.01.02-.11.21-.06.09,0,0,.07-.05.07-.06,0,0-.19.16-.09.07.16-.12-.02.05-.07.02,0,0,.34-.07.09-.03-.19.03.06.01.1.01.14,0-.25-.07-.03,0,.03,0,.06.02.09.03.15.03-.18-.11-.06-.02.02.01.06.04.08.05.12.05-.07-.04-.08-.07,0,.02.21.23.08.07-.11-.14-.02-.02,0,.02.06.12-.06-.09-.04-.1,0,0,.03.1.03.09,0,.19.01-.25-.01-.06,0,.02,0,.1,0,.11-.05-.11.04-.17,0-.06-.07.17.03-.06.03-.06,0,0-.07.11-.07.13-.03.11.12-.15.05-.07-.05.05-.16.13.06-.03-.03.02-.06.04-.09.05.15-.06.19-.08.12-.06-.08.02-.03.01.14-.01-.1,0-.07-.03.12.03-.14-.04.1.05.1.05-.13-.08.07.06.07.07-.01-.04-.16-.12-.04-.02.1.08.03.02,0-.03-.07-.11.07.16.02.04-.04-.1.09,0,.02.14.01-.03,0-.11,0-.14,0-.03,0-.07,0-.1,0-.09.06-.09-.01.09.03-.07.03-.17.05-.24.05-.2.12-.39.18-.59.04-.13-.11.22-.01.03.02-.04.03-.07.05-.11.03-.07.08-.13.11-.19.07-.12-.14.2,0,0,.08-.1-.23.19-.07.07.03-.03.19-.09.02-.02-.16.07-.04.02,0,0,.02,0-.29.02-.16.02-.2,0-.37-.06-.53-.22s-.15-.21-.11-.14c-.13-.23-.09-.23-.07-.14-.03-.12-.02-.26-.02-.06,0,.24.04-.17,0-.04-.02.06-.03.12-.04.17-.02.06-.04.12-.06.18-.08.23.1-.18-.01.03-.04.09-.21.27-.21.36,0-.01.17-.19.07-.1-.02.02-.04.04-.06.06-.02.02-.04.03-.06.05-.1.12.21-.15.08-.07l1.46.84s.04-.4,0-.16c.02-.11.04-.22.07-.33s.06-.21.1-.32c.02-.05.04-.1.06-.16-.04.09-.04.11-.02.04.1-.18.2-.36.31-.54.07-.09.06-.09,0,0,.03-.04.07-.09.11-.13.07-.08.15-.16.23-.24l-1.63-.95c-.03.08-.06.16-.09.24.08-.19-.02.04-.04.08-.08.16-.18.32-.28.48-.02.02-.17.23-.1.14s-.09.11-.11.13c-.12.14-.25.27-.39.39l1.63.95c.05-.26.09-.52.18-.78.17-.48-.19-1.09-.68-1.2-.54-.12-1.02.16-1.2.68h0Z"/>
  <path class="cls-2" d="M53.25,52.44c-.47.59-1,1.13-1.58,1.62-.18.16-.29.46-.29.69s.11.52.29.69.43.3.69.29l.26-.03c.16-.05.31-.13.43-.25.57-.49,1.11-1.03,1.58-1.62.09-.09.16-.19.2-.31.06-.12.09-.24.08-.38,0-.24-.11-.52-.29-.69s-.43-.3-.69-.29c-.24.01-.53.09-.69.29h0Z"/>
  <path class="cls-2" d="M54.43,53.14c-.71.83-1.49,1.59-2.35,2.27-.17.14-.29.47-.29.69s.07.41.21.59c.3.39.83.49,1.26.25.67-.37,1.33-.82,1.85-1.39.63-.69,1.01-1.5,1.08-2.43.03-.41-.32-.85-.71-.94s-.91.05-1.1.45c-.15.31-.33.59-.52.86-.07.1.12-.15.04-.05-.03.03-.05.06-.08.09-.05.06-.11.12-.16.18-.12.13-.24.25-.36.37-.23.23-.48.44-.74.64-.06.05-.13.1-.19.15.07-.06.14-.11.03-.02-.03.02-.06.05-.1.07-.14.1-.28.2-.41.31l.98,1.68c.66-.51,1.32-1.01,1.89-1.62.63-.66,1.11-1.4,1.43-2.25.15-.38-.09-.91-.45-1.1-.38-.2-.87-.17-1.18.15-.51.54-1.07,1.03-1.65,1.49-.1.08.15-.11.04-.03-.04.03-.07.05-.11.08-.07.05-.14.11-.21.16-.15.11-.31.22-.46.32-.31.21-.63.41-.96.59-.44.25-.63.89-.35,1.33s.86.62,1.33.35c1.53-.86,3.24-1.97,3.61-3.82.1-.48-.1-.95-.56-1.15-.19-.08-.43-.12-.63-.05-.26.08-.42.23-.58.45-.06.08-.05.07.03-.04-.03.03-.05.07-.08.1-.04.05-.08.1-.12.15-.1.12-.2.24-.3.35-.19.21-.39.42-.59.62s-.42.39-.64.57c-.06.05-.12.1-.18.15-.05.04-.26.17-.04.03-.13.08-.25.18-.37.27-.21.15-.38.33-.45.58-.06.23-.04.54.1.75.27.41.89.66,1.33.35,1.16-.81,2.14-1.78,2.99-2.91l-1.78-.75c-.02.1-.04.19-.07.28-.01.04-.03.08-.04.12-.03.08-.11.19.02-.04-.09.16-.16.32-.26.48-.02.04-.05.07-.07.11-.05.08-.15.14.03-.03-.06.06-.11.14-.17.2-.13.14-.27.28-.42.41-.07.06-.14.11-.21.17-.15.13.19-.14.03-.02-.04.03-.07.05-.11.08-.15.11-.31.22-.47.32-.32.21-.65.39-.98.58l.98,1.68c1.38-.79,2.65-1.78,3.74-2.92l-1.63-.95s-.03.08-.04.11c.07-.24.04-.1.01-.04-.04.08-.08.16-.12.24-.08.15-.17.29-.26.43-.05.07-.1.15-.15.22-.08.1.01-.02.04-.06-.03.04-.06.08-.09.12-.11.14-.23.27-.36.4-.24.25-.5.49-.77.71-.13.11-.26.22-.39.32-.07.06-.14.11-.21.17-.03.02-.17.13-.04.03s-.03.02-.04.03c-.21.16-.37.32-.45.58-.06.23-.04.54.1.75.26.41.89.67,1.33.35,1.24-.9,2.51-1.89,3.19-3.31l-1.81-.49s0,.08-.01.11c0-.27.02-.14,0-.07-.01.07-.03.14-.05.21-.02.08-.05.15-.08.23-.05.12.02-.06.04-.08-.02.04-.04.08-.06.12-.07.14-.15.27-.24.39-.02.03-.04.06-.06.09.16-.22.08-.1.03-.05-.05.06-.11.12-.16.18-.11.11-.22.22-.34.32-.06.05-.13.1-.19.16.03-.02.17-.13.07-.05-.03.02-.06.04-.09.07-.26.19-.54.36-.83.52l1.18,1.53c.86-.68,1.65-1.43,2.35-2.27.33-.39.41-1,0-1.38-.36-.33-1.02-.41-1.38,0h0Z"/>
  <path class="cls-2" d="M44.89,52.06c.99,1.06,2.05,2.05,3.13,3.02s2.12,2.05,3.38,2.71c.47.24,1.06.12,1.33-.35.26-.44.12-1.09-.35-1.33-.59-.31-.98-.64-1.48-1.07-.54-.47-1.07-.94-1.6-1.42-1.05-.94-2.08-1.91-3.05-2.94-.36-.38-1.01-.36-1.38,0-.38.38-.36.99,0,1.38h0Z"/>
  <path class="cls-2" d="M51.88,48.95c.81.85,1.64,1.68,2.44,2.54.18.19.35.39.52.59.08.09.16.19.23.29-.06-.08-.02-.03.02.02.05.06.09.12.14.19.15.21.29.43.42.66.06.11.11.22.17.33.12.24,0-.08.02.04.02.09-.01-.2,0-.22l.25-.43-.04.05c-.33.38-.41,1,0,1.38.37.34,1.02.41,1.38,0,.64-.74.25-1.56-.18-2.29-.34-.57-.76-1.1-1.2-1.6-.88-1.01-1.85-1.95-2.78-2.92-.35-.37-1.03-.38-1.38,0s-.38.98,0,1.38h0Z"/>
  <path class="cls-2" d="M48.97,50.95c-.35.43-.68.87-.97,1.34-.26.41-.12.97.25,1.26s.97.3,1.28-.08c.11-.14.23-.27.34-.41l-1.53-1.18c-.14.3-.31.58-.5.85-.28.4-.11.98.25,1.26.38.29.93.27,1.28-.08,1.3-1.31,2.6-2.63,3.9-3.94.36-.36.39-1.02,0-1.38s-.99-.39-1.38,0c-1.3,1.31-2.6,2.63-3.9,3.94l1.53,1.18c.19-.27.36-.56.5-.85.21-.44.15-.94-.25-1.26-.35-.27-.97-.3-1.28.08-.11.14-.23.27-.34.41l1.53,1.18c.12-.19.24-.37.37-.55.06-.08.12-.16.17-.24.11-.15-.07.08,0,0,.04-.05.08-.1.12-.14.17-.21.29-.41.29-.69,0-.24-.11-.52-.29-.69-.36-.33-1.03-.42-1.38,0h0Z"/>
  <path class="cls-2" d="M54.43,51.31c-1.28,1.21-2.52,2.47-3.72,3.76-.35.37-.4,1.01,0,1.38.38.35,1.01.4,1.38,0,1.2-1.29,2.44-2.55,3.72-3.76.37-.35.38-1.03,0-1.38s-.98-.37-1.38,0h0Z"/>
  <path class="cls-2" d="M47.39,44.44c-.12-.22-.23-.43-.38-.63-.12-.16-.23-.32-.38-.45-.1-.09-.2-.19-.32-.25-.17-.09-.34-.14-.53-.15s-.38.05-.54.15c-.25.15-.43.41-.5.69-.03.13-.06.28-.04.42s.03.29.08.42.1.27.17.39c.07.11.15.22.23.31.15.16.34.27.55.34.12.04.25.06.37.05.26-.02.3-.03.54-.15.09-.04.17-.11.25-.18.21-.19.33-.49.33-.78,0-.26-.07-.43-.18-.66-.03-.06-.06-.12-.1-.17-.08-.12-.18-.24-.28-.35-.25-.24-.61-.34-.95-.25-.16.05-.31.13-.43.25-.12.12-.2.26-.25.43-.01.03-.02.05-.02.08-.01.05-.02.11-.02.16s-.02.11-.02.16c0,.13.02.28.05.4.03.13.09.24.17.33.07.11.16.19.27.25.11.07.23.11.36.12.13.03.26.02.39-.02l.23-.1c.15-.09.26-.2.35-.35l.1-.23c.05-.17.05-.35,0-.52,0-.02-.01-.04-.02-.06l.03.26s0-.08,0-.11l-.03.26s.01-.07.03-.11l-1.63.43s.07.07.1.11l-.15-.2c.06.08.1.16.14.24l-.1-.23s.03.07.03.11l-.03-.26s0,.02,0,.03l.03-.26s0,.02,0,.03l.1-.23s-.01.02-.02.03l.15-.2s-.02.02-.03.03l.2-.15s-.03.02-.04.02l.23-.1s-.03,0-.05.01l.26-.03s-.04,0-.06,0l.26.03s-.03,0-.05-.01l.23.1s-.04-.02-.06-.04l.2.15s-.06-.05-.08-.08l.15.2c-.05-.06-.09-.13-.12-.21l.1.23c-.03-.06-.05-.12-.05-.19l.03.26s0-.07,0-.11l-.03.26s.01-.07.03-.11l-.1.23s.01-.03.02-.04l-.15.2h.01c-.07.04-.13.09-.2.14h.01c-.08.02-.16.06-.23.09,0,0,.02,0,.03,0l-.26.03h.01c-.09-.01-.17-.02-.26-.03,0,0,.02,0,.03,0l-.23-.1s.04.02.07.04l-.2-.15c.11.09.2.19.29.3l-.15-.2c.15.2.27.42.39.64.06.11.14.2.25.27.09.09.2.14.33.17.13.04.26.05.39.02.13,0,.25-.04.36-.12l.2-.15c.12-.12.2-.26.25-.43l.03-.26c0-.18-.04-.34-.13-.49h0Z"/>
  <path class="cls-2" d="M41.62,41.31c-.34-.6-.78-1.16-1.29-1.63-.37-.35-1.01-.4-1.38,0-.17.19-.3.43-.29.69s.11.48.29.69c.36.43.85.72,1.37.91.2.07.45.03.63-.05s.37-.21.47-.4c.08-.15.13-.32.13-.49.01-.27-.12-.49-.29-.69-.44-.53-.94-1.02-1.49-1.45-.2-.16-.42-.3-.69-.29-.22,0-.41.07-.59.21-.16.12-.3.3-.35.51-.05.24-.06.54.1.75.28.38.61.71,1.04.93s.88.34,1.36.35c.39,0,.74-.25.89-.6.07-.17.09-.33.07-.5-.03-.2-.11-.43-.27-.56-.58-.48-1.17-.96-1.75-1.44-.21-.17-.41-.29-.69-.29-.24,0-.52.11-.69.29-.34.37-.41,1.02,0,1.38.52.46,1.09.79,1.74,1.01.22.08.56.03.75-.1.18-.12.31-.27.4-.47s.12-.43.05-.63c-.08-.26-.23-.42-.45-.58-.38-.29-.77-.55-1.19-.79-.44-.25-1.08-.12-1.33.35s-.11,1.05.35,1.33c.78.48,1.67.82,2.58.96.27.04.51.04.75-.1.2-.12.39-.35.45-.58.06-.25.04-.53-.1-.75-.13-.2-.34-.41-.58-.45-.51-.08-1-.22-1.48-.41l.23.1c-.3-.13-.59-.28-.87-.45l-.98,1.68c.41.24.81.5,1.19.79l.75-1.78c-.09-.03-.18-.07-.28-.1l.23.1c-.29-.12-.56-.28-.81-.47l.2.15c-.08-.06-.15-.12-.23-.19l-1.38,1.38c.58.48,1.17.96,1.75,1.44l.69-1.66c-.07,0-.15,0-.22-.01l.26.03c-.18-.02-.35-.07-.51-.14l.23.1c-.16-.07-.32-.16-.46-.27l.2.15c-.13-.1-.24-.22-.34-.35l.15.2-.03-.04-1.53,1.18c.55.43,1.04.92,1.49,1.45l.95-1.63s-.09-.03-.13-.05l.23.1c-.17-.07-.33-.17-.48-.28l.2.15c-.12-.1-.23-.21-.33-.33l-1.38,1.38c.24.23.47.47.67.73l-.15-.2c.17.22.33.46.46.7.25.44.89.63,1.33.35s.62-.86.35-1.33h0Z"/>
  <path class="cls-2" d="M34.41,34.73c5.38,3.14,9.72,7.66,14,12.12,1.09,1.13,2.8-.59,1.72-1.72-4.42-4.61-8.93-9.26-14.49-12.5-1.36-.79-2.58,1.31-1.23,2.1h0Z"/>
  <path class="cls-2" d="M55.86,57.41c.71-.7,1.37-1.45,1.98-2.24.33-.43.73-.89.56-1.48-.07-.24-.21-.44-.39-.61-.06-.05-.12-.1-.17-.15,0,0-.09-.1-.1-.1.03,0,.1.15.02,0-.18-.34-.68-.47-1-.26-.34.22-.45.64-.26,1,.08.16.21.3.34.42.06.05.11.1.17.15,0,0,.05.06.06.06l-.06-.08c.03.05.03.05,0-.02-.02-.06-.03-.07-.01-.03.01.06.01.03-.01-.09,0-.01.02-.15.03-.15,0,0-.14.21-.16.23-.06.08-.12.16-.18.25-.13.17.05-.06-.03.04-.04.04-.07.09-.11.13-.53.66-1.09,1.28-1.69,1.88-.27.27-.29.77,0,1.03s.74.29,1.03,0h0Z"/>
  <path class="cls-2" d="M56.64,53.97c.18.21.41.4.65.54.14.08.31.11.47.09s.31-.08.42-.2c.09-.09.15-.2.19-.32.06-.18.01-.4-.07-.56-.3-.55-.69-1.06-1.13-1.49-.14-.13-.33-.21-.52-.21-.18,0-.39.08-.52.21s-.22.32-.21.52.07.38.21.52c.19.19.37.38.53.59l-.11-.15c.18.24.34.49.49.75l1-1c-.07-.04-.14-.09-.21-.14l.15.11c-.11-.08-.21-.18-.3-.28-.12-.14-.34-.21-.52-.21s-.39.08-.52.21-.22.32-.21.52l.03.19c.03.12.1.23.19.32h0Z"/>
  <path class="cls-2" d="M38.4,21.45c-2.96-.22-5.67-1.5-7.78-3.58-1.76-1.74-3.4-3.68-6.03-3.92-2.45-.23-4.77,1.07-6.03,3.15-.74,1.21-.78,2.48-1.15,3.81-.39,1.4-1.73,2.14-2.91,2.81-.92.52-.4,1.7.49,1.81,1.64.2,3.34.52,3.95,2.24.55,1.55.96,3.1,1.73,4.58s1.7,2.76,2.89,3.83c.86.77,2.19,2.07,3.41,1.51.41-.19.52-.7.45-1.1v-.07c-.24.4-.47.8-.69,1.2l1.25-.27c.54-.12.78-.7.68-1.2-.51-2.61-1.03-5.22-1.54-7.82-.24-1.23-2.12-.71-1.88.52.51,2.61,1.03,5.22,1.54,7.82l.68-1.2-1.25.27c-.54.12-.77.7-.68,1.2v.07c.16-.37.31-.73.46-1.1.53-.05.58-.15.14-.31-.2-.12-.39-.25-.58-.39-.3-.23-.59-.48-.86-.74-.61-.59-1.15-1.26-1.62-1.97-.86-1.33-1.49-2.79-1.95-4.31-.41-1.36-.78-2.63-2.01-3.48s-2.7-1.04-4.12-1.22l.49,1.81c1.02-.58,2.07-1.21,2.83-2.12.89-1.07.99-2.23,1.28-3.54.57-2.58,3.13-4.59,5.81-3.64,2.32.82,3.79,3.37,5.75,4.77,2.13,1.52,4.65,2.34,7.25,2.54,1.25.09,1.24-1.85,0-1.95h0Z"/>
  <path class="cls-2" d="M31.27,34.54c-.29.1-.57.2-.87.25l.26-.03c-.1.01-.2.02-.3.02l.49,1.81c.61-.33,1.23-.66,1.84-.99s1.24-.7,1.79-1.16c.18-.15.29-.46.29-.69,0-.24-.11-.52-.29-.69-.42-.38-.96-.35-1.38,0-.03.03-.06.05-.1.08-.08.06-.06.05.05-.04-.01,0-.18.13-.2.14-.12.08-.24.16-.36.23-.27.17-.56.32-.84.47-.6.32-1.19.64-1.79.96-.36.19-.58.7-.45,1.1s.5.71.94.71c.49,0,.97-.14,1.43-.3s.85-.67.68-1.2c-.15-.47-.68-.86-1.2-.68h0Z"/>
  <path class="cls-2" d="M27.2,26.46c-.06.28-.11.57-.15.85-.05.37-.14.78-.13,1.16.04,1.18.94,2.38,2.22,2.3,1.59-.1,2.6-1.7,2.89-3.13.16-.8.17-1.7-.33-2.4s-1.38-1.24-2.3-1.17c-1.76.12-3.04,1.59-3.21,3.3-.08.82.26,1.64.79,2.24s1.4.92,2.2.92c1.25,0,2.5-.59,3.39-1.44.97-.92,1.56-2.28,1.29-3.62-.18-.89-.82-1.56-1.66-1.87-.64-.24-1.52-.18-2.16.03-1.11.36-1.92,1.25-2.02,2.43-.08.98.5,1.82,1.29,2.34,1.3.86,3.17.61,4.46-.13.77-.44,1.11-1.56.61-2.33s-1.5-1.09-2.33-.61c-.12.07-.25.13-.38.19l.41-.17c-.24.1-.48.16-.74.2l.45-.06c-.28.04-.56.04-.85,0l.45.06c-.19-.03-.36-.07-.53-.15l.41.17c-.12-.06-.24-.12-.34-.21l.34.27c-.07-.06-.12-.11-.18-.18l.27.34c-.05-.07-.09-.14-.12-.22l.17.41c-.02-.06-.03-.12-.04-.18l.06.45c0-.07,0-.14,0-.21l-.06.45c.02-.08.04-.14.07-.21l-.17.41c.04-.07.07-.13.12-.19l-.27.34c.05-.06.1-.11.16-.16l-.34.27c.11-.08.22-.14.34-.2l-.41.17c.16-.06.31-.09.47-.11l-.45.06c.19-.02.37-.03.56-.02l-.45-.06c.1.01.2.04.3.07l-.41-.17c.06.03.12.06.17.11l-.34-.27s.09.08.13.13l-.27-.34c.04.05.06.1.09.16l-.17-.41c.04.1.07.2.08.31l-.06-.45c.01.14.01.27,0,.4l.06-.45c-.03.18-.08.36-.15.53l.17-.41c-.1.22-.22.43-.37.62l.27-.34c-.18.23-.39.43-.62.61l.34-.27c-.24.18-.49.32-.76.44l.41-.17c-.28.12-.57.2-.87.24l.45-.06c-.16.02-.32.02-.49,0l.45.06c-.14-.02-.26-.05-.39-.1l.41.17c-.09-.04-.18-.1-.26-.16l.34.27c-.07-.06-.14-.13-.2-.21l.27.34c-.06-.08-.1-.16-.14-.25l.17.41c-.05-.11-.08-.23-.1-.35l.06.45c-.02-.13-.02-.25,0-.38l-.06.45c.02-.16.07-.32.13-.47l-.17.41c.07-.15.15-.29.25-.42l-.27.34c.12-.15.24-.28.39-.4l-.34.27c.11-.08.22-.14.34-.2l-.41.17c.1-.04.19-.07.3-.09l-.45.06c.12-.02.23-.02.34,0l-.45-.06c.09.02.18.04.26.08l-.41-.17c.06.03.12.06.18.1l-.34-.27c.05.04.1.09.15.14l-.27-.34c.05.06.08.12.11.19l-.17-.41c.04.09.06.19.08.29l-.06-.45c.02.16,0,.31-.01.46l.06-.45c-.05.31-.14.61-.25.9l.17-.41c-.09.22-.2.42-.34.61l.27-.34c-.11.14-.24.27-.38.38l.34-.27s-.09.06-.14.09l.41-.17s-.1.04-.16.05l.45-.06h-.08c.15.02.3.04.45.06-.05,0-.09-.02-.13-.04l.41.17-.06-.04.34.27s-.07-.06-.1-.1l.27.34s-.06-.08-.08-.12l.17.41c-.03-.08-.05-.14-.06-.22l.06.45c-.02-.23.02-.46.05-.69l-.06.45c.04-.32.1-.64.17-.95.1-.45.06-.91-.17-1.31-.21-.35-.61-.69-1.02-.78-.86-.2-1.9.26-2.1,1.19h0Z"/>
  <path class="cls-2" d="M20.17,23.05c-.05,2.37,2.51,3.38,4.49,3.59,2.41.25,4.77-.97,6.07-2.98.54-.84.06-2.34-1.02-2.5-3.25-.48-6.24.45-9.34,1.32-.91.26-1.4,1.19-1.19,2.1.23,1.02.92,1.99,2.07,2,.96,0,1.7-.72,1.98-1.59.25-.76.13-1.65-.44-2.24-.79-.8-1.96-.67-2.82-.1-.99.65-1.05,1.8-.34,2.68-.12-.15.13.19.17.24.1.15.2.31.3.47.23.38.45.77.65,1.16.37.72.72,1.46,1.09,2.18.81,1.58,1.8,3.07,3.25,4.13,1.29.94,2.97,1.36,4.49.78,1.42-.54,2.52-1.57,3.52-2.68.51-.57.99-1.16,1.5-1.72.25-.28.51-.55.79-.8.12-.11.24-.22.37-.32-.29.22.08-.03.18-.1l-2.5-1.02s.09.37.03.38c.03-.92.77-1.3,2.22-1.12.19.1.34.25.45.43.13.23.2.43.1.8-.05.17-.13.32-.25.45-.21.15-.22.18-.05.09l-2.56-1.47c.09.97.03,1.53-.3,2.42-.22.59-.67,1.27-1.18,1.8-1.06,1.09-2.32,1.68-3.78,1.55,0,0-.18,0-.11.02-.17-.05-.35-.16-.52-.24-.4-.19-.8-.39-1.18-.62-.79-.46-1.3-.8-1.9-1.4-1.03-1.02-1.62-2.32-1.31-3.84.01-.07.03-.33.12-.33.02,0-.4.31-.21.19.16-.11-.04.06-.08,0s.43.16,0,0c.17.06.09,0,.17.08.48.55.98,1.1,1.43,1.73,1.08,1.48,2.18,3,3.91,3.75.98.43,2,.65,3.04.26.86-.32,1.57-.94,2.02-1.75.79-1.42.82-3.34-.04-4.74-.54-.88-1.45-1.63-2.52-1.58s-2.17.64-2.45,1.77c-.37,1.49.42,3.19,2.09,3.27,1.37.07,2.48-.93,3.15-2.03,1.15-1.87-1.79-3.59-2.94-1.72.03-.05-.33.51-.21.32-.19.11-.2.12-.04.05.32-.06.62.04.9.29l.44.75c-.02-.08-.13-.25-.07-.29,0,.31-.11.54-.35.71-.11.16-.25.25-.44.29.15-.08.4.01-.07,0,.09,0,.17,0,.26,0l-.86-.23c.07.04.43.28.08.03.05.03.38.36.06.04.06.06.22.46.07.05.05.12.07.26.12.38.14.34.04-.29.02.08,0,.13,0,.28,0,.41.02.38.12-.26-.02.09-.04.09-.25.61-.05.23-.05.1-.11.19-.16.29-.11.19.28-.22-.01,0-.32.25.33-.1-.05.05s.36-.05-.07.04.19,0,.16.04c-.03.04-.5-.14-.55-.15.25.09-.27-.13-.26-.13-.06-.03-.56-.36-.39-.23-.42-.32-1.01-1-1.2-1.24-.55-.71-1.05-1.45-1.61-2.15-1.08-1.37-2.58-2.58-4.45-2.04-2.05.6-2.54,2.95-2.37,4.81.16,1.75.9,3.3,2.09,4.59,1.06,1.16,2.44,2.04,3.85,2.72.86.42,1.65.7,2.61.77.79.05,1.63-.06,2.4-.29,3.74-1.12,6.55-4.95,6.18-8.88-.13-1.34-1.34-2.05-2.56-1.47-1.6.76-1.82,3.13-.29,4.09.75.47,1.74.38,2.36-.26.74-.76.62-1.86.43-2.81-.21-1.09-1.61-1.55-2.5-1.02-1.39.83-2.37,2.15-3.42,3.34-.29.33-.58.65-.89.96-.15.15-.3.29-.46.43-.07.06-.37.3-.13.12-.16.12-.32.23-.49.32-.09.05-.61.26-.22.13-.17.06-.34.11-.52.14.42-.09-.04-.02-.15-.02-.13,0-.09,0,.11.02-.1-.02-.19-.04-.28-.07-.1-.03-.19-.06-.29-.1.16.06.15.05-.04-.04-.42-.29-.53-.31-.91-.68-.62-.61-1.01-1.26-1.48-2.12-.97-1.79-1.73-3.64-3.01-5.25l-.34,2.68c.19-.12.26-.08.12-.09-.13.07-.27.09-.41.08l-1.25-.72c-.18-.25-.14-.53-.16-.8-.02-.23.04-.17,0-.03,0,0,.2-.41.09-.23-.06.1-.04.07.06-.08.16-.27.43-.38.81-.31.62-.36,1.14-.21,1.56.44l-.04-.08c.15.08.1.29.02-.09l-1.19,2.1c2.4-.68,4.99-1.7,7.53-1.32l-1.02-2.5c-.59.92-1.66,1.36-2.73,1.33-.07,0-.5-.05-.17,0-.11-.02-.22-.04-.33-.07-.25-.06-.51-.13-.75-.22-.26-.1.3.18-.12-.06-.04-.02-.4-.22-.22-.12.09.07.07.05-.05-.06l.09.12c0,.08.06.57.07.19.04-2.19-3.36-2.19-3.41,0h0Z"/>
  <path class="cls-2" d="M25.85,21.94l.02.03-.27-.34c.16.21.3.44.4.68l-.17-.41c.1.24.17.5.21.76l-.06-.45c.03.25.03.5,0,.75l.06-.45s0,.05-.01.08l2.5-1.02c-.71-.33-1.43-.62-2.18-.84-.23-.07-.45-.08-.68-.03-.23.01-.44.08-.63.2-.2.11-.36.25-.48.44-.15.16-.25.36-.3.58-.1.44-.08.93.17,1.31s.58.65,1.02.78.9.29,1.34.48l-.41-.17c.15.06.29.13.43.19.27.15.55.23.86.23.23,0,.45-.04.66-.15.21-.07.39-.19.55-.35.21-.21.36-.46.44-.75.05-.35.11-.7.09-1.06s-.07-.72-.16-1.06-.23-.66-.39-.97-.38-.59-.6-.87c-.15-.17-.34-.28-.55-.35-.2-.11-.42-.16-.66-.15-.23,0-.45.04-.66.15-.21.07-.39.19-.55.35-.3.32-.52.75-.5,1.2l.06.45c.08.29.23.54.44.75h0Z"/>
  <path class="cls-2" d="M18.75,21.22c-.13.26-.28.51-.45.74l.27-.34c-.17.22-.36.41-.58.58l.34-.27c-.09.07-.18.13-.28.19l1.72,2.94c.23-.17.46-.34.69-.51l-1.72-2.94c-.23.17-.46.34-.69.51l2.06,2.68c.44-.35.89-.7,1.33-1.05.17-.15.28-.34.35-.55.11-.2.16-.42.15-.66,0-.23-.04-.45-.15-.66-.07-.21-.19-.39-.35-.55l-.34-.27c-.27-.15-.55-.23-.86-.23l-.45.06c-.29.08-.54.23-.75.44-.44.35-.89.7-1.33,1.05-.17.15-.28.34-.35.55-.11.2-.16.42-.15.66l.06.45c.05.22.15.41.3.58.08.13.18.23.31.31.16.15.36.25.58.3l.45.06c.31,0,.59-.08.86-.23.23-.17.46-.34.69-.51.2-.11.36-.25.48-.44.15-.16.25-.36.3-.58.07-.23.08-.45.03-.68-.01-.23-.08-.44-.2-.63l-.27-.34c-.21-.21-.46-.36-.75-.44l-.45-.06c-.31,0-.59.08-.86.23-.23.17-.46.34-.69.51-.2.11-.36.25-.48.44-.15.16-.25.36-.3.58-.07.23-.08.45-.03.68.01.23.08.44.2.63l.27.34c.21.21.46.36.75.44l.45.06c.31,0,.59-.08.86-.23.26-.16.51-.36.75-.56.13-.11.25-.24.36-.37.31-.37.6-.76.81-1.2.12-.2.19-.41.2-.63.05-.23.04-.45-.03-.68-.05-.22-.15-.41-.3-.58-.12-.19-.28-.33-.48-.44l-.41-.17c-.3-.08-.6-.08-.91,0l-.41.17c-.26.15-.46.36-.61.61h0Z"/>
  <path class="cls-2" d="M25.3,19.15c.17.01.34.02.51.04l-.45-.06c.13.02.25.05.38.09l.45.06c.23,0,.45-.04.66-.15.33-.14.64-.37.81-.7.34-.65.3-1.54-.27-2.06-.85-.78-1.9-1.22-3.06-1.27-.48-.02-.99.05-1.45.19s-.97.36-1.38.67c-.37.28-.66.56-.78,1.02-.11.41-.06.95.17,1.31s.58.68,1.02.78.95.1,1.31-.17c.21-.16.44-.29.68-.39l-.41.17c.24-.1.49-.16.74-.2l-.45.06c.27-.04.54-.04.82,0l-.45-.06c.25.04.5.1.74.2l-.41-.17c.22.1.43.22.63.36l-.34-.27c.08.06.15.12.22.19l1.66-2.85c-.43-.14-.89-.16-1.33-.2-.41-.04-.92.22-1.2.5s-.52.78-.5,1.2.16.9.5,1.2.73.46,1.2.5h0Z"/>
  <path class="cls-2" d="M26.31,21.26c1.7.87,3.4,1.74,5.1,2.61l1.72-2.94c-.53-.25-1.02-.55-1.5-.89-.12-.09-.25-.18-.37-.27.09.07.3.24.09.07-.06-.05-.12-.1-.18-.14-.23-.18-.45-.37-.68-.56-.99-.83-2-1.68-3.15-2.26-.79-.4-1.88-.24-2.33.61-.41.78-.24,1.9.61,2.33.52.26,1.01.58,1.48.93.04.03.29.22.05.03s0,0,.05.04c.12.1.24.19.36.29.23.19.45.37.68.56.99.82,2,1.66,3.18,2.22.42.2.85.3,1.31.17.4-.11.82-.41,1.02-.78.41-.78.24-1.9-.61-2.33-1.7-.87-3.4-1.74-5.1-2.61-.79-.41-1.88-.23-2.33.61-.41.78-.24,1.9.61,2.33h0Z"/>
  <path class="cls-2" d="M31.59,24.15c-1.17.74-1.8,2.04-1.06,3.33.52.89,1.6,1.35,2.57,1.48,1.8.24,4-1.15,4.48-2.92.29-1.09-.21-2.29-1.19-2.85-.85-.48-1.97-.37-2.79.12s-1.38,1.33-1.37,2.29c.01,1.27,1.08,2.25,2.3,2.34,2.26.18,4.31-2.84,2.36-4.57l-1.2,2.91c1.14.11,2.07-.51,2.71-1.4.75-1.04-.25-2.62-1.47-2.56-.43.02-.86.02-1.29,0-.11,0-.21-.02-.32-.03,0,0-.46-.06-.25-.03.18.03-.14-.02-.17-.03-.11-.02-.21-.04-.32-.06-.42-.08-.83-.19-1.24-.32-.2-.06-.41-.13-.61-.21-.1-.04-.2-.08-.3-.11-.27-.09.35.16-.11-.05-.79-.35-1.54-.77-2.26-1.26-.18-.12-.35-.25-.53-.37-.24-.17.03.03-.11-.08-.08-.07-.17-.13-.25-.2-.35-.29-.69-.6-1.02-.91-.64-.62-1.78-.69-2.41,0s-.69,1.75,0,2.41c2.98,2.87,6.98,4.85,11.19,4.66l-1.47-2.56c.11-.16.18-.19.35-.27h.17c-.1,0-.19,0-.29-.02-1.46-.14-2.27,1.97-1.2,2.91.19.17-.15-.29-.18-.4-.02-.33-.04-.4-.03-.23l.03-.3c.12-.43.14-.26.03-.11.31-.42.13-.16.03-.08.22-.16.27-.2.16-.13-.04.03-.08.05-.12.07-.12.06-.11.06.04-.01.15-.06.16-.07.04-.03-.3.09.42-.02.12-.02.29,0,.57.11.77.32l.15.21c-.09-.16-.07-.1.06.18l.04.3c0-.18,0-.1-.03.24l-.12.27c.09-.14.04-.09-.14.16.04-.05.24-.22,0-.02-.29.25.27-.08-.09.05-.31.11.01.02.07,0,.15-.07-.48.03-.13.03-.07,0-.25-.02-.33-.07-.22-.12-.39-.24-.53-.46.11.17-.09-.31-.09-.43.01.35,0-.37.13-.37-.03.07-.07.13-.11.19l.13-.16s-.23.23-.25.26c-.27.27.28-.16-.05.04-.11.06-.21.13-.32.19-.05.03-.11.06-.16.08-.12.06-.07.04.14-.06,0,.02-.28.09-.3.1-.29.11.43,0,.09-.01-.32,0,.37.12.02.01-.06-.02-.32-.05-.33-.1l.19.08c-.07-.03-.13-.07-.2-.11l.17.14c-.1-.1-.1-.09,0,.03.14.38.23.53.12.95,0,.19-.08.35-.21.48-.18.12-.18.12,0,0,.75-.47,1.12-1.54.61-2.33s-1.52-1.12-2.33-.61h0Z"/>
  <path class="cls-2" d="M27.99,29.07s.09.01.14.02l-.45-.06c1.18.16,2.38.57,3.55.15.75-.26,1.38-.71,1.79-1.4.25-.42.34-.82.39-1.29,0-.09.01-.17,0-.25-.02-.23-.04-.48-.12-.7-.15-.42-.38-.78-.78-1.02-.37-.21-.9-.3-1.31-.17s-.81.39-1.02.78-.33.88-.17,1.31c.02.07.04.13.05.2l-.06-.45c.01.1.01.2,0,.3l.06-.45c-.02.1-.05.2-.09.3l.17-.41c-.04.1-.1.18-.16.27l.27-.34c-.08.1-.16.18-.26.26l.34-.27c-.11.08-.22.14-.35.2l.41-.17c-.17.07-.34.11-.51.13l.45-.06c-.28.03-.56.02-.84-.01l.45.06c-.66-.09-1.3-.25-1.96-.32-.41-.04-.93.22-1.2.5-.3.3-.52.78-.5,1.2s.16.9.5,1.2l.34.27c.27.15.55.23.86.23h0Z"/>
  <path class="cls-2" d="M21.66,18.51c-.49.1-.87.53-.99,1-.14.52,0,1.06.23,1.52.2.38.51.73.88.93.4.22.87.28,1.31.16.23-.07.44-.18.62-.34.19-.17.32-.4.41-.64s.13-.51.14-.77c0-.22-.02-.46-.09-.67-.27-.82-1.09-1.47-1.97-1.41-.47.03-.96.22-1.26.59-.17.21-.29.44-.36.7-.06.22-.08.46-.09.69,0,.1,0,.2,0,.3,0,.25.22.5.49.49s.5-.21.49-.49c0-.21,0-.42.02-.63l-.02.13c.02-.15.06-.3.12-.44l-.05.12c.04-.09.09-.18.15-.25l-.08.1c.06-.08.13-.15.21-.21l-.1.08c.08-.06.17-.11.26-.15l-.12.05c.11-.05.23-.08.35-.1l-.13.02c.12-.02.24-.02.36,0l-.13-.02c.13.02.25.05.36.1l-.12-.05c.13.05.25.13.36.21l-.1-.08c.11.08.2.18.28.28l-.08-.1c.08.11.15.22.2.34l-.05-.12c.05.12.08.24.1.37l-.02-.13c.02.16.02.31,0,.47l.02-.13c-.02.18-.06.35-.13.52l.05-.12c-.03.08-.08.15-.13.22l.08-.1c-.05.07-.11.12-.18.18l.1-.08c-.07.05-.15.1-.23.13l.12-.05c-.1.04-.2.07-.3.08l.13-.02c-.11.01-.22.01-.33,0l.13.02c-.11-.02-.21-.04-.31-.08l.12.05c-.12-.05-.22-.11-.33-.19l.1.08c-.12-.09-.22-.2-.31-.32l.08.1c-.11-.14-.2-.3-.27-.46l.05.12c-.06-.15-.11-.31-.14-.48l.02.13c-.02-.13-.02-.25,0-.38l-.02.13c.01-.09.04-.18.07-.27l-.05.12c.03-.08.07-.15.12-.21l-.08.1c.05-.07.11-.12.17-.17l-.1.08s.1-.07.16-.09l-.12.05c.05-.02.1-.04.15-.05.11-.02.23-.13.29-.22.06-.1.09-.26.05-.38-.09-.27-.33-.39-.6-.34h0Z"/>
  <path class="cls-2" d="M23.41,18.79s.07.01.11.02c.02,0,.03,0,.05.01.05.02.04.01-.03-.01,0,0,.15.08.17.09.02.01.04.02.05.04l-.05-.04s.07.06.09.07c.05.05.1.1.15.15.04.04.1.1.13.15-.04-.06-.05-.06-.02-.02,0,.01.02.03.03.04.02.03.05.07.07.1.08.12.16.25.23.38.02.03.03.06.05.1.01.03,0,.02-.01-.03,0,.02.02.04.03.07.02.07.04.13.06.2,0,.03.01.07.02.1.02.11,0-.11,0,.01,0,.07,0,.14,0,.2,0,.02,0,.03,0,.05,0,.04,0,.02,0-.05-.01.01-.01.07-.02.09,0,.04-.02.07-.03.1,0,.01,0,.03-.02.04-.02.05-.01.04.01-.03-.02,0-.07.14-.09.16-.05.08.07-.07,0,0-.03.03-.06.06-.09.09l.69.69c.24-.23.47-.5.57-.83.12-.38,0-.76-.17-1.1-.15-.28-.35-.55-.57-.79s-.51-.45-.83-.51c-.2-.04-.38,0-.51.17-.11.14-.15.38-.04.54.14.2.31.36.48.53.04.04.08.08.11.12.02.02.03.04.05.05.07.07-.06-.09,0,0,.03.04.05.08.07.12.05.08-.03-.1,0,0,0,.03.01.06.02.08.02.05,0-.11,0,0,0,.03,0,.06,0,.09,0,.11,0,0,0,0,0,0-.02.1-.02.11-.02.06-.04.12-.06.18-.04.12.04-.09,0,.02-.01.03-.03.06-.04.08-.13.26-.27.53-.33.82-.03.17,0,.34.13.47.12.12.31.18.47.13.56-.18.92-.73.91-1.31s-.34-1.13-.77-1.5c-.24-.22-.52-.38-.83-.48-.28-.09-.59-.12-.88-.16-.57-.07-1.17-.15-1.65.23-.26.21-.38.55-.45.86-.08.35-.11.71-.09,1.06.01.25.22.5.49.49.26-.01.5-.21.49-.49,0-.07,0-.14,0-.22,0-.04.03-.14,0-.02.01-.04.01-.08.02-.11.01-.07.03-.14.06-.21.01-.04.03-.07.04-.11.02-.05-.02.04-.02.04.01-.01.02-.04.03-.06.03-.06.07-.13.11-.19.01-.02.04-.09.07-.1,0,0-.06.07-.03.03.01-.02.03-.03.04-.05.05-.05.1-.1.15-.15.01-.01.11-.09.05-.04-.05.04,0,0,0,0,.02-.01.04-.02.05-.04.06-.04.12-.07.18-.1.01,0,.03-.01.04-.02.08-.04-.02,0-.03.01.03,0,.07-.03.11-.04.07-.02.13-.04.2-.05.02,0,.05,0,.06-.01,0,0-.1.01-.05,0,.04,0,.07,0,.11,0,.07,0,.14,0,.21,0,.02,0,.09,0,.02,0-.07,0-.02,0,0,0,.03,0,.07.01.1.02.06.02.13.05.19.06,0,0-.11-.05-.03-.01.01,0,.03.01.04.02.03.02.06.03.09.05.04.02.07.04.1.06.01,0,.02.02.04.03.05.03-.09-.08-.01-.01.06.05.11.1.17.16.02.03.04.06.07.08,0,0-.07-.09-.02-.03.01.02.02.03.03.05.04.07.08.14.12.22l.08-.59-.02.02.21-.13h.09c.1,0,.12,0,.08,0-.02-.01-.05-.02-.07-.03-.02,0-.12-.05-.06-.02s0,0-.01,0c-.02-.01-.05-.02-.07-.03-.04-.02-.08-.04-.12-.06-.16-.08-.31-.16-.47-.23-.35-.15-.7-.27-1.08-.29s-.78.12-1.09.38c-.25.22-.43.55-.5.87-.16.74.1,1.53.53,2.13.21.3.46.58.76.8.33.24.77.24,1.17.24.44,0,.89-.06,1.33-.12.18-.02.37-.03.54-.09.13-.04.26-.1.35-.2.12-.13.17-.28.19-.45.03-.25-.24-.5-.49-.49-.29.01-.46.21-.49.49,0-.07.05-.26.16-.28h-.02s-.03.03.04,0c-.02,0-.06.02-.08.02-.03,0-.06.01-.09.02-.08.01-.16.02-.24.03-.04,0-.08.01-.12.02-.06,0-.05,0,0,0-.03,0-.05,0-.08.01-.32.04-.65.07-.97.08-.16,0-.32,0-.48-.01-.04,0-.06.02.02,0-.03,0-.08-.02-.11-.02-.11-.02.08.05-.01,0-.03-.02-.1-.04-.12-.07l.04.03s-.04-.03-.05-.04c-.03-.02-.05-.05-.08-.07-.05-.05-.1-.1-.15-.15s-.09-.1-.14-.16c-.06-.07,0,0,.01.02-.03-.03-.06-.08-.08-.11-.08-.11-.15-.23-.21-.36-.02-.03-.03-.06-.05-.09-.01-.03-.07-.12,0-.01-.04-.07-.06-.17-.09-.24-.02-.06-.03-.12-.05-.18,0-.04-.01-.07-.02-.11-.02-.12,0,.11,0-.02,0-.08,0-.15,0-.23v-.04c0-.06,0-.05,0,.02,0-.04.02-.09.02-.12,0-.02.07-.16.06-.18l-.02.06s.02-.04.03-.06c0-.02.02-.04.03-.05.02-.03.03-.05.05-.08.06-.09-.08.08,0,0,.02-.02.04-.04.06-.07.01-.01.03-.03.05-.04-.06.04-.07.05-.03.02.03-.02.05-.03.08-.05l.03-.02s.04-.02-.03,0c.02-.03.16-.05.19-.05.11-.03-.11,0,0,0,.02,0,.04,0,.07,0,.03,0,.07,0,.1,0,.02,0,.04,0,.07,0,.05,0,.04,0-.03,0,.06-.01.17.03.23.05.08.02.15.05.23.08.02,0,.14.05.02,0,.05.02.09.04.14.06.07.03.14.06.2.1.18.09.37.18.56.26.26.11.54.17.77-.06.17-.17.17-.39.08-.59-.32-.7-1.06-1.16-1.82-1.19-.81-.03-1.59.43-1.99,1.12-.23.39-.34.85-.33,1.3h.97c0-.12,0-.23,0-.35,0-.05,0-.1.01-.16,0-.03,0-.06.01-.1,0-.04,0-.03,0,.03,0-.02,0-.04,0-.06.02-.11.04-.21.07-.32.01-.05.03-.1.04-.14.02-.07-.06.1,0,0,.01-.02.02-.05.04-.07.05-.08-.01-.01,0,0,0,0,.05-.05.05-.05.06-.06-.01.02-.03.02.01,0,.04-.02.05-.03h.03s.04-.03,0-.01h-.03s.04,0,.06,0c.02,0,.04,0,.06-.01.09-.02-.11,0,0,0,.2-.01.4,0,.6.03.12.01.24.03.36.04-.02,0-.1-.01-.01,0,.03,0,.05,0,.08.01.06,0,.12.02.19.03.11.02.22.05.33.08.02,0,.05.01.07.03-.08-.05-.04-.02-.02,0,.06.03.11.06.17.09.02.01.04.03.06.04.03.02.1.05,0,0,.04.02.07.06.11.09.08.07.16.15.23.24h.01c.03.05.03.05-.01,0,.01,0,.03.05.04.06.03.04.05.08.07.11.02.03.08.11.08.15,0,0-.04-.11-.01-.02.01.03.02.06.03.1,0,.02.01.04.02.06,0,.02,0,.03,0,.05,0,.04,0,.02,0-.05.02,0,0,.13,0,.15,0,.01,0,.04,0,.06.01-.08.01-.1,0-.06,0,.01,0,.03,0,.04-.01.04-.04.09-.04.14,0-.08.04-.08.01-.04-.01.02-.03.05-.04.07,0,.01-.06.09-.01.02.05-.07,0,0-.02.01-.02.02-.03.03-.05.05-.03.03.1-.07,0,0-.02,0-.03.02-.05.03-.03.02-.02.01.05-.02-.02,0-.04.01-.05.02l.6.6c.01-.07.03-.14.06-.21.01-.03.02-.07.04-.1-.03.06-.02.05,0,0,.06-.13.13-.26.18-.39.15-.35.25-.69.18-1.07-.05-.29-.22-.53-.42-.74-.08-.08-.16-.15-.23-.23-.04-.04-.08-.08-.12-.13-.01-.02-.04-.06-.06-.07l.04.05s-.02-.03-.03-.05l-.55.71c.05,0,.1.04.15.04-.06-.03-.08-.03-.04-.02.01,0,.03.01.04.02.02.01.05.03.07.04.07.05.02,0,0,0,.02,0,.05.04.06.05.04.04.09.08.13.13s.08.09.11.13c0,.01.07.09.03.04s.02.03.03.04c.08.1.15.21.21.32.03.05.06.11.08.16s-.03-.09,0,0c0,.03.02.06.03.09,0,.02.03.07.02.09,0-.06-.01-.08,0-.04,0,.02,0,.04,0,.05,0,.09.02-.07,0-.02,0,.03-.01.05-.02.08v.03s-.03.04-.01,0c.02-.04.02-.04,0,0l-.02.03s-.05.11-.09.14c.04-.05.05-.06.02-.03-.01.01-.02.03-.03.04-.02.02-.04.04-.06.06-.04.04-.09.09-.13.13-.18.18-.19.51,0,.69.2.19.48.18.69,0,.31-.27.46-.67.5-1.07s-.07-.78-.24-1.14c-.15-.33-.38-.64-.62-.91s-.58-.52-.96-.59c-.25-.05-.54.07-.6.34-.05.24.07.55.34.6h0Z"/>
</svg>