<?xml version="1.0" standalone="no"?>
<!DOCTYPE svg PUBLIC "-//W3C//DTD SVG 20010904//EN"
 "http://www.w3.org/TR/2001/REC-SVG-20010904/DTD/svg10.dtd">
<svg version="1.0" xmlns="http://www.w3.org/2000/svg"
 width="1200.000000pt" height="1200.000000pt" viewBox="0 0 1200.000000 1200.000000"
 preserveAspectRatio="xMidYMid meet">
<metadata>
Created by potrace 1.14, written by Peter Selinger 2001-2017
</metadata>
<g transform="translate(0.000000,1200.000000) scale(0.100000,-0.100000)"
fill="#000000" stroke="none">
<path d="M2519 10616 c-2 -2 -33 -7 -69 -10 -219 -23 -526 -146 -638 -255 -32
-31 -79 -92 -106 -136 -95 -154 -101 -159 -225 -190 -156 -38 -315 -154 -405
-296 l-16 -26 72 -35 c40 -20 89 -43 108 -51 370 -161 384 -210 144 -512 -88
-112 -150 -203 -142 -209 1 -2 26 -11 54 -20 103 -34 210 -125 299 -255 l46
-67 -64 -125 c-66 -128 -176 -380 -203 -465 -49 -156 -64 -211 -69 -248 -3
-23 -8 -61 -11 -86 -12 -90 -10 -437 2 -547 55 -470 242 -847 594 -1191 123
-121 325 -283 575 -462 172 -123 256 -184 325 -237 59 -44 165 -136 218 -187
125 -120 239 -278 228 -314 -4 -11 -29 -42 -57 -71 -63 -62 -136 -88 -276 -94
-72 -4 -100 -10 -128 -27 -19 -12 -35 -25 -36 -28 0 -4 -2 -16 -5 -27 -14 -65
-12 -79 16 -119 51 -74 146 -151 265 -216 33 -17 65 -35 70 -38 6 -4 12 -7 15
-7 21 -4 231 -118 273 -149 53 -39 73 -91 53 -138 -6 -15 -42 -53 -80 -85
-105 -87 -196 -236 -196 -319 0 -39 119 -92 265 -118 79 -14 368 -15 460 -1
239 35 491 125 658 236 l58 39 92 -36 c51 -20 142 -56 202 -79 202 -79 393
-141 499 -161 12 -2 32 -6 46 -9 77 -15 261 -21 330 -11 243 38 443 184 571
417 l26 46 -31 20 c-17 11 -91 58 -165 103 -256 159 -406 290 -503 436 -65 99
-66 107 -21 126 75 33 293 95 424 122 97 20 181 35 219 41 25 3 70 10 100 15
30 5 78 11 107 14 29 3 74 8 100 11 295 35 1073 42 1276 10 12 -2 56 -6 97
-10 41 -4 86 -8 100 -10 14 -2 48 -6 75 -9 28 -3 61 -8 75 -11 14 -3 41 -7 60
-10 31 -5 109 -18 172 -29 13 -2 55 -12 93 -21 39 -9 79 -18 89 -20 104 -22
726 -244 1236 -442 196 -76 224 -87 292 -117 20 -9 39 -16 43 -16 7 0 33 -11
128 -54 32 -14 63 -26 70 -26 7 0 17 -4 23 -9 5 -5 50 -26 99 -46 136 -57 518
-245 620 -305 134 -78 155 -90 159 -90 8 0 -129 249 -209 380 -28 47 -57 96
-65 109 -8 14 -18 30 -22 35 -4 6 -60 89 -123 185 -64 96 -155 226 -203 290
-78 106 -259 339 -272 351 -3 3 -39 45 -80 95 -75 90 -113 134 -160 185 -137
149 -179 196 -180 205 -2 17 92 105 175 164 79 56 113 77 230 141 33 18 76 42
95 53 19 11 55 32 80 46 115 64 258 185 321 271 26 35 79 133 79 146 0 6 -117
-1 -170 -10 -14 -3 -50 -7 -80 -10 -30 -4 -66 -8 -80 -10 -14 -3 -47 -7 -75
-11 -27 -3 -63 -8 -80 -10 -121 -18 -244 -36 -265 -40 -14 -2 -61 -9 -105 -15
-44 -6 -92 -13 -106 -16 -27 -4 -57 -8 -154 -19 -33 -4 -67 -9 -75 -10 -8 -2
-44 -6 -80 -10 -36 -4 -73 -9 -82 -10 -9 -2 -52 -7 -95 -10 -43 -4 -85 -8 -93
-10 -36 -7 -303 -18 -410 -17 -495 4 -830 112 -1070 344 -121 115 -236 301
-294 475 l-25 73 47 37 c482 390 641 550 837 843 58 87 202 370 229 450 8 25
26 75 39 112 l25 67 -56 -4 c-73 -7 -97 -10 -272 -41 -184 -32 -318 -34 -410
-5 -36 11 -75 27 -87 36 l-22 15 35 61 c19 34 34 65 34 70 0 5 5 9 10 9 6 0
10 5 10 10 0 6 72 130 160 276 88 146 160 268 160 271 0 4 6 14 14 22 15 17
156 275 156 285 0 4 -10 4 -22 2 -13 -3 -49 -7 -81 -10 -32 -3 -62 -8 -65 -10
-4 -2 -23 -7 -43 -10 -128 -20 -429 -131 -849 -311 -326 -140 -577 -249 -635
-275 -22 -9 -116 -48 -210 -85 -93 -37 -179 -71 -190 -75 -151 -61 -551 -189
-635 -203 -14 -3 -45 -10 -70 -17 -25 -7 -54 -13 -65 -15 -11 -1 -49 -8 -85
-14 -99 -18 -103 -19 -187 -27 -531 -49 -886 107 -1108 485 l-35 59 14 79 c61
329 53 594 -26 843 -24 76 -87 213 -123 267 -14 21 -31 46 -38 57 -48 72 -148
181 -227 246 -30 25 -57 48 -60 51 -16 18 -140 95 -231 142 -172 90 -416 169
-624 202 -45 7 -410 17 -416 11z m41 -529 c79 -42 110 -151 67 -234 -40 -76
-165 -104 -241 -53 -78 54 -97 162 -40 239 15 20 29 38 30 39 7 10 83 31 110
32 17 0 50 -10 74 -23z"/>
</g>
</svg>
